<svg width="20" height="20" viewBox="0 0 20 20" fill="none" xmlns="http://www.w3.org/2000/svg">
    <path d="M16.6667 13.9167V15.5834C16.6667 16.0417 16.2917 16.4167 15.8334 16.4167C8.75004 16.4167 3.00004 10.6667 3.00004 3.58341C3.00004 3.12508 3.37504 2.75008 3.83337 2.75008H5.50004C5.95837 2.75008 6.33337 3.12508 6.33337 3.58341C6.33337 4.58341 6.50004 5.50008 6.83337 6.41675C6.91671 6.66675 6.83337 6.91675 6.66671 7.08341L5.50004 8.25008C6.41671 10.0834 8.33337 12 10.1667 12.9167L11.3334 11.75C11.5 11.5834 11.75 11.5 12 11.5834C12.9167 11.9167 13.8334 12.0834 14.8334 12.0834C15.2917 12.0834 15.6667 12.4584 15.6667 12.9167L16.6667 13.9167Z" stroke="#666666" stroke-width="1.5" stroke-linecap="round" stroke-linejoin="round"/>
</svg> 