<svg width="19" height="22" viewBox="0 0 19 22" fill="none" xmlns="http://www.w3.org/2000/svg">
<path d="M8.1663 14.2497L6.64643 12.7299C6.53787 12.6213 6.42026 12.5399 6.2936 12.4856C6.16695 12.4313 6.03595 12.4042 5.90061 12.4042C5.76527 12.4042 5.62956 12.4313 5.4935 12.4856C5.35744 12.5399 5.23512 12.6213 5.12656 12.7299C4.90944 12.947 4.80087 13.205 4.80087 13.5039C4.80087 13.8028 4.90944 14.0605 5.12656 14.2769L7.4335 16.611C7.54207 16.7195 7.65967 16.7966 7.78633 16.8422C7.91298 16.8878 8.04869 16.9102 8.19344 16.9095C8.33819 16.9088 8.47389 16.8864 8.60054 16.8422C8.7272 16.7981 8.84481 16.721 8.95337 16.611L13.5401 12.0242C13.7572 11.8071 13.8658 11.5447 13.8658 11.2371C13.8658 10.9296 13.7572 10.6672 13.5401 10.4501C13.323 10.2329 13.0606 10.1244 12.753 10.1244C12.4454 10.1244 12.1831 10.2329 11.966 10.4501L8.1663 14.2497ZM2.81962 21.7134C2.22253 21.7134 1.71156 21.501 1.28672 21.0761C0.861882 20.6513 0.6491 20.14 0.648376 19.5421V2.17222C0.648376 1.57513 0.861158 1.06416 1.28672 0.639321C1.71228 0.214482 2.22325 0.00170031 2.81962 0.000976562H10.6089C10.8984 0.000976562 11.1746 0.0552577 11.4373 0.16382C11.7 0.272382 11.9305 0.426178 12.1288 0.625208L17.3941 5.89047C17.5931 6.0895 17.7469 6.32037 17.8555 6.58309C17.964 6.84581 18.0183 7.12156 18.0183 7.41034V19.5421C18.0183 20.1392 17.8059 20.6506 17.381 21.0761C16.9562 21.5017 16.4449 21.7141 15.8471 21.7134H2.81962ZM10.419 6.5147V2.17222H2.81962V19.5421H15.8471V7.60032H11.5046C11.197 7.60032 10.9393 7.4961 10.7316 7.28766C10.5239 7.07922 10.4197 6.82157 10.419 6.5147Z" fill="#808080"/>
</svg>
