<svg width="78" height="170" viewBox="0 0 78 170" fill="none" xmlns="http://www.w3.org/2000/svg">
<g id="freepik--character--inject-1--inject-40">
<path id="Vector" d="M69.2278 57.0188C70.1405 56.1815 71.3009 55.767 72.4741 55.8593C73.0783 55.9106 73.6851 55.9106 74.2893 55.8593C74.6834 55.8332 75.0652 55.6947 75.3989 55.4565C75.7327 55.2184 76.0074 54.8885 76.1973 54.4977C76.2835 54.2882 76.3298 54.0713 76.416 53.8693C76.5551 53.5476 76.7804 53.2858 76.9327 52.9716C77.153 52.5142 77.2122 51.9798 77.0984 51.4753C77.0322 51.2905 77.0072 51.0901 77.0255 50.8918C77.0724 50.7269 77.1517 50.576 77.2574 50.4504C77.4544 50.1431 77.5744 49.7815 77.6047 49.4036C77.635 49.0257 77.5745 48.6457 77.4296 48.3033C77.3384 48.1303 77.263 47.9474 77.2044 47.7572C77.1182 47.3458 77.317 46.9343 77.3302 46.5154C77.4031 44.6376 74.6405 44.9069 73.6533 45.1613C73.3751 45.2361 71.9904 45.5503 71.361 45.7224C71.5033 44.6962 71.5033 43.6513 71.361 42.6252C71.1292 40.6427 69.453 39.7076 69.2543 40.8746C69.1417 41.5404 69.2543 43.4107 68.5454 44.9668C68.1131 45.6556 67.7717 46.4115 67.5318 47.2111C67.2734 48.2659 66.9554 49.0066 64.8817 51.2434C62.9472 53.3307 55.6066 59.9739 55.6066 59.9739C55.6066 59.9739 47.9017 44.9368 45.9937 40.9345C42.1445 32.8025 35.3406 34.5157 35.3406 34.5157L36.7981 45.3109C36.7981 45.3109 49.0545 67.2605 51.1546 70.2903C53.2547 73.3202 56.0638 72.385 57.5743 70.8589C59.7539 68.6669 65.4184 61.2681 69.2278 57.0188Z" fill="#B16668"/>
<path id="Vector_2" d="M34.327 34.6503C34.327 34.6503 40.1438 33.0867 42.9926 36.1465C45.6426 38.9893 46.7225 41.3833 50.1079 48.6549C53.2217 55.3131 55.408 59.1285 55.408 59.1285C55.408 59.1285 52.7116 65.8615 47.8157 65.4425L40.1902 52.8294L34.327 34.6503Z" fill="#4758B9"/>
<path id="Vector_3" opacity="0.6" d="M34.327 34.6503C34.327 34.6503 40.1438 33.0867 42.9926 36.1465C45.6426 38.9893 46.7225 41.3833 50.1079 48.6549C53.2217 55.3131 55.408 59.1285 55.408 59.1285C55.408 59.1285 52.7116 65.8615 47.8157 65.4425L40.1902 52.8294L34.327 34.6503Z" fill="#181E40"/>
<path id="Vector_4" d="M72.0699 46.4182C71.2881 46.6725 70.7846 47.2785 70.566 48.8346C70.4335 49.7622 69.8174 51.3482 68.8236 51.827C69.2586 51.8604 69.6924 51.7457 70.0691 51.4978C70.566 51.0938 70.6852 51.0639 70.8774 51.3931C71.0218 51.612 71.2103 51.7889 71.4273 51.9093C71.2466 52.0733 71.1176 52.2987 71.0591 52.5519C71.0006 52.8052 71.0159 53.073 71.1026 53.3157C71.4007 54.191 73.3088 54.6025 75.018 54.0115C75.018 54.0115 72.3349 54.3781 71.891 53.3531C71.4471 52.3282 72.9775 51.4529 74.0243 51.3482C74.0243 51.3482 71.467 51.5128 71.2351 50.5253C71.0033 49.5378 72.1295 49.0291 73.64 48.9468C73.64 48.9468 71.5465 48.9468 71.3212 48.1014C71.2455 47.7661 71.2796 47.4111 71.4171 47.1019C71.5547 46.7926 71.7865 46.5498 72.0699 46.4182Z" fill="#9A4A4D"/>
<path id="Vector_5" d="M44.0855 56.0239C44.0855 56.0239 43.2044 61.4626 44.006 66.0485C44.8077 70.6345 45.3973 74.5321 45.3973 74.5321C45.3973 74.5321 42.9394 77.7116 38.2886 76.9859C33.2271 76.1929 34.7707 62.6297 37.6791 59.3006C39.3679 57.3282 41.6588 56.1565 44.0855 56.0239Z" fill="#4758B9"/>
<path id="Vector_6" opacity="0.5" d="M44.0855 56.0239C44.0855 56.0239 43.2044 61.4626 44.006 66.0485C44.8077 70.6345 45.3973 74.5321 45.3973 74.5321C45.3973 74.5321 42.9394 77.7116 38.2886 76.9859C33.2271 76.1929 34.7707 62.6297 37.6791 59.3006C39.3679 57.3282 41.6588 56.1565 44.0855 56.0239Z" fill="#181E40"/>
<path id="Vector_7" d="M43.5688 165.383L44.2314 165.263C44.2314 163.019 44.079 160.924 44.5626 159.847L43.5954 157.086L43.5688 165.383Z" fill="#263238"/>
<path id="Vector_8" d="M41.8132 155.104C41.9855 156.652 42.7937 158.231 42.9064 161.291C42.9919 162.593 42.9919 163.901 42.9064 165.203L43.5689 165.383V157.086L41.8132 155.104Z" fill="#263238"/>
<path id="Vector_9" d="M57.6074 167.141C57.5752 167.562 57.4295 167.961 57.19 168.285C56.8455 168.592 55.7656 169.617 52.2278 169.467C48.69 169.318 47.4379 168.36 46.2123 167.141C44.9866 165.921 44.6024 162.652 44.397 161.156C44.0838 158.915 43.184 156.83 41.8132 155.171C41.6319 154.682 41.5858 154.142 41.6807 153.622C42.6119 153.614 43.5222 153.934 44.2839 154.539C45.0455 155.145 45.6202 156.004 45.9274 156.996C47.2524 160.617 48.3257 164.837 51.1943 165.779C53.2994 166.411 55.4429 166.866 57.6074 167.141Z" fill="#263238"/>
<path id="Vector_10" d="M55.7524 163.677C56.8522 164.702 57.6803 165.173 57.6008 166.131C57.5213 167.088 56.6203 167.575 55.8915 167.837C54.169 168.465 52.2014 168.263 50.459 167.956C48.7166 167.65 46.7556 166.767 45.9937 164.896C45.7857 164.347 45.6367 163.772 45.5498 163.183C45.2731 161.238 44.7928 159.337 44.1188 157.52C43.8429 156.759 43.5058 156.028 43.1118 155.336C42.5558 154.638 42.1639 153.795 41.9723 152.882C41.8861 152.134 42.3963 151.004 43.0588 149.815C43.3946 149.302 43.6362 148.719 43.7694 148.1C43.9025 147.481 43.9245 146.838 43.8339 146.209L43.549 140.575L51.4329 142.513C51.4329 142.513 50.8035 147.421 50.7704 148.7C50.73 150.584 50.9014 152.467 51.2805 154.303C51.759 156.506 52.4708 158.636 53.4005 160.647C53.6208 161.163 53.904 161.642 54.2419 162.069C54.71 162.646 55.2148 163.183 55.7524 163.677Z" fill="#B16668"/>
<path id="Vector_11" d="M41.9458 151.281C42.4294 150.271 43.1052 149.65 43.5689 148.775C43.9858 149.522 44.3112 150.33 44.5362 151.176C44.7614 151.969 45.3974 155.867 46.3117 158.964C46.9742 161.291 48.0872 162.503 49.5779 163.101C50.5135 163.478 51.5183 163.584 52.4995 163.408C54.328 163.079 53.8709 161.605 53.8709 161.605C54.9561 162.787 56.141 163.847 57.4087 164.769C57.704 165.055 57.8888 165.46 57.9234 165.897C57.9581 166.335 57.8399 166.77 57.5942 167.111C57.0907 167.62 55.3748 168.869 50.9691 168.256C47.067 167.709 46.1196 165.697 45.7353 164.792C45.3221 163.458 45.0248 162.083 44.8476 160.685C44.6016 159.152 44.1123 157.682 43.4033 156.346C43.3226 156.186 43.2341 156.031 43.1383 155.882C42.844 155.407 42.5277 154.95 42.1909 154.513C41.9127 154.146 41.7007 153.974 41.6145 153.622C41.4679 152.822 41.5858 151.99 41.9458 151.281Z" fill="#37474F"/>
<path id="Vector_12" d="M57.0111 158.754L57.6736 158.65C57.7332 156.405 57.6339 154.311 58.1374 153.248L57.2562 150.458L57.0111 158.754Z" fill="#263238"/>
<path id="Vector_13" d="M55.5139 148.438C55.6464 149.987 56.4149 151.588 56.4481 154.655C56.5046 155.957 56.4713 157.263 56.3487 158.56L57.0112 158.769L57.2563 150.458L55.5139 148.438Z" fill="#263238"/>
<path id="Vector_14" d="M70.9967 160.932C70.9546 161.352 70.797 161.747 70.5462 162.061C70.2016 162.353 69.0953 163.296 65.5641 163.026C62.0329 162.757 60.8007 161.814 59.6015 160.557C58.4024 159.301 58.1109 156.069 57.9453 154.498C57.6924 152.243 56.8453 150.127 55.5139 148.423C55.3497 147.926 55.3174 147.385 55.4211 146.867C56.352 146.889 57.2535 147.239 57.9995 147.868C58.7455 148.497 59.2987 149.374 59.5817 150.376C60.8139 154.041 61.7746 158.291 64.6233 159.353C66.711 160.053 68.8411 160.581 70.9967 160.932Z" fill="#263238"/>
<path id="Vector_15" d="M69.2277 157.415C70.3009 158.478 71.1158 158.956 71.0164 159.929C70.9171 160.902 69.9962 161.335 69.2608 161.575C67.4705 162.03 65.6114 162.012 63.8282 161.522C62.0461 161.141 60.158 160.213 59.4358 158.336C59.2409 157.78 59.1053 157.2 59.0317 156.607C58.8049 154.656 58.3734 152.743 57.7464 150.907C57.4947 150.125 57.1752 149.373 56.7924 148.662C56.2549 147.944 55.8858 147.085 55.7192 146.164C55.6529 145.416 56.1895 144.301 56.8852 143.171C57.6736 141.855 57.9253 141.331 57.9253 138.944L57.6736 133.955L65.511 136.147C65.511 136.147 64.9214 139.423 64.6696 141.937C64.4737 143.937 64.5744 145.959 64.9678 147.922C65.3989 150.142 66.0663 152.294 66.9553 154.333C67.158 154.857 67.4257 155.346 67.7503 155.784C68.2086 156.366 68.7023 156.911 69.2277 157.415Z" fill="#B16668"/>
<path id="Vector_16" d="M55.8518 144.361C56.3433 143.616 56.8696 142.902 57.4286 142.221C57.835 142.898 58.1498 143.639 58.3627 144.421C58.6807 145.438 59.0848 149.306 59.913 152.425C60.5357 154.767 61.6024 156.016 63.0731 156.667C63.9975 157.074 64.998 157.211 65.9815 157.064C67.8233 156.794 67.4059 155.298 67.4059 155.298C68.4589 156.52 69.6149 157.622 70.8576 158.59C71.1473 158.883 71.323 159.293 71.3466 159.732C71.3701 160.17 71.2397 160.601 70.9835 160.932C70.4667 161.425 68.7177 162.622 64.3584 161.859C60.4695 161.186 59.5751 159.144 59.2107 158.223C58.8375 156.878 58.578 155.495 58.4356 154.094C58.2333 152.551 57.7844 151.063 57.1106 149.702C57.0245 149.53 56.9383 149.373 56.8588 149.239C56.6004 148.797 56.2891 148.311 55.9446 147.832C55.6001 147.353 55.4676 147.278 55.3881 146.927C55.2638 146.036 55.4285 145.125 55.8518 144.361Z" fill="#37474F"/>
<path id="Vector_17" d="M22.806 86.1727C23.3396 83.6992 24.1569 81.315 25.2374 79.0806C32.737 83.1055 35.6122 81.9309 43.1781 79.1929C46.7092 83.5917 51.7575 85.8436 56.5806 88.6265C61.4036 91.4095 66.8759 94.3122 69.897 97.8283C71.2617 99.4143 70.851 103.282 70.162 108.249C69.2278 114.982 65.5244 136.259 65.5244 136.259C60.39 138.324 57.74 134.897 57.74 134.897C57.74 134.897 56.9317 125.92 56.2824 118.678C55.6332 111.436 57.9188 108.04 57.9188 108.04C57.9188 108.04 42.5023 101.442 36.6723 100.08C26.9599 97.7759 21.5406 96.377 22.806 86.1727Z" fill="#37474F"/>
<path id="Vector_18" d="M11.6029 90.0405C12.2654 85.2526 16.5584 75.2055 17.3601 73.4698C24.8596 77.4947 35.6254 81.931 43.1978 79.1929C42.5452 84.4983 40.6209 89.5014 37.6328 93.6614C49.0345 103.073 51.3732 106.379 54.1557 110.254C54.9242 111.339 55.6728 113.569 55.2157 116.673C54.2418 123.406 51.2407 144.421 51.2407 144.421C49.9866 144.95 48.644 145.157 47.3102 145.028C45.9764 144.898 44.6848 144.435 43.5291 143.673C43.5291 143.673 42.5949 135.713 41.9457 128.471C41.2964 121.229 41.9854 117.676 41.9854 117.676C41.9854 117.676 26.5888 109.925 20.7852 106.903C10.947 101.846 10.9271 94.8209 11.6029 90.0405Z" fill="#455664"/>
<path id="Vector_19" d="M25.2705 34.9496C25.2705 34.9496 16.8434 36.0493 15.8297 36.558C23.7401 42.8421 17.3336 56.8169 17.3336 56.8169L20.3679 67.5448C19.1091 71.2853 15.0281 76.1106 13.7826 82.0282C24.7603 89.5093 38.673 88.0879 43.1913 79.1929C42.9594 74.8613 42.9925 68.3079 42.6414 65.5548C42.7474 63.5274 42.5884 61.2008 42.7937 57.8867C44.0943 56.4915 44.9685 54.6656 45.29 52.6727C45.6116 50.6798 45.3638 48.6231 44.5825 46.7997C41.4422 39.7674 36.0494 34.6503 34.3269 34.6503L25.2705 34.9496Z" fill="#4758B9"/>
<path id="Vector_20" d="M22.6735 35.2413C22.6735 35.2413 17.3734 35.7276 15.8298 36.558C14.2861 37.3884 11.709 42.4157 14.0145 49.7248C16.32 57.0338 18.4069 65.6072 18.1684 67.3353C17.9299 69.0634 13.7826 79.0806 13.7826 79.0806C14.2104 79.8953 14.7855 80.5989 15.4705 81.1455C16.1554 81.6921 16.9348 82.0694 17.7577 82.2526L20.2885 73.7765L19.4934 82.9783C19.4934 82.9783 24.7273 84.1977 28.3512 83.8461C28.3512 83.8461 28.4307 54.176 22.6735 35.2413Z" fill="#4758B9"/>
<g id="Group" opacity="0.5">
<path id="Vector_21" d="M22.6735 35.2413C22.6735 35.2413 17.3734 35.7276 15.8298 36.558C14.2861 37.3884 11.709 42.4157 14.0145 49.7248C16.32 57.0338 18.4069 65.6072 18.1684 67.3353C17.9299 69.0634 13.7826 79.0806 13.7826 79.0806C14.2148 79.8911 14.7913 80.5915 15.4755 81.1375C16.1597 81.6835 16.9368 82.0632 17.7577 82.2526L20.2885 73.7765L19.4934 82.9783C19.4934 82.9783 24.7273 84.1977 28.3512 83.8461C28.3512 83.8461 28.4307 54.176 22.6735 35.2413Z" fill="#181E40"/>
</g>
<path id="Vector_22" d="M32.1804 0.222192C24.3562 -0.391259 16.4327 6.68587 18.0757 18.4985C19.1953 26.5333 23.3757 29.3312 24.7007 29.3761L32.7104 29.7426C34.5588 23.3912 43.4894 22.5982 45.4107 13.2094C47.332 3.8206 40.0311 0.835643 32.1804 0.222192Z" fill="#263238"/>
<path id="Vector_23" d="M17.0621 4.12735C13.9417 5.257 12.4246 8.29433 11.55 11.6758C10.8875 14.167 10.5298 16.7704 9.60228 19.1569C9.315 19.9463 8.91432 20.6768 8.41639 21.3189C7.69252 22.0728 6.89451 22.7304 6.038 23.279C5.18222 23.8333 4.49072 24.661 4.05048 25.658C3.54697 27.0495 4.71298 28.3662 5.71999 29.0843C6.661 29.7228 7.7176 30.113 8.81087 30.2257C9.90414 30.3384 11.0058 30.1707 12.0337 29.7352C13.0341 29.3355 13.9394 28.6808 14.6794 27.8219C15.4194 26.963 15.974 25.923 16.3002 24.7827C16.9627 22.6132 16.9627 20.511 16.923 18.2667C16.8832 16.0223 17.0025 13.5087 17.824 11.3541C18.0986 10.545 18.5553 9.83074 19.149 9.28184C19.7517 8.83629 20.4045 8.48403 21.0901 8.23448C21.7823 7.98079 22.3839 7.48246 22.806 6.81307C23.8197 4.92035 21.3816 3.97025 20.156 3.82063C19.1173 3.66211 18.0604 3.76689 17.0621 4.12735Z" fill="#263238"/>
<path id="Vector_24" d="M22.1832 4.72586L18.7911 2.95284C18.8834 2.6955 19.0209 2.46191 19.1952 2.26614C19.3695 2.07038 19.5772 1.91649 19.8056 1.81374C20.034 1.71099 20.2785 1.66151 20.5243 1.66827C20.77 1.67504 21.0121 1.73792 21.2358 1.85311C21.6868 2.10707 22.0356 2.54504 22.2115 3.07839C22.3874 3.61173 22.3772 4.20062 22.1832 4.72586Z" fill="#263238"/>
<path id="Vector_25" d="M22.1898 4.19471L21.481 0.0651409C21.7183 -0.00436094 21.9658 -0.0184255 22.2081 0.0238062C22.4504 0.066038 22.6826 0.16368 22.8904 0.310752C23.0981 0.457823 23.2771 0.651231 23.4164 0.879135C23.5557 1.10704 23.6523 1.36464 23.7004 1.63618C23.7843 2.19964 23.6748 2.77804 23.3941 3.25345C23.1134 3.72887 22.6827 4.0655 22.1898 4.19471Z" fill="#263238"/>
<path id="Vector_26" d="M39.9051 8.06989C42.4955 9.70825 43.4893 13.576 42.7605 22.471C42.1444 30.0045 39.8654 31.7027 38.7391 32.1516C37.6129 32.6004 35.5458 32.1516 33.5252 31.5755L33.2933 34.7251C33.2933 34.7251 36.6059 39.6626 36.268 41.7199C35.9301 43.7772 31.3058 44.3682 28.7949 42.1314C26.284 39.8945 24.2899 35.8098 24.2899 35.8098L24.9855 25.3363C24.9855 25.3363 23.7002 26.5557 21.7922 24.3862C20.2088 22.5982 19.8047 19.7554 21.2224 18.3564C21.5835 18.0267 22.0087 17.7984 22.4631 17.6904C22.9175 17.5823 23.3881 17.5976 23.8363 17.7349C24.2845 17.8722 24.6974 18.1276 25.0411 18.4801C25.3849 18.8327 25.6496 19.2723 25.8136 19.7629C28.6639 19.4749 31.4288 18.514 33.9293 16.9425C38.1892 14.3391 39.5275 11.1371 39.9051 8.06989Z" fill="#B16668"/>
<path id="Vector_27" d="M34.5919 19.5085C34.5955 19.6381 34.576 19.7672 34.5347 19.8882C34.4935 20.0091 34.4312 20.1196 34.3515 20.213C34.2719 20.3064 34.1766 20.3809 34.0711 20.432C33.9656 20.4832 33.8521 20.5101 33.7373 20.511C33.5176 20.4894 33.3131 20.3757 33.1641 20.1921C33.0151 20.0086 32.9325 19.7687 32.9325 19.5198C32.9325 19.2708 33.0151 19.0309 33.1641 18.8474C33.3131 18.6638 33.5176 18.5501 33.7373 18.5285C33.8504 18.5295 33.9622 18.5556 34.0664 18.6054C34.1705 18.6552 34.265 18.7276 34.3444 18.8186C34.4237 18.9096 34.4864 19.0174 34.5289 19.1358C34.5714 19.2542 34.5928 19.3808 34.5919 19.5085Z" fill="#263238"/>
<path id="Vector_28" d="M35.2478 26.4061L37.1558 27.244C37.1124 27.3904 37.0429 27.5252 36.9518 27.6403C36.8606 27.7554 36.7497 27.8483 36.6257 27.9134C36.5018 27.9785 36.3673 28.0144 36.2307 28.0189C36.094 28.0235 35.958 27.9965 35.8308 27.9398C35.5781 27.8172 35.3768 27.5897 35.2683 27.3043C35.1598 27.0189 35.1525 26.6974 35.2478 26.4061Z" fill="#9A4A4D"/>
<path id="Vector_29" d="M42.1115 17.6158L40.2366 16.6209C40.2885 16.4831 40.3641 16.3584 40.459 16.254C40.554 16.1495 40.6663 16.0674 40.7896 16.0124C40.9129 15.9574 41.0446 15.9306 41.1771 15.9336C41.3097 15.9366 41.4403 15.9693 41.5616 16.0299C41.8161 16.1639 42.0152 16.4033 42.1176 16.6986C42.22 16.9939 42.2178 17.3223 42.1115 17.6158Z" fill="#263238"/>
<path id="Vector_30" d="M41.2171 19.5085C41.2079 19.6963 41.15 19.8769 41.0506 20.0277C40.9512 20.1785 40.8146 20.293 40.6579 20.3568C40.5013 20.4205 40.3315 20.4308 40.1697 20.3863C40.0079 20.3418 39.8613 20.2445 39.7481 20.1065C39.635 19.9685 39.5603 19.796 39.5334 19.6104C39.5066 19.4248 39.5287 19.2344 39.597 19.063C39.6654 18.8915 39.7769 18.7465 39.9178 18.6461C40.0586 18.5458 40.2224 18.4945 40.3889 18.4986C40.6168 18.5103 40.8315 18.6228 40.9864 18.8118C41.1414 19.0008 41.2243 19.2511 41.2171 19.5085Z" fill="#263238"/>
<path id="Vector_31" d="M37.242 18.4985L36.8114 24.6854L39.5277 23.9597L37.242 18.4985Z" fill="#9A4A4D"/>
<path id="Vector_32" d="M33.5253 31.5756C31.3987 31.0893 27.0593 29.3312 26.4895 27.2739C26.7065 28.2944 27.1942 29.2157 27.8874 29.9148C29.1329 31.2988 33.4326 33.0867 33.4326 33.0867L33.5253 31.5756Z" fill="#9A4A4D"/>
<path id="Vector_33" d="M24.3628 34.6503L20.719 35.4733C20.719 35.4733 22.4084 43.7025 26.9068 45.1987C31.4052 46.6949 33.088 43.5529 33.088 43.5529C29.3082 41.8995 26.2015 38.7296 24.3628 34.6503Z" fill="#4758B9"/>
<path id="Vector_34" opacity="0.7" d="M24.3628 34.6503L20.719 35.4733C20.719 35.4733 22.4084 43.7025 26.9068 45.1987C31.4052 46.6949 33.088 43.5529 33.088 43.5529C29.3082 41.8995 26.2015 38.7296 24.3628 34.6503Z" fill="white"/>
<path id="Vector_35" d="M33.2934 34.7251C33.2934 34.7251 35.8109 41.1739 33.088 43.5603C33.088 43.5603 36.6921 44.7723 37.6527 43.0516C38.6133 41.331 36.8577 36.4308 35.3538 34.5456L33.2934 34.7251Z" fill="#4758B9"/>
<path id="Vector_36" opacity="0.7" d="M33.2934 34.7251C33.2934 34.7251 35.8109 41.1739 33.088 43.5603C33.088 43.5603 36.6921 44.7723 37.6527 43.0516C38.6133 41.331 36.8577 36.4308 35.3538 34.5456L33.2934 34.7251Z" fill="white"/>
<path id="Vector_37" d="M18.5195 102.893V103.604C18.5169 103.958 18.5955 104.306 18.7476 104.615C18.8997 104.925 19.1201 105.185 19.3874 105.369L36.288 116.718C36.5589 116.895 36.8662 116.988 37.179 116.988C37.4919 116.988 37.7992 116.895 38.0701 116.718L69.5855 96.8482C69.8606 96.6759 70.0906 96.4247 70.2523 96.12C70.414 95.8153 70.5016 95.4678 70.5064 95.1126V94.6263L37.1823 115.656L18.5195 102.893Z" fill="#EBEBEB"/>
<path id="Vector_38" d="M70.5063 94.6563L52.1284 82.2751C51.9665 82.1686 51.7824 82.1125 51.5951 82.1125C51.4077 82.1125 51.2237 82.1686 51.0618 82.2751L18.6453 102.713C18.6096 102.737 18.58 102.771 18.5594 102.812C18.5389 102.853 18.5281 102.899 18.5281 102.945C18.5281 102.992 18.5389 103.038 18.5594 103.079C18.58 103.12 18.6096 103.153 18.6453 103.177L37.1955 115.678L70.5063 94.6563Z" fill="#FAFAFA"/>
<path id="Vector_39" d="M37.03 113.875L27.1189 107.202L56.5938 88.6266L66.5579 95.2698L37.03 113.875Z" fill="#E0E0E0"/>
<path id="Vector_40" d="M32.3527 95.6886L32.5382 95.8158L37.3943 99.0851L46.1792 93.549L46.3647 93.4368L41.323 90.0404L32.3527 95.6886Z" fill="#E0E0E0"/>
<path id="Vector_41" d="M32.5382 95.8159L37.3944 99.0851L46.1792 93.5491L41.3164 90.2724L32.5382 95.8159Z" fill="#E6E6E6"/>
<path id="Vector_42" d="M37.1824 115.656V117.002C37.4947 117.004 37.8025 116.917 38.0768 116.748L69.5922 96.8782C69.8673 96.7059 70.0973 96.4547 70.2589 96.15C70.4206 95.8453 70.5083 95.4978 70.5131 95.1426V94.6563L37.1824 115.656Z" fill="#EBEBEB"/>
<g id="Group_2" style="mix-blend-mode:multiply" opacity="0.5">
<path id="Vector_43" d="M37.1824 115.656V117.002C37.4947 117.004 37.8025 116.917 38.0768 116.748L69.5922 96.8782C69.8673 96.7059 70.0973 96.4547 70.2589 96.15C70.4206 95.8453 70.5083 95.4978 70.5131 95.1426V94.6563L37.1824 115.656Z" fill="#E0E0E0"/>
</g>
<path id="Vector_44" d="M37.6792 115.962C37.9729 116.098 38.2898 116.156 38.6063 116.134C38.9228 116.112 39.2309 116.01 39.5077 115.835L70.884 96.0702C71.1556 95.8978 71.3906 95.6605 71.5725 95.375C71.7545 95.0894 71.879 94.7624 71.9374 94.4168L75.6342 71.5321C75.6938 71.1558 75.6731 70.7689 75.5741 70.4034C75.475 70.0378 75.3003 69.7041 75.0644 69.4299L42.4559 89.988C42.2548 90.1157 42.0811 90.2918 41.9471 90.5038C41.8131 90.7159 41.7222 90.9587 41.6807 91.2149L37.6792 115.962Z" fill="#4758B9"/>
<g id="Group_3" opacity="0.7">
<path id="Vector_45" d="M37.6792 115.962C37.9729 116.098 38.2898 116.156 38.6063 116.134C38.9228 116.112 39.2309 116.01 39.5077 115.835L70.884 96.0702C71.1556 95.8978 71.3906 95.6605 71.5725 95.375C71.7545 95.0894 71.879 94.7624 71.9374 94.4168L75.6342 71.5321C75.6938 71.1558 75.6731 70.7689 75.5741 70.4034C75.475 70.0378 75.3003 69.7041 75.0644 69.4299L42.4559 89.988C42.2548 90.1157 42.0811 90.2918 41.9471 90.5038C41.8131 90.7159 41.7222 90.9587 41.6807 91.2149L37.6792 115.962Z" fill="white"/>
</g>
<path id="Vector_46" d="M37.1824 115.656L37.3944 115.798C37.4858 115.86 37.581 115.915 37.6793 115.963L41.6543 91.2C41.6957 90.9438 41.7867 90.701 41.9207 90.489C42.0546 90.2769 42.2283 90.1008 42.4294 89.9731L75.038 69.415C74.9086 69.2718 74.7665 69.144 74.614 69.0335L41.9392 89.629C41.7375 89.7558 41.5633 89.9317 41.4293 90.1439C41.2952 90.3561 41.2046 90.5993 41.164 90.8559L37.1824 115.656Z" fill="#FAFAFA"/>
<path id="Vector_47" d="M55.4807 95.0753C55.7258 93.5791 57.1568 91.5218 58.674 90.5866C60.1911 89.6515 61.218 90.1004 60.9729 91.634C60.7278 93.1676 59.2901 95.18 57.773 96.1227C56.2558 97.0653 55.229 96.6014 55.4807 95.0753Z" fill="#4758B9"/>
<path id="Vector_48" d="M21.3086 99.1974C19.5927 97.8658 8.67464 88.9034 4.30873 85.0806C-0.229443 81.1081 0.0488109 79.8438 0.598691 76.9636C1.6852 71.3004 7.29001 53.1587 9.21127 47.8695C11.3313 41.9669 12.0004 37.9496 15.737 37.194C18.5857 39.7301 20.7455 45.7449 17.5125 56.3531L11.3843 77.0234C11.3843 77.0234 16.0616 83.2851 19.1356 86.5319C22.2096 89.7787 24.9326 92.8235 27.1453 93.5567C29.1328 94.215 31.4185 94.6639 32.1141 95.3821C33.7961 97.3101 35.363 99.362 36.8047 101.524C37.4672 102.736 39.0042 105.19 36.8047 106.013C34.8171 106.761 33.1675 105.758 31.5046 104.516C30.7377 103.895 30.0095 103.215 29.325 102.482C27.6961 102.687 26.0509 102.318 24.6145 101.427C23.3823 100.559 21.3086 99.1974 21.3086 99.1974Z" fill="#B16668"/>
<path id="Vector_49" d="M15.8297 36.558C12.5172 37.1939 11.5565 39.7898 9.09864 47.0315C7.36949 52.1262 1.14856 74.3526 1.14856 74.3526C1.14856 74.3526 4.60684 78.8412 11.3247 77.0084L19.076 53.3082C19.076 53.3082 21.5471 42.0865 15.8297 36.558Z" fill="#4758B9"/>
<g id="Group_4" opacity="0.6">
<path id="Vector_50" d="M15.8297 36.558C12.5172 37.1939 11.5565 39.7898 9.09864 47.0315C7.36949 52.1262 1.14856 74.3526 1.14856 74.3526C1.14856 74.3526 4.60684 78.8412 11.3247 77.0084L19.076 53.3082C19.076 53.3082 21.5471 42.0865 15.8297 36.558Z" fill="#181E40"/>
</g>
</g>
</svg>
