<svg width="143" height="178" viewBox="0 0 143 178" fill="none" xmlns="http://www.w3.org/2000/svg">
<g id="freepik--Clock--inject-1--inject-40">
<path id="Vector" d="M26.8371 143.635L18.2775 162.495C17.9793 163.077 17.7879 163.72 17.7147 164.387C17.6415 165.054 17.6879 165.731 17.8513 166.377C18.0147 167.023 18.2917 167.626 18.6657 168.149C19.0397 168.671 19.5032 169.104 20.0283 169.42C20.5535 169.736 21.1297 169.929 21.7225 169.988C22.3153 170.048 22.9126 169.972 23.4788 169.765C24.045 169.557 24.5684 169.224 25.0179 168.783C25.4674 168.343 25.8338 167.805 26.0951 167.201L34.7077 148.236C35.5425 146.418 34.456 143.912 32.2763 142.648C30.0967 141.384 27.6653 141.818 26.8371 143.635Z" fill="#455664"/>
<path id="Vector_2" d="M93.7173 104.158L110.419 113.823C111.451 114.393 112.638 114.488 113.731 114.088C114.824 113.689 115.736 112.826 116.277 111.681C116.817 110.536 116.943 109.2 116.627 107.953C116.312 106.706 115.58 105.645 114.586 104.995L97.7918 95.27C96.1819 94.3274 93.9625 95.5618 92.8362 98.0156C91.71 100.469 92.1074 103.222 93.7173 104.158Z" fill="#455664"/>
<path id="Vector_3" d="M108.147 20.4963L108.067 20.4514L77.89 2.96807L77.7774 2.90822C68.8534 -2.1939 56.9283 -0.697671 44.0889 8.63876C18.2975 27.3939 -1.40539 70.6497 0.0786205 105.25C0.820628 122.501 6.70368 134.336 15.5813 139.551L15.6608 139.596L45.8512 157.079L45.9439 157.131C54.8745 162.256 66.8063 160.76 79.6589 151.416C105.45 132.653 125.153 89.4048 123.663 54.7972C122.907 37.5533 117.044 25.7181 108.147 20.4963Z" fill="#4758B9"/>
<path id="Vector_4" opacity="0.1" d="M45.1756 156.675L15.6808 139.581L15.5947 139.521C6.71051 134.284 0.840699 122.449 0.0986922 105.227C-0.563814 89.7939 2.99385 72.6547 9.41353 56.7349L39.5311 74.2257C33.1246 90.1455 29.5935 107.285 30.256 122.718C30.9715 139.596 36.6028 151.289 45.1756 156.675Z" fill="#181E40"/>
<path id="Vector_5" opacity="0.4" d="M111.881 109.057C129.068 71.3276 127.361 31.6581 108.07 20.453C88.7787 9.24791 59.2076 30.7505 42.0212 68.4803C24.8348 106.21 26.5412 145.88 45.8325 157.085C65.1238 168.29 94.6948 146.787 111.881 109.057Z" fill="white"/>
<path id="Vector_6" d="M58.0281 148.999C42.7904 149.837 40.3524 130.529 39.988 122.187C38.663 91.6716 56.7892 51.9095 79.533 35.4062C85.3233 31.1943 90.9745 28.8303 95.8704 28.561C111.108 27.7231 113.553 47.0318 113.91 55.3733C115.236 85.8887 97.116 125.651 74.3655 142.192C68.5752 146.403 62.924 148.767 58.0347 149.037L58.0281 148.999Z" fill="#FAFAFA"/>
<path id="Vector_7" d="M70.5958 129.077C70.5172 129.079 70.4389 129.066 70.3639 129.04C70.1876 128.981 70.0391 128.845 69.951 128.663C69.8628 128.481 69.8422 128.267 69.8935 128.067L79.0692 93.1454C79.0949 93.0472 79.1375 92.9556 79.1945 92.8759C79.2515 92.7963 79.3218 92.73 79.4015 92.6811C79.4811 92.6321 79.5686 92.6013 79.6588 92.5905C79.749 92.5797 79.8402 92.589 79.9272 92.618C80.0142 92.647 80.0953 92.695 80.1658 92.7594C80.2364 92.8238 80.295 92.9032 80.3384 92.9932C80.3818 93.0831 80.409 93.1819 80.4186 93.2837C80.4282 93.3856 80.4199 93.4886 80.3942 93.5868L71.2318 128.509C71.1892 128.665 71.1056 128.803 70.992 128.905C70.8785 129.006 70.7403 129.066 70.5958 129.077Z" fill="#4758B9"/>
<path id="Vector_8" d="M96.5065 83.8539C96.3573 84.1312 96.1588 84.3707 95.9235 84.5571L80.6064 96.7588L55.8949 79.7019C55.6609 79.5403 55.4573 79.3282 55.2958 79.0777C55.1344 78.8273 55.0182 78.5434 54.9539 78.2422C54.8896 77.9411 54.8785 77.6286 54.9212 77.3226C54.9638 77.0166 55.0594 76.7231 55.2026 76.4588C55.3457 76.1945 55.5335 75.9647 55.7553 75.7824C55.9771 75.6001 56.2285 75.4688 56.4952 75.3963C56.7619 75.3237 57.0386 75.3111 57.3096 75.3593C57.5806 75.4074 57.8405 75.5154 58.0745 75.677L80.4209 91.1031L93.5319 80.6744C93.9256 80.3643 94.4017 80.2164 94.8805 80.2555C95.3593 80.2946 95.8116 80.5183 96.1617 80.8891C96.5119 81.2599 96.7385 81.7553 96.8037 82.2924C96.8689 82.8294 96.7686 83.3754 96.5198 83.8389L96.5065 83.8539Z" fill="#37474F"/>
<path id="Vector_9" d="M79.4072 85.769C82.4415 83.5621 85.0451 85.0733 85.224 89.143C85.4029 93.2127 83.0775 98.2999 80.0432 100.507C77.0089 102.714 74.4053 101.203 74.233 97.1328C74.0608 93.0631 76.3729 87.9759 79.4072 85.769Z" fill="#4758B9"/>
</g>
</svg>
