<svg width="44" height="36" viewBox="0 0 44 36" fill="none" xmlns="http://www.w3.org/2000/svg">
<path d="M30.3333 6.08342C30.3331 7.33699 29.8374 8.53966 28.9542 9.42925C26.9208 11.4793 24.9479 13.6168 22.8375 15.5918C22.6019 15.8064 22.2929 15.9224 21.9742 15.9158C21.6555 15.9092 21.3516 15.7805 21.125 15.5563L15.0458 9.43133C14.1617 8.54143 13.6654 7.33789 13.6654 6.08342C13.6654 4.82894 14.1617 3.6254 15.0458 2.7355C15.4868 2.2913 16.0113 1.93875 16.5891 1.69816C17.1669 1.45758 17.7866 1.33371 18.4125 1.33371C19.0384 1.33371 19.6581 1.45758 20.2359 1.69816C20.8137 1.93875 21.3382 2.2913 21.7792 2.7355L22 2.95842L22.2208 2.7355C22.8827 2.06647 23.7287 1.60953 24.6511 1.42284C25.5735 1.23616 26.5306 1.32818 27.4005 1.68719C28.2705 2.0462 29.0139 2.65596 29.5362 3.43884C30.0585 4.22173 30.336 5.14232 30.3333 6.08342Z" stroke="gray" stroke-width="1" stroke-linejoin="round"/>
<path d="M34.5 34.6667L42.4667 26.7C42.7012 26.4658 42.833 26.1481 42.8333 25.8167V14.875C42.8333 14.0462 42.5041 13.2513 41.918 12.6653C41.332 12.0792 40.5371 11.75 39.7083 11.75C38.8795 11.75 38.0847 12.0792 37.4986 12.6653C36.9126 13.2513 36.5833 14.0462 36.5833 14.875V24.25" stroke="gray" stroke-width="1" stroke-linecap="round" stroke-linejoin="round"/>
<path d="M34.5 26.3333L36.2875 24.5458C36.3818 24.4523 36.4565 24.341 36.5073 24.2183C36.5581 24.0956 36.584 23.964 36.5834 23.8312C36.5819 23.6442 36.529 23.4611 36.4306 23.302C36.3321 23.1429 36.1918 23.0139 36.025 22.9292L35.1021 22.4688C34.3202 22.0778 33.4352 21.9427 32.5722 22.0825C31.7093 22.2223 30.9122 22.6301 30.2938 23.2479L28.4292 25.1125C27.6477 25.8937 27.2086 26.9534 27.2084 28.0583V34.6667M9.50002 34.6667L1.53335 26.7C1.29887 26.4658 1.16698 26.1481 1.16669 25.8167V14.875C1.16669 14.0462 1.49593 13.2513 2.08198 12.6653C2.66803 12.0792 3.46289 11.75 4.29169 11.75C5.12049 11.75 5.91535 12.0792 6.5014 12.6653C7.08745 13.2513 7.41669 14.0462 7.41669 14.875V24.25" stroke="gray" stroke-width="1" stroke-linecap="round" stroke-linejoin="round"/>
<path d="M9.50002 26.3335L7.71252 24.546C7.52586 24.3546 7.41994 24.0988 7.41669 23.8314C7.41669 23.4502 7.63335 23.1023 7.97502 22.9294L8.89794 22.4689C9.67983 22.078 10.5649 21.9429 11.4278 22.0827C12.2908 22.2225 13.0878 22.6302 13.7063 23.2481L15.5709 25.1127C16.3523 25.8939 16.7915 26.9535 16.7917 28.0585V34.6669" stroke="gray" stroke-width="1" stroke-linecap="round" stroke-linejoin="round"/>
</svg>
