<svg width="50" height="50" viewBox="0 0 50 50" fill="none" xmlns="http://www.w3.org/2000/svg">
<g id="iconoir:calendar" clip-path="url(#clip0_43_154)">
<path id="Vector" d="M33 2.26316V-3M33 2.26316V7.52632M33 2.26316H21M1 18.0526V41.7368C1 43.1327 1.5619 44.4714 2.5621 45.4585C3.56229 46.4455 4.91885 47 6.33333 47H43.6667C45.0812 47 46.4377 46.4455 47.4379 45.4585C48.4381 44.4714 49 43.1327 49 41.7368V18.0526M1 18.0526H49M1 18.0526V7.52632C1 6.13044 1.5619 4.79173 2.5621 3.8047C3.56229 2.81767 4.91885 2.26316 6.33333 2.26316H11.6667M49 18.0526V7.52632C49 6.13044 48.4381 4.79173 47.4379 3.8047C46.4377 2.81767 45.0812 2.26316 43.6667 2.26316H42.3333M11.6667 -3V7.52632" stroke="white" stroke-opacity="0.6" stroke-width="1.5" stroke-linecap="round" stroke-linejoin="round"/>
</g>
<defs>
<clipPath id="clip0_43_154">
<rect width="50" height="50" fill="white"/>
</clipPath>
</defs>
</svg>
