<svg xmlns:xlink="http://www.w3.org/1999/xlink" xmlns="http://www.w3.org/2000/svg" width="88" height="88" viewBox="0 0 88 88" fill="none" class="svelte-jz4dio"><ellipse cx="43.7127" cy="43.7128" rx="23" ry="23" transform="rotate(-90 43.7127 43.7128)" fill="#FFFFFF"></ellipse><g filter="url(#filter)" fill="none"><path d="M42.344 28.9497C42.2991 28.9056 42.3216 28.8173 42.3889 28.7953L43.107 28.6629C43.1294 28.6629 43.1519 28.6408 43.1743 28.6188L43.5109 27.979C43.5558 27.9128 43.6456 27.9128 43.668 27.979L44.0271 28.5967C44.0495 28.6188 44.0719 28.6408 44.0944 28.6408L44.8125 28.7732C44.8798 28.7953 44.9022 28.8615 44.8573 28.9277L44.3637 29.4572C44.3412 29.4792 44.3412 29.5013 44.3412 29.5233L44.431 30.2293C44.431 30.2955 44.3637 30.3617 44.2963 30.3176L43.6231 30.0087C43.6007 29.9866 43.5782 29.9866 43.5558 30.0087L42.905 30.3176C42.8377 30.3396 42.7704 30.2955 42.7704 30.2293L42.8602 29.5233C42.8602 29.5013 42.8602 29.4792 42.8377 29.4572L42.344 28.9497ZM34.4001 49.8427C34.3552 49.6442 34.1982 49.5118 33.9513 49.4677C34.0635 49.225 34.243 48.7396 33.9962 48.3866C33.7942 48.0778 33.3903 48.166 33.1883 48.2101C33.121 48.0557 32.9864 47.7689 32.7395 47.6365C32.5825 47.5483 32.4029 47.5483 32.201 47.6365C32.0214 47.7248 31.8868 47.8351 31.8195 48.0336C31.7297 48.2984 31.8195 48.6293 31.8868 48.7837C31.7073 48.8941 31.3482 49.1367 31.4156 49.4897C31.4829 49.931 31.9317 50.1516 32.1785 50.2399C32.0439 50.4384 32.0214 50.637 32.1112 50.8135C32.2459 51.0562 32.5825 51.1665 32.762 51.2106C32.762 51.2106 32.762 51.2106 32.7844 51.2106C32.7844 51.2989 33.2557 52.2034 33.884 51.9387C34.5123 51.6739 34.2655 50.6811 34.1982 50.6149C34.1982 50.6149 34.1982 50.6149 34.1982 50.5929C34.3104 50.4164 34.4674 50.1295 34.4001 49.8427ZM42.0299 40.6869L42.0074 37.4658H42.8377C42.8377 37.4658 42.8377 35.8111 42.8153 35.436C42.8153 34.9727 43.4436 34.8845 43.4436 34.8845L43.309 34.2226L43.5558 31.0456C43.5558 31.0236 43.5782 31.0015 43.6007 31.0015C43.6231 31.0015 43.6456 31.0236 43.6456 31.0456L43.9597 34.2006L43.8251 34.8624C43.8251 34.8624 44.4759 34.9507 44.4759 35.414C44.4759 35.789 44.4983 37.4437 44.4983 37.4437H45.3286L45.351 40.6648L46.9892 41.4591L47.0116 45.4965L51.1182 45.4744L51.9261 44.6581V43.0475L52.7339 42.2312H53.5642L54.3945 43.0255L54.417 46.754C54.3945 46.7761 54.3721 46.7761 54.3496 46.7981C54.1477 46.9084 53.9681 47.0629 53.8335 47.2394C53.3847 47.2614 53.0032 47.4821 52.7788 47.8351C52.5544 48.166 52.4871 48.5852 52.5544 49.0264C52.4198 49.1809 52.33 49.3574 52.2851 49.5559C52.2402 49.7104 52.2402 49.8648 52.2627 50.0192C52.1729 49.9751 52.0607 49.9531 51.9485 49.931L51.9261 47.0629H51.0958L51.1182 50.0413C50.9163 50.1295 50.7592 50.2399 50.6245 50.3943C50.6021 50.3943 50.5572 50.3943 50.5348 50.3943C50.445 50.3943 50.3777 50.3943 50.2879 50.4164L50.2655 47.0849H49.4352L49.4576 50.9017C49.2332 51.1885 49.121 51.5415 49.121 51.9387L46.1813 51.9607L46.1589 48.7396V47.9233H45.3286H44.4759C44.4759 47.9233 44.9022 47.6806 45.194 46.6878C45.2164 46.5775 45.1266 46.4893 45.0369 46.5334C44.4534 46.754 43.668 46.1583 43.668 46.1583C43.668 46.1583 42.8826 46.754 42.2991 46.5555C42.2094 46.5113 42.0972 46.6216 42.1421 46.7099C42.4562 47.7027 42.8826 47.9233 42.8826 47.9233H42.0299H41.1996V48.7396L41.222 51.9607L38.2823 51.9828C38.2823 51.5857 38.1701 51.2327 37.9233 50.9459L37.9008 47.1291H37.0705L37.093 50.4605C37.0257 50.4384 36.9359 50.4384 36.8461 50.4384C36.8237 50.4384 36.7788 50.4384 36.7564 50.4384C36.6217 50.306 36.4646 50.1957 36.2627 50.1075L36.2402 47.1291H35.4099L35.4324 49.9972C35.3202 50.0192 35.2304 50.0413 35.1182 50.0854C35.1407 49.931 35.1182 49.7766 35.0958 49.6221C35.0509 49.4236 34.9611 49.2471 34.8265 49.0926C34.8938 48.6514 34.8265 48.2322 34.6021 47.9013C34.3777 47.5483 33.9962 47.3497 33.5474 47.3276C33.4128 47.1732 33.2557 47.0188 33.0313 46.9084C33.0088 46.8864 32.9864 46.8864 32.9639 46.8643L32.9415 43.1358L33.7494 42.3195H34.5797L35.4099 43.1137V44.7243L36.2402 45.5185L40.3468 45.4965L40.3244 41.4591L42.0299 40.6869ZM34.8489 44.4816C34.8489 44.1727 34.5797 43.908 34.2655 43.908C33.9513 43.908 33.682 44.1727 33.682 44.4816C33.682 44.7905 33.9513 45.0552 34.2655 45.0552C34.5797 45.0552 34.8489 44.8125 34.8489 44.4816ZM39.6512 51.1665L39.6287 47.1291H38.7984L38.8209 51.1665H39.6512ZM52.5544 44.3933C52.5544 44.7022 52.8237 44.967 53.1379 44.967C53.452 44.967 53.7213 44.7022 53.7213 44.3933C53.7213 44.0845 53.452 43.8197 53.1379 43.8197C52.8012 43.7977 52.5544 44.0624 52.5544 44.3933ZM47.797 47.0849L47.8195 51.1224H48.6498L48.6273 47.0849H47.797ZM44.4983 42.2754L44.5207 45.4965H45.351L45.3286 42.2754H44.4983ZM42.9499 39.0543C42.9724 39.3852 43.1519 39.6279 43.3314 39.8044C43.4212 39.8926 43.3538 40.025 43.2416 40.025H42.9724V40.731H44.3861V40.025H44.1168C44.0046 40.025 43.9373 39.8926 44.0271 39.8044C44.1841 39.6499 44.3637 39.3852 44.3861 39.0543C44.4085 38.5027 44.1168 38.4145 43.9597 38.3924C43.8027 38.3703 43.9373 38.591 44.0495 38.6792C44.1617 38.7675 43.87 38.8116 43.6904 38.8116C43.5109 38.8116 43.2192 38.7895 43.3314 38.6792C43.4436 38.591 43.5782 38.3483 43.4212 38.3924C43.1968 38.4145 42.905 38.5027 42.9499 39.0543ZM42.0523 42.2754L42.0747 45.4965H42.905L42.8826 42.2754H42.0523ZM49.9962 28.8835C50.1757 29.3248 50.445 29.6998 50.6919 30.0087C50.9387 30.3176 51.1631 30.4941 51.2977 30.6044C51.3426 30.6265 51.4099 30.6044 51.4099 30.5603C51.4324 30.4058 51.4548 30.097 51.4548 29.7219C51.4548 29.3468 51.3651 28.8835 51.1855 28.4423C51.006 28.001 50.7367 27.626 50.4899 27.3171C50.243 27.0303 50.0186 26.8317 49.884 26.7214C49.8391 26.6994 49.7718 26.7214 49.7718 26.7655C49.7494 26.92 49.7045 27.2289 49.7269 27.6039C49.7494 27.979 49.8167 28.4423 49.9962 28.8835ZM41.2893 52.777L46.2038 52.755L45.3735 51.9607L45.351 48.7617H44.5432L44.5656 51.9607H42.9275L42.905 48.7617H42.0972L42.1196 51.9607L41.2893 52.777ZM47.6848 29.3689C48.6049 29.7881 49.5474 29.8101 49.8616 29.7881C49.9064 29.7881 49.9289 29.7219 49.9064 29.6998C49.7045 29.4351 49.0761 28.7512 48.1336 28.332C47.2136 27.9128 46.2711 27.8907 45.9569 27.9128C45.912 27.9128 45.8896 27.979 45.912 28.001C46.114 28.2437 46.7648 28.9497 47.6848 29.3689ZM49.9962 30.5823C49.525 30.472 49.0761 30.472 48.6947 30.5161C48.3132 30.5603 48.0214 30.6485 47.8644 30.6926C47.8195 30.7147 47.797 30.7809 47.8419 30.803C47.9541 30.9133 48.201 31.1118 48.5151 31.3104C48.8293 31.5089 49.2557 31.7075 49.7269 31.8178C50.1982 31.9281 50.647 31.9281 51.0285 31.884C51.4099 31.8399 51.7017 31.7516 51.8588 31.7075C51.9036 31.6854 51.9261 31.6193 51.8812 31.5972C51.769 31.4869 51.5221 31.2883 51.208 31.0898C50.8714 30.8912 50.4674 30.6926 49.9962 30.5823ZM57.5586 43.3564C57.5586 43.1799 57.5137 42.871 57.424 42.4739C57.3342 42.0768 57.1771 41.6135 56.8854 41.1943C56.6161 40.7531 56.2571 40.4221 55.9429 40.1794C55.6287 39.9368 55.337 39.7603 55.2024 39.6941C55.1575 39.672 55.0902 39.7161 55.0902 39.7603C55.0902 39.9368 55.135 40.2456 55.2248 40.6427C55.3146 41.0399 55.4717 41.5032 55.7634 41.9224C56.0327 42.3636 56.3917 42.6945 56.7059 42.9372C57.02 43.1799 57.3118 43.3564 57.4464 43.4226C57.4913 43.4447 57.5586 43.4005 57.5586 43.3564ZM55.0677 38.613C55.4268 38.944 55.8307 39.1425 56.1897 39.2969C56.5488 39.4514 56.8405 39.5176 56.9976 39.5396C57.0425 39.5396 57.0874 39.4955 57.0649 39.4514C57.02 39.2969 56.9078 39.0101 56.7059 38.6792C56.5264 38.3483 56.2571 37.9732 55.8756 37.6423C55.5165 37.3113 55.1126 37.1128 54.7536 36.9583C54.3945 36.8039 54.1028 36.7377 53.9457 36.7157C53.9008 36.7157 53.8559 36.7598 53.8784 36.8039C53.9233 36.9583 54.0355 37.2452 54.2374 37.5761C54.4394 37.9291 54.7087 38.3041 55.0677 38.613ZM56.5937 47.5924C56.661 47.4159 56.7508 47.107 56.8181 46.6878C56.8854 46.2686 56.9078 45.7612 56.7956 45.2317C56.7059 44.7022 56.5039 44.2389 56.2795 43.8859C56.0775 43.5109 55.8531 43.2461 55.7409 43.1137C55.6961 43.0696 55.6287 43.0917 55.6063 43.1358C55.539 43.3123 55.4492 43.6212 55.3819 44.0403C55.3146 44.4595 55.2921 44.967 55.4043 45.4965C55.5165 46.026 55.6961 46.4893 55.9205 46.8423C56.1224 47.2173 56.3468 47.4821 56.459 47.6144C56.5039 47.6586 56.5712 47.6365 56.5937 47.5924ZM56.0327 49.3353C56.0775 48.9602 55.7409 48.7396 55.5614 48.6293C55.6287 48.4749 55.6961 48.166 55.6063 47.8792C55.539 47.7027 55.4268 47.5703 55.2248 47.5041C55.0453 47.4379 54.8658 47.4379 54.6862 47.5262C54.4394 47.6586 54.3048 47.9454 54.2374 48.0998C54.0355 48.0336 53.6315 47.9674 53.4296 48.2763C53.1827 48.6293 53.3623 49.1147 53.4969 49.3574C53.2725 49.4015 53.1154 49.5339 53.0705 49.7324C53.0032 50.0192 53.1827 50.306 53.2725 50.4825C53.2052 50.5487 52.9808 51.5415 53.6091 51.8063C54.2374 52.071 54.7087 51.1444 54.7087 51.0562C54.7087 51.0562 54.7087 51.0562 54.7311 51.0562C54.9106 51.012 55.2248 50.9017 55.3595 50.659C55.4492 50.4825 55.4268 50.2619 55.2921 50.0854C55.5165 49.9972 55.9653 49.7545 56.0327 49.3353ZM57.9177 44.1727C57.6933 44.636 57.5811 45.1214 57.5362 45.5185C57.4913 45.9156 57.4913 46.2466 57.5137 46.4231C57.5137 46.4672 57.5811 46.5113 57.6259 46.4893C57.7606 46.401 58.0299 46.2025 58.3216 45.9156C58.6133 45.6288 58.9275 45.2538 59.1519 44.7905C59.3763 44.3272 59.4885 43.8418 59.5334 43.4447C59.5782 43.0475 59.5782 42.7166 59.5558 42.5401C59.5558 42.496 59.4885 42.4519 59.4436 42.4739C59.309 42.5622 59.0397 42.7607 58.748 43.0475C58.4562 43.3344 58.1645 43.7094 57.9177 44.1727ZM57.985 40.4663C57.8503 40.9516 57.8279 41.4149 57.8503 41.8121C57.8728 42.2092 57.9401 42.518 57.985 42.6725C58.0074 42.7166 58.0747 42.7387 58.0972 42.7166C58.2094 42.6063 58.4338 42.3636 58.6582 42.0547C58.8826 41.7238 59.107 41.3267 59.2416 40.8413C59.3763 40.3559 59.3987 39.8926 59.3763 39.4955C59.3538 39.0984 59.2865 38.7895 59.2416 38.6351C59.2192 38.591 59.1519 38.5689 59.1294 38.591C59.0172 38.7013 58.7928 38.944 58.5684 39.2528C58.344 39.5838 58.1196 39.9809 57.985 40.4663ZM52.0607 32.6562C51.5895 32.5459 51.1182 32.5459 50.7367 32.59C50.3552 32.6341 50.0635 32.7224 49.9064 32.7665C49.8616 32.7886 49.8391 32.8547 49.884 32.8768C49.9962 32.9871 50.243 33.1857 50.5572 33.3842C50.8938 33.5828 51.2977 33.7814 51.769 33.8917C52.2402 34.002 52.7115 34.002 53.093 33.9579C53.4745 33.9137 53.7662 33.8255 53.9233 33.7814C53.9681 33.7593 53.9906 33.6931 53.9457 33.6711C53.8335 33.5607 53.5867 33.3622 53.2725 33.1636C52.9583 32.9651 52.532 32.7665 52.0607 32.6562ZM54.5516 33.5828C54.7311 33.9358 54.9106 34.1785 55.0004 34.3109C55.0228 34.355 55.1126 34.3329 55.1126 34.2888C55.1799 34.1344 55.2697 33.8476 55.3595 33.4725C55.4268 33.0974 55.4717 32.6341 55.4043 32.1488C55.337 31.6634 55.1575 31.2221 55.0004 30.8912C54.8209 30.5382 54.6414 30.2955 54.5516 30.1631C54.5292 30.119 54.4394 30.1411 54.4394 30.1852C54.3721 30.3396 54.2823 30.6265 54.1926 31.0015C54.1252 31.3766 54.0804 31.8399 54.1477 32.3253C54.1926 32.7886 54.3721 33.2298 54.5516 33.5828ZM52.689 31.9502C52.9135 32.2811 53.1154 32.5238 53.2501 32.6341C53.2949 32.6783 53.3623 32.6562 53.3623 32.6121C53.4071 32.4576 53.4745 32.1267 53.5193 31.7296C53.5418 31.3324 53.5418 30.8471 53.4071 30.3617C53.2725 29.8763 53.0705 29.4351 52.8461 29.1042C52.6217 28.7732 52.4198 28.5305 52.2851 28.4202C52.2402 28.3761 52.1729 28.3982 52.1729 28.4423C52.128 28.5967 52.0607 28.9277 52.0158 29.3248C51.971 29.7219 51.9934 30.2073 52.128 30.6926C52.2627 31.178 52.4646 31.6193 52.689 31.9502ZM57.2669 38.3041C57.3342 38.6792 57.424 38.9881 57.4689 39.1204C57.4913 39.1646 57.5586 39.1866 57.5811 39.1425C57.6933 39.0101 57.8728 38.7675 58.0523 38.4365C58.2318 38.1056 58.4113 37.6864 58.5011 37.201C58.5909 36.7157 58.5684 36.2523 58.5011 35.8773C58.4338 35.5022 58.344 35.1934 58.2991 35.061C58.2767 35.0169 58.2094 34.9948 58.1869 35.0389C58.0747 35.1713 57.8952 35.414 57.7157 35.7449C57.5362 36.0758 57.3566 36.495 57.2669 36.9804C57.1996 37.4658 57.222 37.9291 57.2669 38.3041ZM56.5712 36.4068C56.5937 36.4509 56.661 36.4509 56.6834 36.4068C56.7508 36.2744 56.9078 35.9876 57.02 35.6346C57.1322 35.2816 57.2444 34.8183 57.2444 34.3329C57.2444 33.8476 57.1322 33.4063 57.02 33.0533C56.9078 32.7003 56.7508 32.4135 56.661 32.2811C56.6386 32.237 56.5712 32.237 56.5488 32.2811C56.4815 32.4135 56.3244 32.7003 56.2122 33.0533C56.1 33.4063 55.9878 33.8696 55.9878 34.355C55.9878 34.8404 56.1 35.2816 56.2122 35.6346C56.3468 35.9876 56.4815 36.2744 56.5712 36.4068ZM53.1603 34.5977C52.7788 34.5756 52.4871 34.5977 52.33 34.6197C52.2851 34.6197 52.2627 34.6859 52.2851 34.73C52.3749 34.8624 52.5768 35.1051 52.8461 35.3478C53.1379 35.6125 53.4969 35.8773 53.9457 36.0538C54.3945 36.2523 54.8433 36.3185 55.2248 36.3406C55.6063 36.3627 55.898 36.3406 56.0551 36.3185C56.1 36.3185 56.1224 36.2523 56.1 36.2082C56.0102 36.0758 55.8083 35.8332 55.539 35.5905C55.2473 35.3257 54.8882 35.061 54.4394 34.8845C53.9906 34.708 53.5418 34.6197 53.1603 34.5977ZM35.4099 31.8178C35.567 31.8619 35.8588 31.9502 36.2402 31.9723C36.6217 32.0164 37.0705 32.0164 37.5418 31.9061C38.013 31.7958 38.417 31.5972 38.7311 31.3766C39.0453 31.156 39.2921 30.9574 39.4043 30.8691C39.4492 30.8471 39.4268 30.7588 39.3819 30.7588C39.2248 30.7147 38.9331 30.6265 38.5516 30.6044C38.1701 30.5823 37.7213 30.5603 37.2501 30.6706C36.7788 30.7809 36.3749 30.9795 36.0607 31.2001C35.7466 31.4207 35.4997 31.6193 35.3875 31.7075C35.3426 31.7296 35.3651 31.7958 35.4099 31.8178ZM33.525 53.9022C33.7269 53.2624 32.8069 52.777 32.7171 52.7991C32.7171 52.7991 32.7171 52.7991 32.7171 52.777C32.6498 52.6005 32.5376 52.2696 32.2683 52.1372C32.0888 52.049 31.8644 52.071 31.6848 52.2255C31.5726 51.9828 31.3258 51.5415 30.877 51.4754C30.5179 51.4312 30.2935 51.7842 30.2038 51.9607C30.0467 51.8945 29.7325 51.8283 29.4632 51.9166C29.2837 51.9828 29.1715 52.1152 29.1042 52.2917C29.0369 52.4902 29.0593 52.6667 29.1491 52.8212C29.3062 53.0638 29.5979 53.2183 29.755 53.2624C29.7101 53.461 29.6652 53.8801 29.9794 54.0787C30.3609 54.3214 30.8321 54.1228 31.0565 54.0125C31.1014 54.2331 31.2585 54.4096 31.4604 54.4538C31.7522 54.52 32.0214 54.3435 32.1785 54.2331C32.3132 54.2773 33.323 54.542 33.525 53.9022ZM28.7227 42.2092C28.9471 42.5401 29.1715 42.7607 29.2837 42.871C29.3286 42.9152 29.3959 42.8931 29.3959 42.8269C29.4408 42.6725 29.5081 42.3636 29.5081 41.9665C29.5306 41.5694 29.5081 41.1061 29.351 40.6207C29.2164 40.1353 28.9696 39.7382 28.7451 39.4073C28.5207 39.0763 28.2963 38.8557 28.1841 38.7454C28.1393 38.7013 28.0719 38.7233 28.0719 38.7895C28.0271 38.944 27.9822 39.2528 27.9597 39.6499C27.9373 40.0471 27.9597 40.5104 28.1168 40.9957C28.2515 41.4811 28.4983 41.8782 28.7227 42.2092ZM36.2851 55.601C36.1729 55.4245 35.9934 55.1377 35.7017 55.0715C35.4997 55.0053 35.2977 55.0936 35.1631 55.2701C35.006 55.0494 34.647 54.6744 34.2206 54.6964C33.8616 54.7185 33.7269 55.1156 33.682 55.3142C33.525 55.2921 33.1883 55.2701 32.9415 55.4245C32.7844 55.5128 32.6947 55.6672 32.6722 55.8657C32.6498 56.0643 32.7171 56.2408 32.8293 56.3732C33.0313 56.5938 33.3454 56.66 33.525 56.6821C33.525 56.8806 33.5698 57.2998 33.9289 57.4322C34.3552 57.5866 34.7592 57.2998 34.9611 57.1454C35.0733 57.366 35.2529 57.4763 35.4548 57.4763C35.7466 57.4763 35.9934 57.2336 36.1056 57.1233C36.1954 57.1674 37.2276 57.2116 37.2949 56.5276C37.3847 55.8657 36.3749 55.5789 36.2851 55.601ZM28.2515 44.9449C28.4759 45.4082 28.8125 45.7833 29.1042 46.0701C29.3959 46.3569 29.6652 46.5555 29.7998 46.6437C29.8447 46.6658 29.912 46.6437 29.912 46.5775C29.912 46.401 29.9345 46.0701 29.8672 45.673C29.8223 45.2758 29.6876 44.7905 29.4632 44.3272C29.2388 43.8638 28.9022 43.4888 28.6105 43.202C28.3188 42.9152 28.0495 42.7166 27.9149 42.6284C27.87 42.6063 27.8027 42.6284 27.8027 42.6945C27.8027 42.871 27.7802 43.202 27.8475 43.5991C27.9149 43.9962 28.0271 44.4816 28.2515 44.9449ZM30.0243 50.0192C30.4057 50.2399 30.7648 50.3722 30.9219 50.4384C30.9667 50.4605 31.0341 50.3943 31.0341 50.3502C30.9892 50.1737 30.8994 49.8207 30.7423 49.4015C30.5628 48.9823 30.316 48.519 29.9345 48.0778C29.553 47.6586 29.1266 47.3276 28.7227 47.107C28.3188 46.8864 27.9822 46.754 27.8251 46.6878C27.7578 46.6658 27.7129 46.7099 27.7129 46.7761C27.7578 46.9526 27.8475 47.3056 28.0046 47.7248C28.1841 48.1439 28.431 48.6072 28.8125 49.0485C29.194 49.4677 29.6428 49.7986 30.0243 50.0192ZM37.8111 53.6154C37.8784 53.4389 38.013 53.13 37.9233 52.8432C37.8559 52.6447 37.6764 52.5343 37.452 52.5343C37.5418 52.2696 37.654 51.7842 37.3623 51.4533C37.1154 51.1665 36.7339 51.2989 36.532 51.3871C36.4422 51.2327 36.2627 50.9679 36.0158 50.8797C35.8363 50.8135 35.6568 50.8355 35.4997 50.9238C35.3202 51.0341 35.208 51.1665 35.1855 51.343C35.1182 51.6298 35.2529 51.9166 35.3426 52.071C35.1631 52.2034 34.8489 52.4682 34.9611 52.8212C35.0733 53.2403 35.567 53.4168 35.8139 53.483C35.7017 53.6816 35.7017 53.9022 35.8139 54.0787C35.9934 54.3214 36.3076 54.3655 36.4871 54.3876C36.4871 54.3876 36.4871 54.3876 36.5095 54.3876C36.5095 54.4758 37.093 55.3142 37.6989 54.9833C38.3048 54.6523 37.8784 53.6816 37.8111 53.6154ZM47.8195 53.2624L49.525 57.6528C47.7297 58.3147 45.7998 58.6897 43.7578 58.7118C41.7157 58.7339 39.7858 58.3809 37.9906 57.719L39.6512 53.3065C40.9303 53.7698 42.2991 54.0125 43.7353 54.0125C45.1715 54.0125 46.5628 53.7478 47.8195 53.2624ZM59.6007 46.5113C59.4212 46.5775 59.0846 46.7099 58.7031 46.9305C58.3216 47.1511 57.8728 47.4821 57.5137 47.9013C57.1322 48.3425 56.8854 48.8058 56.7283 49.225C56.5712 49.6442 56.4815 49.9972 56.4366 50.1737C56.4366 50.2399 56.4815 50.284 56.5488 50.2619C56.7283 50.1957 57.0649 50.0634 57.4464 49.8427C57.8279 49.6221 58.2767 49.2912 58.6358 48.872C59.0172 48.4307 59.2641 47.9674 59.4212 47.5483C59.5782 47.1291 59.668 46.7761 59.7129 46.5996C59.7129 46.5334 59.6456 46.4893 59.6007 46.5113ZM57.985 51.7622C57.7157 51.6739 57.4015 51.7622 57.2444 51.8063C57.1547 51.6077 56.9303 51.2768 56.5712 51.3209C56.1449 51.3871 55.8756 51.8283 55.7858 52.0931C55.6063 51.9607 55.3819 51.9166 55.2024 52.0269C54.9555 52.1593 54.8209 52.4902 54.776 52.6667C54.776 52.6667 54.776 52.6667 54.776 52.6888C54.6862 52.6888 53.7662 53.1741 53.9906 53.814C54.215 54.4538 55.2024 54.189 55.2697 54.1228C55.4268 54.2111 55.7185 54.3876 55.9878 54.3214C56.1897 54.2773 56.3244 54.1228 56.3917 53.8801C56.6161 53.9905 57.0874 54.189 57.4689 53.9463C57.783 53.7478 57.7381 53.3286 57.6933 53.13C57.8503 53.0638 58.1421 52.9315 58.2991 52.6667C58.3889 52.5123 58.4113 52.3137 58.344 52.1372C58.2767 51.9387 58.1645 51.8063 57.985 51.7622ZM54.574 55.2921C54.3272 55.1377 54.013 55.1598 53.8335 55.1818C53.7886 54.9833 53.654 54.5861 53.2725 54.5641C52.8237 54.542 52.4871 54.9171 52.33 55.1377C52.1729 54.9612 51.971 54.895 51.7914 54.9391C51.4997 55.0274 51.3202 55.3142 51.2304 55.4686C51.1407 55.4466 50.1308 55.7334 50.2206 56.3952C50.3104 57.0571 51.3426 57.013 51.4099 56.9689C51.5446 57.1012 51.7914 57.3219 52.0832 57.3219C52.2851 57.3219 52.4646 57.1895 52.5768 56.9689C52.7788 57.1454 53.2052 57.4101 53.6091 57.2557C53.9681 57.1233 54.013 56.7041 53.9906 56.5056C54.1477 56.4835 54.4843 56.3952 54.6862 56.1967C54.8209 56.0643 54.8658 55.8878 54.8433 55.6893C54.8209 55.5569 54.7311 55.4024 54.574 55.2921ZM51.0285 54.2993C51.0285 54.2993 51.0509 54.2993 51.0285 54.2993C51.2304 54.2552 51.5446 54.2111 51.7241 53.9684C51.8363 53.814 51.8363 53.5933 51.7241 53.3727C51.971 53.3065 52.4422 53.13 52.5768 52.7108C52.6666 52.3578 52.3524 52.071 52.1954 51.9607C52.2627 51.8063 52.3973 51.5195 52.33 51.2327C52.2851 51.0562 52.1729 50.9017 51.9934 50.8135C51.8139 50.7252 51.6343 50.7032 51.4773 50.7694C51.208 50.8797 51.0285 51.1444 50.9611 51.2989C50.7592 51.2106 50.3777 51.1003 50.1308 51.3871C49.8616 51.718 49.9738 52.2255 50.0635 52.4682C49.8391 52.4902 49.6596 52.6005 49.5923 52.7991C49.5025 53.0638 49.6372 53.3948 49.7045 53.5492C49.7045 53.5492 49.7045 53.5492 49.7045 53.5713C49.6372 53.6375 49.2781 54.5861 49.884 54.9171C50.4674 55.248 51.0285 54.3876 51.0285 54.2993ZM33.9064 32.7224C33.9289 32.7665 33.9962 32.7886 34.0186 32.7444C34.1308 32.6341 34.3552 32.3914 34.5572 32.0384C34.7592 31.6854 34.9836 31.2663 35.1182 30.7809C35.2304 30.2955 35.2529 29.8101 35.208 29.413C35.1631 29.0159 35.0958 28.707 35.0509 28.5305C35.0285 28.4864 34.9611 28.4643 34.9387 28.5085C34.8265 28.6188 34.6021 28.8615 34.4001 29.2145C34.1757 29.5454 33.9738 29.9866 33.8391 30.472C33.7269 30.9574 33.7045 31.4428 33.7494 31.8399C33.7718 32.237 33.8616 32.5459 33.9064 32.7224ZM31.1463 39.4514C31.5053 39.2969 31.9092 39.0763 32.2683 38.7675C32.6273 38.4586 32.8966 38.0615 33.0761 37.7305C33.2557 37.3996 33.3679 37.1128 33.4128 36.9583C33.4352 36.9142 33.3903 36.848 33.323 36.8701C33.1659 36.8922 32.8742 36.9804 32.5151 37.1348C32.1561 37.2893 31.7522 37.5099 31.3931 37.8188C31.0341 38.1276 30.7648 38.5248 30.5853 38.8557C30.4057 39.1866 30.2935 39.4734 30.2487 39.6279C30.2262 39.672 30.2711 39.7382 30.3384 39.7161C30.4955 39.672 30.8097 39.5838 31.1463 39.4514ZM30.8321 47.7248C30.8545 47.7689 30.9219 47.7909 30.9667 47.7468C31.0789 47.6144 31.2809 47.3497 31.4829 46.9746C31.6848 46.5996 31.8868 46.1363 31.9766 45.6068C32.0663 45.0773 32.0439 44.5698 31.9766 44.1507C31.9092 43.7315 31.797 43.4005 31.7522 43.2461C31.7297 43.202 31.6624 43.1799 31.6175 43.224C31.5053 43.3564 31.3034 43.6212 31.1014 43.9962C30.8994 44.3713 30.6975 44.8346 30.6077 45.3641C30.5179 45.8936 30.5404 46.401 30.6077 46.8202C30.675 47.2394 30.7872 47.5703 30.8321 47.7248ZM29.8447 43.4888C29.8447 43.5329 29.912 43.577 29.9569 43.555C30.114 43.4667 30.3833 43.3123 30.6975 43.0475C31.0116 42.8049 31.3482 42.4519 31.6175 42.0106C31.8868 41.5694 32.0439 41.1061 32.1336 40.731C32.2234 40.3339 32.2459 40.0029 32.2459 39.8485C32.2459 39.8044 32.1785 39.7603 32.1336 39.7823C31.9766 39.8706 31.7073 40.025 31.3931 40.2898C31.0789 40.5324 30.7423 40.8854 30.4731 41.3267C30.2038 41.7679 30.0467 42.2312 29.9569 42.6063C29.8672 43.0034 29.8447 43.3344 29.8447 43.4888ZM29.2613 38.613C29.4408 38.944 29.6428 39.1866 29.755 39.319C29.7774 39.3631 29.8672 39.3411 29.8672 39.2969C29.912 39.1425 30.0018 38.8557 30.0691 38.4586C30.114 38.0835 30.1365 37.6202 30.0467 37.1348C29.9569 36.6495 29.7774 36.2303 29.5754 35.8994C29.3959 35.5684 29.194 35.3257 29.0818 35.1934C29.0593 35.1492 28.9696 35.1713 28.9696 35.2154C28.9247 35.3699 28.8349 35.6567 28.7676 36.0538C28.7227 36.4288 28.7003 36.8922 28.79 37.3775C28.8798 37.8629 29.0593 38.2821 29.2613 38.613ZM37.3623 29.8543C37.6764 29.8543 38.6189 29.8322 39.539 29.413C40.459 28.9938 41.0874 28.2878 41.2893 28.0452C41.3118 28.001 41.2893 27.9569 41.2444 27.9569C40.9303 27.9569 39.9878 27.979 39.0677 28.3982C38.1477 28.8173 37.5193 29.5233 37.3174 29.766C37.2725 29.7881 37.3174 29.8543 37.3623 29.8543ZM31.2585 36.473C31.4156 36.495 31.7297 36.5171 32.0888 36.473C32.4703 36.4509 32.9191 36.3627 33.3454 36.1641C33.7942 35.9655 34.1533 35.7008 34.4226 35.436C34.6919 35.1713 34.8938 34.9286 34.9836 34.8183C35.006 34.7742 34.9836 34.708 34.9387 34.708C34.7816 34.6859 34.4674 34.6639 34.1084 34.708C33.7269 34.73 33.2781 34.8183 32.8517 35.0169C32.4254 35.2154 32.0439 35.4802 31.7746 35.7449C31.5053 36.0097 31.3034 36.2523 31.2136 36.3627C31.1912 36.4068 31.2136 36.473 31.2585 36.473ZM30.6301 36.5392C30.6526 36.5833 30.7199 36.5833 30.7423 36.5392C30.8097 36.4068 30.9667 36.12 31.0789 35.767C31.1912 35.414 31.3034 34.9507 31.3034 34.4653C31.3034 33.9799 31.1912 33.5387 31.0789 33.1857C30.9443 32.8327 30.8097 32.5459 30.7199 32.4135C30.6975 32.3694 30.6301 32.3694 30.6077 32.4135C30.5404 32.5459 30.3833 32.8327 30.2711 33.1857C30.1589 33.5387 30.0467 34.002 30.0467 34.4874C30.0467 34.9727 30.1589 35.414 30.2711 35.767C30.4057 36.142 30.5404 36.4068 30.6301 36.5392ZM33.3454 33.9137C33.5025 33.9579 33.7942 34.0461 34.1757 34.0682C34.5572 34.1123 35.0285 34.1123 35.4997 34.002C35.971 33.8917 36.3973 33.6931 36.7115 33.4725C37.0257 33.2739 37.2725 33.0533 37.3847 32.943C37.4296 32.8989 37.4071 32.8327 37.3623 32.8327C37.2052 32.7886 36.9135 32.7003 36.532 32.6783C36.1505 32.6341 35.6792 32.6341 35.208 32.7444C34.7367 32.8547 34.3104 33.0533 33.9962 33.2739C33.682 33.4725 33.4352 33.6931 33.323 33.8034C33.2781 33.8255 33.3005 33.8917 33.3454 33.9137ZM35.9485 30.6706C36.0607 30.5603 36.3076 30.3617 36.5544 30.0749C36.8012 29.7881 37.0481 29.413 37.2276 28.9497C37.4071 28.5085 37.452 28.0452 37.4745 27.6701C37.4969 27.295 37.452 26.9862 37.4296 26.8317C37.4296 26.7876 37.3623 26.7655 37.3174 26.7876C37.2052 26.8979 36.9583 27.0965 36.7115 27.3833C36.4646 27.6701 36.2178 28.0452 36.0383 28.5085C35.8588 28.9497 35.8139 29.413 35.7914 29.7881C35.769 30.1631 35.8139 30.472 35.8363 30.6265C35.8588 30.6926 35.9261 30.7147 35.9485 30.6706ZM32.1561 34.4212C32.1785 34.4653 32.2458 34.4653 32.2683 34.4432C32.3581 34.3109 32.5376 34.0682 32.7171 33.7152C32.8966 33.3622 33.0537 32.943 33.121 32.4356C33.1883 31.9502 33.1435 31.4869 33.0537 31.1118C32.9864 30.7368 32.8742 30.4279 32.8069 30.2955C32.7844 30.2514 32.7171 30.2514 32.6947 30.2735C32.6049 30.4058 32.4254 30.6485 32.2459 31.0015C32.0663 31.3545 31.9092 31.7737 31.8419 32.2811C31.7746 32.7665 31.8195 33.2298 31.9092 33.6049C31.999 33.9579 32.0888 34.2667 32.1561 34.4212ZM41.0649 57.0571H40.9078V54.9612C40.9078 54.895 40.863 54.8509 40.7956 54.8509H40.6834C40.6386 54.8509 40.5937 54.8729 40.5712 54.895C40.3917 55.1818 40.1224 55.4466 39.8083 55.6672C39.7634 55.7113 39.7409 55.7775 39.7858 55.8216L39.8756 55.954C39.898 55.9761 39.9205 55.9981 39.9429 55.9981C39.9653 55.9981 40.0102 55.9981 40.0327 55.9761C40.1224 55.9099 40.2346 55.8437 40.3244 55.7775V57.0351H40.1C39.9878 57.0351 39.9205 57.1012 39.9205 57.2116V57.2777C39.9205 57.3881 39.9878 57.4542 40.1 57.4542L40.5937 57.4322L41.0649 57.4542C41.1771 57.4542 41.2444 57.3881 41.2444 57.2777V57.2116C41.2444 57.1233 41.1771 57.0571 41.0649 57.0571ZM43.2192 54.9612C43.1968 54.9171 43.1519 54.895 43.107 54.895H41.6484C41.5811 54.895 41.5362 54.9391 41.5362 55.0053V55.6231C41.5362 55.7334 41.6035 55.7996 41.7157 55.7996H41.783C41.8952 55.7996 41.9625 55.7334 41.9625 55.6231V55.4466H42.748C42.4787 56.0202 42.0747 56.66 41.783 57.1233C41.7606 57.1454 41.7606 57.1674 41.7606 57.1895V57.2777C41.7606 57.3219 41.783 57.366 41.8279 57.3881L42.0299 57.4984C42.0523 57.4984 42.0747 57.5204 42.0972 57.5204C42.1196 57.5204 42.1196 57.5204 42.1421 57.5204L42.2318 57.4984C42.2543 57.4984 42.2991 57.4763 42.2991 57.4322C42.5235 57.013 43.0621 55.9319 43.3314 55.2259C43.3538 55.2039 43.3314 55.1598 43.3314 55.1377L43.2192 54.9612ZM44.4759 55.6672C44.3637 55.6672 44.2515 55.6893 44.1617 55.7113L44.1841 55.4907C44.3412 55.4907 44.5432 55.4907 44.6554 55.4907C45.0369 55.4686 45.2837 55.2701 45.351 54.8729C45.351 54.8068 45.3286 54.7626 45.2613 54.7406L45.1491 54.6964C45.0818 54.6744 45.0369 54.6964 44.992 54.7626C44.9022 54.9391 44.9022 54.9391 44.7003 54.9391C44.5207 54.9391 44.2515 54.9391 44.0495 54.9391H43.8924C43.8251 54.9391 43.7802 54.9833 43.7802 55.0494V55.0715L43.6904 56.1526C43.6904 56.1967 43.6905 56.2187 43.7129 56.2408C43.7353 56.2629 43.7578 56.2849 43.8027 56.2849H44.0046C44.0495 56.2849 44.0719 56.2629 44.0944 56.2408L44.1168 56.1967C44.1617 56.1305 44.2515 56.0864 44.431 56.0864C44.5881 56.0864 44.7676 56.1305 44.7676 56.5276C44.7676 57.0351 44.5656 57.1012 44.3412 57.1012C44.2515 57.1012 44.1841 57.0792 44.1393 57.0571C44.1841 56.9909 44.2066 56.9247 44.2066 56.8365C44.2066 56.6159 44.0719 56.4835 43.87 56.4835C43.668 56.4835 43.5109 56.6379 43.5109 56.8806C43.5109 57.2336 43.8475 57.4984 44.3412 57.4984C44.9471 57.4984 45.351 57.0792 45.351 56.5056C45.351 55.9981 45.0144 55.6672 44.4759 55.6672ZM46.7648 55.6672C46.6526 55.6672 46.5404 55.6893 46.4506 55.7113L46.4731 55.4907C46.6301 55.4907 46.8321 55.4907 46.9443 55.4907C47.3258 55.4686 47.5726 55.2701 47.64 54.8729C47.64 54.8068 47.6175 54.7626 47.5502 54.7406L47.438 54.6964C47.3707 54.6744 47.3258 54.6964 47.2809 54.7626C47.1912 54.9391 47.1912 54.9391 46.9892 54.9391C46.8097 54.9391 46.5404 54.9391 46.3384 54.9391H46.1813C46.114 54.9391 46.0691 54.9833 46.0691 55.0494V55.0715L45.9794 56.1526C45.9794 56.1967 45.9794 56.2187 46.0018 56.2408C46.0243 56.2629 46.0467 56.2849 46.0916 56.2849H46.2935C46.3384 56.2849 46.3609 56.2629 46.3833 56.2408L46.4057 56.1967C46.4506 56.1305 46.5404 56.0864 46.7199 56.0864C46.877 56.0864 47.0565 56.1305 47.0565 56.5276C47.0565 57.0351 46.8545 57.1012 46.6301 57.1012C46.5404 57.1012 46.4731 57.0792 46.4282 57.0571C46.4731 56.9909 46.4955 56.9247 46.4955 56.8365C46.4955 56.6159 46.3609 56.4835 46.1589 56.4835C45.9569 56.4835 45.7998 56.6379 45.7998 56.8806C45.7998 57.2336 46.1365 57.4984 46.6301 57.4984C47.236 57.4984 47.6624 57.0792 47.6624 56.5056C47.64 55.9981 47.3034 55.6672 46.7648 55.6672Z" fill="#5C56C3"></path></g><defs><filter id="filter" x="15.7129" y="14.7128" width="88" height="88" filterUnits="userSpaceOnUse" color-interpolation-filters="sRGB"><feFlood flood-opacity="0"></feFlood><feGaussianBlur in="BackgroundImage"></feGaussianBlur><feComposite in2="SourceAlpha" operator="in"></feComposite><feBlend mode="normal" in="SourceGraphic" in2="effect1_backgroundBlur_1015_16314"></feBlend></filter><radialGradient id="paint" cx="0" cy="0" r="1" gradientUnits="userSpaceOnUse" gradientTransform="translate(32 32) rotate(90) scale(32)"><stop offset="0" stop-color="#1715A2"></stop><stop offset="1" stop-color="#D8CAFF"></stop></radialGradient><radialGradient id="paint" cx="0" cy="0" r="1" gradientUnits="userSpaceOnUse" gradientTransform="translate(32 32) rotate(90) scale(32)"><stop offset="0" stop-color="#1715A2"></stop><stop offset="1" stop-color="#D8CAFF"></stop></radialGradient></defs></svg>