<svg width="43" height="55" viewBox="0 0 43 55" fill="none" xmlns="http://www.w3.org/2000/svg">
<g id="freepik--Calendar--inject-1--inject-40">
<g id="freepik--calendar--inject-1--inject-40">
<g id="freepik--calendar--inject-1--inject-40_2">
<path id="Vector" d="M0.229886 47.5778C0.142823 47.5128 0.0754029 47.4193 0.0366461 47.3099C-0.00211067 47.2005 -0.0103568 47.0804 0.0130098 46.9655L5.22344 20.9206C5.28736 20.6694 5.4287 20.4522 5.62194 20.3083L36.6351 0.104219C36.7305 0.0498606 36.8359 0.0215454 36.9428 0.0215454C37.0497 0.0215454 37.1551 0.0498606 37.2505 0.104219C37.3375 0.169381 37.405 0.262715 37.4442 0.371973C37.4834 0.481232 37.4924 0.601311 37.4701 0.716464L32.2488 26.7369C32.1869 26.9892 32.0451 27.2071 31.8503 27.3492L0.84527 47.5533C0.751553 47.6115 0.647046 47.644 0.540161 47.6483C0.433276 47.6525 0.326998 47.6284 0.229886 47.5778Z" fill="#4758B9"/>
<path id="Vector_2" opacity="0.8" d="M0.229886 47.5778C0.142823 47.5128 0.0754029 47.4193 0.0366461 47.3099C-0.00211067 47.2005 -0.0103568 47.0804 0.0130098 46.9655L5.22344 20.9206C5.28736 20.6694 5.4287 20.4522 5.62194 20.3083L36.6351 0.104219C36.7305 0.0498606 36.8359 0.0215454 36.9428 0.0215454C37.0497 0.0215454 37.1551 0.0498606 37.2505 0.104219C37.3375 0.169381 37.405 0.262715 37.4442 0.371973C37.4834 0.481232 37.4924 0.601311 37.4701 0.716464L32.2488 26.7369C32.1869 26.9892 32.0451 27.2071 31.8503 27.3492L0.84527 47.5533C0.751553 47.6115 0.647046 47.644 0.540161 47.6483C0.433276 47.6525 0.326998 47.6284 0.229886 47.5778Z" fill="white"/>
<path id="Vector_3" d="M5.81981 21.3154L0.609381 47.3665C0.563295 47.5899 0.671736 47.6726 0.845236 47.5655L31.8584 27.3491C32.0532 27.207 32.195 26.9892 32.2569 26.7368L37.47 0.685784C37.5134 0.462314 37.4077 0.379661 37.2315 0.489866L6.22374 20.7032C6.02795 20.8454 5.88444 21.0629 5.81981 21.3154Z" fill="#4758B9"/>
<path id="Vector_4" opacity="0.6" d="M5.81981 21.3154L0.609381 47.3665C0.563295 47.5899 0.671736 47.6726 0.845236 47.5655L31.8584 27.3491C32.0532 27.207 32.195 26.9892 32.2569 26.7368L37.47 0.685784C37.5134 0.462314 37.4077 0.379661 37.2315 0.489866L6.22374 20.7032C6.02795 20.8454 5.88444 21.0629 5.81981 21.3154Z" fill="white"/>
<path id="Vector_5" opacity="0.05" d="M5.81981 21.3154L0.609381 47.3665C0.563295 47.5899 0.671736 47.6726 0.845236 47.5655L31.8584 27.3491C32.0532 27.207 32.195 26.9892 32.2569 26.7368L37.47 0.685784C37.5134 0.462314 37.4077 0.379661 37.2315 0.489866L6.22374 20.7032C6.02795 20.8454 5.88444 21.0629 5.81981 21.3154Z" fill="#181E40"/>
<path id="Vector_6" d="M37.8495 0.471516C37.7527 0.418773 37.6463 0.392666 37.5388 0.395326C37.4314 0.397987 37.326 0.42934 37.2314 0.486823L6.22367 20.7032C6.1331 20.7673 6.05991 20.8584 6.0121 20.9664C5.96428 21.0744 5.94369 21.1951 5.95258 21.3154L10.019 53.5838C10.0387 53.7069 10.0797 53.8243 10.1397 53.9294C10.1998 54.0344 10.2776 54.1251 10.3687 54.1961C10.4646 54.2505 10.5704 54.2788 10.6777 54.2788C10.7851 54.2788 10.8909 54.2505 10.9868 54.1961L42.0081 33.9644C42.0982 33.8998 42.1711 33.8086 42.2188 33.7008C42.2666 33.5929 42.2874 33.4724 42.2792 33.3522L38.2128 1.07764C38.1908 0.954483 38.1473 0.837489 38.085 0.733441C38.0226 0.629393 37.9426 0.540363 37.8495 0.471516Z" fill="#4758B9"/>
<path id="Vector_7" opacity="0.8" d="M37.8495 0.471516C37.7527 0.418773 37.6463 0.392666 37.5388 0.395326C37.4314 0.397987 37.326 0.42934 37.2314 0.486823L6.22367 20.7032C6.1331 20.7673 6.05991 20.8584 6.0121 20.9664C5.96428 21.0744 5.94369 21.1951 5.95258 21.3154L10.019 53.5838C10.0387 53.7069 10.0797 53.8243 10.1397 53.9294C10.1998 54.0344 10.2776 54.1251 10.3687 54.1961C10.4646 54.2505 10.5704 54.2788 10.6777 54.2788C10.7851 54.2788 10.8909 54.2505 10.9868 54.1961L42.0081 33.9644C42.0982 33.8998 42.1711 33.8086 42.2188 33.7008C42.2666 33.5929 42.2874 33.4724 42.2792 33.3522L38.2128 1.07764C38.1908 0.954483 38.1473 0.837489 38.085 0.733441C38.0226 0.629393 37.9426 0.540363 37.8495 0.471516Z" fill="white"/>
<path id="Vector_8" d="M6.55168 21.7103L10.6181 53.9787C10.6192 54.0268 10.6319 54.0737 10.655 54.1142C10.678 54.1547 10.7104 54.1873 10.7487 54.2084C10.787 54.2295 10.8297 54.2384 10.8721 54.2341C10.9146 54.2298 10.9552 54.2124 10.9895 54.1838L42.008 33.9644C42.0982 33.8997 42.171 33.8086 42.2188 33.7007C42.2666 33.5929 42.2874 33.4724 42.2791 33.3521L38.2127 1.0776C38.2121 1.02927 38.1996 0.982098 38.1766 0.94136C38.1535 0.900621 38.1209 0.86793 38.0823 0.846953C38.0438 0.825976 38.0008 0.81754 37.9582 0.822593C37.9157 0.827646 37.8752 0.84599 37.8413 0.875563L6.8309 21.0797C6.73641 21.1443 6.66006 21.2379 6.61065 21.3494C6.56124 21.461 6.54079 21.5861 6.55168 21.7103Z" fill="#4758B9"/>
<path id="Vector_9" opacity="0.95" d="M6.55168 21.7103L10.6181 53.9787C10.6192 54.0268 10.6319 54.0737 10.655 54.1142C10.678 54.1547 10.7104 54.1873 10.7487 54.2084C10.787 54.2295 10.8297 54.2384 10.8721 54.2341C10.9146 54.2298 10.9552 54.2124 10.9895 54.1838L42.008 33.9644C42.0982 33.8997 42.171 33.8086 42.2188 33.7007C42.2666 33.5929 42.2874 33.4724 42.2791 33.3521L38.2127 1.0776C38.2121 1.02927 38.1996 0.982098 38.1766 0.94136C38.1535 0.900621 38.1209 0.86793 38.0823 0.846953C38.0438 0.825976 38.0008 0.81754 37.9582 0.822593C37.9157 0.827646 37.8752 0.84599 37.8413 0.875563L6.8309 21.0797C6.73641 21.1443 6.66006 21.2379 6.61065 21.3494C6.56124 21.461 6.54079 21.5861 6.55168 21.7103Z" fill="white"/>
<path id="Vector_10" d="M8.80998 43.9318L5.16919 46.3042C5.09501 46.2864 5.01836 46.2864 4.94418 46.3042L0.647339 47.2379L8.57413 42.043L8.80998 43.9318Z" fill="#4758B9"/>
<path id="Vector_11" opacity="0.5" d="M8.80998 43.9318L5.16919 46.3042C5.09501 46.2864 5.01836 46.2864 4.94418 46.3042L0.647339 47.2379L8.57413 42.043L8.80998 43.9318Z" fill="white"/>
<path id="Vector_12" opacity="0.2" d="M8.80998 43.9318L5.16919 46.3042C5.09501 46.2864 5.01836 46.2864 4.94418 46.3042L0.647339 47.2379L8.57413 42.043L8.80998 43.9318Z" fill="#181E40"/>
<path id="Vector_13" d="M9.99735 53.3389L5.52429 46.5307C5.43813 46.4106 5.31883 46.3266 5.18542 46.292L8.80995 43.9318L9.99735 53.3389Z" fill="#4758B9"/>
<path id="Vector_14" opacity="0.6" d="M9.99735 53.3389L5.52429 46.5307C5.43813 46.4106 5.31883 46.3266 5.18542 46.292L8.80995 43.9318L9.99735 53.3389Z" fill="white"/>
<path id="Vector_15" opacity="0.1" d="M9.99735 53.3389L5.52429 46.5307C5.43813 46.4106 5.31883 46.3266 5.18542 46.292L8.80995 43.9318L9.99735 53.3389Z" fill="#181E40"/>
<path id="Vector_16" d="M9.85915 53.6573L5.52165 47.3052C5.44922 47.2113 5.35821 47.138 5.25601 47.0912C5.1538 47.0444 5.04328 47.0254 4.93337 47.0359L0.883229 47.6971C0.655864 47.7247 0.426257 47.678 0.221759 47.5624C0.056392 47.4552 0.0835002 47.3328 0.28411 47.2899L4.93608 46.2767C5.04421 46.2595 5.15441 46.2742 5.25605 46.3192C5.35768 46.3643 5.4473 46.4382 5.51622 46.5338L10.4528 54.0399C10.5721 54.2267 10.5369 54.2879 10.3715 54.1808C10.177 54.0383 10.0041 53.8616 9.85915 53.6573Z" fill="#4758B9"/>
<path id="Vector_17" opacity="0.8" d="M9.85915 53.6573L5.52165 47.3052C5.44922 47.2113 5.35821 47.138 5.25601 47.0912C5.1538 47.0444 5.04328 47.0254 4.93337 47.0359L0.883229 47.6971C0.655864 47.7247 0.426257 47.678 0.221759 47.5624C0.056392 47.4552 0.0835002 47.3328 0.28411 47.2899L4.93608 46.2767C5.04421 46.2595 5.15441 46.2742 5.25605 46.3192C5.35768 46.3643 5.4473 46.4382 5.51622 46.5338L10.4528 54.0399C10.5721 54.2267 10.5369 54.2879 10.3715 54.1808C10.177 54.0383 10.0041 53.8616 9.85915 53.6573Z" fill="white"/>
<path id="Vector_18" d="M37.4782 0.554143C37.4778 0.460752 37.4571 0.368903 37.4178 0.286691C37.3786 0.20448 37.322 0.134427 37.2532 0.0827106C37.1573 0.0283214 37.0515 0 36.9441 0C36.8368 0 36.731 0.0283214 36.6351 0.0827106L5.62194 20.3083C5.42919 20.4527 5.28801 20.6696 5.22343 20.9205L4.48877 24.594L5.08518 24.9828L36.7327 4.35007L37.4701 0.67659C37.4738 0.633837 37.4738 0.590771 37.4701 0.548019L37.4782 0.554143Z" fill="#4758B9"/>
<path id="Vector_19" opacity="0.6" d="M37.4701 0.682732C37.5134 0.459263 37.4077 0.37661 37.2315 0.486814L6.22377 20.7032C6.02901 20.8459 5.88651 21.0634 5.82256 21.3154L5.08789 24.9889L36.7354 4.35621L37.4701 0.682732Z" fill="#181E40"/>
<path id="Vector_20" opacity="0.5" d="M5.97707 20.9603C5.90425 21.0653 5.85162 21.1862 5.82255 21.3154L5.08518 24.9889L4.48877 24.594L5.22343 20.9205C5.25411 20.7914 5.3076 20.6706 5.38067 20.5654L5.97707 20.9603Z" fill="#181E40"/>
<path id="Vector_21" opacity="0.2" d="M37.4782 0.55414C37.4647 0.428629 37.3671 0.394955 37.2315 0.486792L6.22382 20.7031C6.12799 20.7695 6.04501 20.8569 5.97983 20.9603L5.38342 20.5715C5.44834 20.469 5.53029 20.3816 5.6247 20.3144L36.6351 0.104139C36.731 0.0497494 36.8369 0.0214233 36.9442 0.0214233C37.0515 0.0214233 37.1573 0.0497494 37.2532 0.104139C37.3195 0.153791 37.3744 0.220447 37.4135 0.298656C37.4527 0.376865 37.4748 0.464408 37.4782 0.55414Z" fill="#181E40"/>
<path id="Vector_22" d="M38.2373 1.38678L38.1993 1.08066V1.03474C38.1483 0.812077 38.028 0.617586 37.8605 0.48678C37.7637 0.434037 37.6572 0.407925 37.5498 0.410585C37.4423 0.413246 37.337 0.444604 37.2424 0.502087L6.22379 20.7031C6.12916 20.7681 6.05442 20.8643 6.00963 20.9786C5.96254 21.0846 5.9437 21.2037 5.95541 21.3215L6.54097 25.944L7.13737 26.3358L38.7876 5.70311L38.2373 1.38678Z" fill="#4758B9"/>
<path id="Vector_23" opacity="0.4" d="M38.7848 5.70312L7.13459 26.3358L6.55175 21.7103C6.53921 21.5928 6.55709 21.4737 6.60325 21.3674C6.65034 21.2547 6.72456 21.1593 6.81742 21.0919L37.8306 0.88781C37.8597 0.862135 37.8939 0.84495 37.9303 0.837773C37.9667 0.830596 38.0041 0.833648 38.0392 0.846658C38.0743 0.859667 38.106 0.882236 38.1316 0.91237C38.1571 0.942505 38.1757 0.97928 38.1857 1.01944V1.0225V1.06842L38.2236 1.37454L38.7848 5.70312Z" fill="#181E40"/>
<path id="Vector_24" opacity="0.5" d="M7.13469 26.3358L6.53828 25.944L5.95272 21.3215C5.94102 21.2037 5.95985 21.0846 6.00694 20.9786L6.60606 21.3674C6.55897 21.4734 6.54014 21.5925 6.55184 21.7103L7.13469 26.3358Z" fill="#181E40"/>
<path id="Vector_25" opacity="0.3" d="M38.1884 1.02247C38.18 0.980759 38.1624 0.942122 38.1372 0.91014C38.1121 0.878158 38.0802 0.853867 38.0445 0.839518C38.0088 0.825169 37.9705 0.821224 37.9331 0.828055C37.8957 0.834886 37.8604 0.852269 37.8305 0.878591L6.81741 21.0827C6.72378 21.1482 6.65003 21.2443 6.60596 21.3582L6.00684 20.9694C6.05163 20.8551 6.12637 20.7589 6.221 20.6939L37.2314 0.489814C37.3261 0.432331 37.4314 0.400977 37.5389 0.398317C37.6463 0.395657 37.7528 0.421769 37.8495 0.474511C38.0194 0.602622 38.1404 0.798239 38.1884 1.02247Z" fill="#181E40"/>
<g id="Group" opacity="0.2">
<path id="Vector_26" d="M9.39554 21.7471C9.38231 21.528 9.42228 21.309 9.51114 21.1138C9.59999 20.9185 9.73437 20.7543 9.89977 20.6389C10.2305 20.4246 10.5368 20.5715 10.5884 20.9695C10.6016 21.1889 10.5614 21.4082 10.472 21.6036C10.3826 21.7989 10.2475 21.9629 10.0814 22.0777C10.0223 22.134 9.95051 22.1706 9.87404 22.1836C9.79756 22.1965 9.71941 22.1852 9.64829 22.1509C9.57717 22.1166 9.51588 22.0607 9.47125 21.9894C9.42662 21.9181 9.40042 21.8342 9.39554 21.7471Z" fill="#181E40"/>
<path id="Vector_27" d="M13.5785 19.0226C13.5646 18.8031 13.6046 18.5835 13.694 18.388C13.7835 18.1925 13.9189 18.0286 14.0854 17.9144C14.4135 17.697 14.7225 17.847 14.7713 18.2419C14.785 18.4615 14.7453 18.6811 14.6564 18.877C14.5676 19.0728 14.4329 19.2375 14.2671 19.3532C13.9363 19.5675 13.6273 19.4205 13.5785 19.0226Z" fill="#181E40"/>
<path id="Vector_28" d="M17.7561 16.2981C17.7423 16.0789 17.782 15.8597 17.8709 15.6643C17.9598 15.4689 18.0945 15.3048 18.2603 15.1899C18.5911 14.9756 18.8974 15.1226 18.9489 15.5205C18.9601 15.7396 18.9189 15.958 18.8298 16.153C18.7406 16.3479 18.6067 16.5122 18.442 16.6287C18.114 16.843 17.8049 16.696 17.7561 16.2981Z" fill="#181E40"/>
<path id="Vector_29" d="M26.1139 10.8491C26.1001 10.63 26.1398 10.4108 26.2287 10.2153C26.3176 10.0199 26.4523 9.85584 26.6181 9.74095C26.9489 9.52666 27.2552 9.6736 27.3067 10.0716C27.3197 10.2909 27.2793 10.5101 27.1899 10.7054C27.1006 10.9007 26.9657 11.0647 26.7998 11.1797C26.4717 11.394 26.1627 11.2471 26.1139 10.8491Z" fill="#181E40"/>
<path id="Vector_30" d="M30.2969 8.12151C30.283 7.90203 30.323 7.68247 30.4124 7.48697C30.5019 7.29147 30.6373 7.1276 30.8038 7.01335C31.1319 6.79906 31.4409 6.946 31.4897 7.34396C31.5035 7.56309 31.4638 7.78232 31.3749 7.97773C31.286 8.17313 31.1513 8.33723 30.9855 8.45212C30.6547 8.67559 30.3511 8.51947 30.2969 8.12151Z" fill="#181E40"/>
<path id="Vector_31" d="M34.4745 5.39702C34.4613 5.17798 34.5013 4.95901 34.5901 4.76373C34.679 4.56845 34.8134 4.40426 34.9788 4.28886C35.3095 4.07457 35.6158 4.22151 35.6673 4.61947C35.6806 4.83886 35.6403 5.05816 35.551 5.25353C35.4616 5.44891 35.3265 5.61288 35.1604 5.72764C34.8324 5.94192 34.5233 5.79498 34.4745 5.39702Z" fill="#181E40"/>
</g>
<path id="Vector_32" d="M10.6615 20.3266C10.6618 20.4632 10.6509 20.5995 10.629 20.7338C10.6168 20.803 10.6014 20.8715 10.5829 20.9389C10.5098 21.2537 10.3309 21.5239 10.084 21.6919C9.92345 21.7966 9.74085 21.8505 9.55542 21.8481H9.40903L9.39276 21.7593C9.37647 21.574 9.40358 21.3872 9.47138 21.2174C9.58576 21.2367 9.70259 21.2142 9.80482 21.1532C9.88529 21.0835 9.95126 20.9948 9.9981 20.8932C10.0449 20.7917 10.0715 20.6798 10.0759 20.5654C10.0771 20.5552 10.0771 20.5449 10.0759 20.5348C10.079 20.4685 10.079 20.4021 10.0759 20.3358C10.0507 19.6896 9.85639 19.0664 9.51746 18.545C9.40089 18.3583 9.26832 18.185 9.12167 18.0276C9.0003 17.8991 8.86664 17.7861 8.72316 17.6909C8.61324 17.599 8.48457 17.5399 8.34905 17.519C8.21353 17.4981 8.07553 17.5162 7.94783 17.5715C7.83964 17.6669 7.75527 17.7924 7.70299 17.9357C7.65071 18.0789 7.63233 18.2351 7.64963 18.3889C7.65143 18.5767 7.67234 18.7636 7.71198 18.946L7.21046 19.2736V19.2368C7.1397 18.9611 7.10231 18.6759 7.09931 18.3889C7.07833 18.1234 7.12114 17.8565 7.22324 17.6162C7.32534 17.3759 7.48295 17.1712 7.67945 17.0236C8.05085 16.7817 8.52255 16.8246 9.01594 17.1429C9.2439 17.2952 9.45117 17.4839 9.63133 17.7032C9.77056 17.8668 9.89666 18.044 10.0081 18.2327C10.3997 18.8452 10.6266 19.5722 10.6615 20.3266Z" fill="#37474F"/>
<path id="Vector_33" d="M14.8445 17.5991C14.8449 17.7356 14.834 17.872 14.8119 18.0062C14.8019 18.0777 14.7874 18.1483 14.7686 18.2175C14.6926 18.5299 14.513 18.7974 14.267 18.9644C14.1064 19.0691 13.9238 19.123 13.7384 19.1205H13.5947C13.5865 19.0917 13.581 19.0619 13.5785 19.0317C13.56 18.8467 13.5862 18.6595 13.6544 18.4899C13.7687 18.5092 13.8856 18.4867 13.9878 18.4256C14.069 18.3567 14.1355 18.2681 14.1824 18.1664C14.2293 18.0647 14.2554 17.9525 14.2589 17.8379C14.2601 17.8287 14.2601 17.8194 14.2589 17.8103C14.2634 17.7431 14.2634 17.6755 14.2589 17.6083C14.2074 16.7313 13.867 15.9078 13.3047 15.3001C13.1838 15.1708 13.0501 15.0578 12.9061 14.9634C12.796 14.872 12.6672 14.8134 12.5317 14.793C12.3962 14.7727 12.2583 14.7913 12.1308 14.847C12.0229 14.9419 11.9386 15.0669 11.8863 15.2096C11.834 15.3524 11.8155 15.5081 11.8326 15.6613C11.8344 15.8491 11.8553 16.0361 11.895 16.2185L11.3934 16.546V16.5093C11.3235 16.2335 11.287 15.9482 11.285 15.6613C11.2637 15.3962 11.3061 15.1294 11.4078 14.8892C11.5094 14.6489 11.6664 14.444 11.8624 14.296C12.2338 14.0542 12.7083 14.097 13.1989 14.4154C13.4269 14.5677 13.6342 14.7564 13.8143 14.9756C13.9523 15.1405 14.0783 15.3176 14.1911 15.5052C14.5838 16.117 14.8108 16.8444 14.8445 17.5991Z" fill="#37474F"/>
<path id="Vector_34" d="M19.0194 14.8746C19.0192 15.012 19.0092 15.1492 18.9895 15.2848C18.9783 15.3553 18.9629 15.4248 18.9435 15.4929C18.8713 15.8067 18.6919 16.0753 18.4446 16.2399C18.2842 16.3455 18.1017 16.4005 17.916 16.3991C17.8682 16.4036 17.8201 16.4036 17.7723 16.3991C17.7641 16.3702 17.7586 16.3405 17.7561 16.3103C17.7376 16.1252 17.7638 15.938 17.832 15.7684C17.9455 15.7898 18.062 15.7671 18.1627 15.7042C18.244 15.6354 18.3106 15.5469 18.3575 15.4451C18.4044 15.3434 18.4305 15.2311 18.4338 15.1164C18.4351 15.1073 18.4351 15.098 18.4338 15.0889C18.4383 15.0216 18.4383 14.9541 18.4338 14.8868C18.4073 14.2419 18.213 13.62 17.8753 13.0991C17.7595 12.9117 17.6268 12.7384 17.4795 12.5817C17.3582 12.4522 17.2246 12.3382 17.081 12.2419C16.9709 12.1505 16.8421 12.0919 16.7066 12.0716C16.571 12.0513 16.4332 12.0698 16.3057 12.1256C16.1973 12.2207 16.1128 12.3462 16.0605 12.4895C16.0082 12.6329 15.9899 12.7892 16.0075 12.9429C16.0093 13.1307 16.0302 13.3177 16.0699 13.5001L15.5656 13.8276V13.7878C15.495 13.5131 15.4576 13.2289 15.4545 12.9429C15.4545 12.3031 15.6605 11.8195 16.0319 11.5776C16.4033 11.3358 16.8777 11.3756 17.3684 11.697C17.5967 11.8489 17.8048 12.0365 17.9865 12.2542C18.1244 12.419 18.2504 12.5961 18.3633 12.7837C18.7555 13.3949 18.9833 14.1209 19.0194 14.8746Z" fill="#37474F"/>
<path id="Vector_35" d="M27.3691 9.43479C27.3703 9.57126 27.3603 9.70755 27.3393 9.84194C27.3271 9.91318 27.3117 9.98368 27.2932 10.0532C27.2172 10.3657 27.0376 10.6331 26.7917 10.8001C26.6317 10.9037 26.4502 10.9576 26.2657 10.9562C26.2179 10.9609 26.1699 10.9609 26.1221 10.9562C26.1129 10.9254 26.1065 10.8936 26.1031 10.8613C26.0853 10.6786 26.1105 10.4938 26.1763 10.3256C26.2913 10.3465 26.4091 10.325 26.5124 10.2644C26.5983 10.1939 26.6687 10.102 26.7181 9.9958C26.7674 9.88962 26.7945 9.77203 26.7971 9.65214C26.7956 9.6451 26.7956 9.63776 26.7971 9.63071C26.8002 9.56443 26.8002 9.49802 26.7971 9.43173C26.7709 8.78341 26.5757 8.15827 26.2359 7.63479C26.1192 7.44731 25.9857 7.27394 25.8374 7.11745C25.7177 6.99112 25.5858 6.88023 25.4443 6.78683C25.3344 6.69492 25.2057 6.63579 25.0702 6.61492C24.9347 6.59406 24.7967 6.61212 24.669 6.66745C24.5617 6.76354 24.4782 6.88923 24.4264 7.0324C24.3747 7.17556 24.3564 7.33137 24.3735 7.48479C24.3744 7.66945 24.3944 7.85335 24.4332 8.03275L23.9533 8.36949V8.33887C23.8827 8.06418 23.8453 7.77998 23.8422 7.49398C23.8422 6.85418 24.0482 6.3705 24.4196 6.12867C24.6313 6.01104 24.8672 5.96004 25.1024 5.98106C25.3376 6.00207 25.5634 6.09431 25.7561 6.24806C25.9837 6.39718 26.1902 6.58394 26.3688 6.80214C26.5074 6.96709 26.6343 7.14418 26.7483 7.33173C27.1292 7.95121 27.3447 8.68113 27.3691 9.43479Z" fill="#37474F"/>
<path id="Vector_36" d="M31.5656 6.70721C31.5659 6.84478 31.555 6.98209 31.5331 7.11741C31.5196 7.19088 31.506 7.25823 31.487 7.32863C31.4142 7.64122 31.2349 7.90861 30.9882 8.07251C30.8236 8.17989 30.636 8.23391 30.446 8.22863C30.3982 8.23168 30.3502 8.23168 30.3023 8.22863C30.2932 8.19677 30.2868 8.16396 30.2834 8.13068C30.2651 7.94893 30.2904 7.76498 30.3566 7.59802C30.4718 7.61957 30.5902 7.59695 30.6927 7.53374C30.7791 7.46373 30.8498 7.37193 30.8992 7.26565C30.9486 7.15936 30.9754 7.04151 30.9774 6.92149C30.9789 6.91445 30.9789 6.9071 30.9774 6.90006C30.9806 6.83378 30.9806 6.76736 30.9774 6.70108C30.952 6.05302 30.7556 5.42833 30.4135 4.9072C30.2976 4.71897 30.165 4.5446 30.0177 4.38679C29.8974 4.26116 29.7657 4.15033 29.6246 4.05618C29.5144 3.96477 29.3857 3.90619 29.2501 3.88586C29.1146 3.86553 28.9768 3.8841 28.8493 3.93985C28.7405 4.0346 28.6556 4.15999 28.6033 4.30345C28.551 4.44691 28.5329 4.6034 28.5511 4.7572C28.5535 4.94073 28.5735 5.12343 28.6107 5.3021L28.1092 5.63271V5.6021C28.0386 5.32741 28.0012 5.0432 27.998 4.7572C27.998 4.1174 28.2041 3.63067 28.5782 3.39189C28.9523 3.15312 29.424 3.18985 29.912 3.50822C30.1459 3.66343 30.358 3.85743 30.5409 4.08373C30.6797 4.24854 30.8066 4.42563 30.9204 4.61332C31.3093 5.22675 31.5333 5.95373 31.5656 6.70721Z" fill="#37474F"/>
<path id="Vector_37" d="M35.7404 3.98272C35.7407 4.12029 35.7298 4.2576 35.7079 4.39292C35.6966 4.4621 35.6821 4.53056 35.6645 4.59802C35.59 4.91292 35.4102 5.1829 35.163 5.35109C35.0018 5.45374 34.8194 5.50653 34.6344 5.50415H34.4934C34.4842 5.47229 34.4778 5.43947 34.4744 5.40619C34.4566 5.22445 34.4818 5.04062 34.5476 4.87353C34.6629 4.89348 34.7807 4.87094 34.8838 4.80925C34.9675 4.73747 35.0355 4.64493 35.0825 4.53878C35.1295 4.43262 35.1542 4.31569 35.1549 4.197C35.1561 4.19096 35.1561 4.18467 35.1549 4.17863C35.1593 4.11138 35.1593 4.04384 35.1549 3.97659C35.1299 3.32893 34.9345 2.70437 34.5937 2.18271C34.4769 1.99532 34.3433 1.82197 34.1952 1.66537C34.0766 1.53786 33.9457 1.42592 33.8048 1.33169C33.6946 1.24028 33.5659 1.1817 33.4303 1.16137C33.2948 1.14104 33.157 1.15961 33.0295 1.21537C32.9207 1.31011 32.8358 1.4355 32.7835 1.57897C32.7312 1.72243 32.7131 1.87891 32.7313 2.03271C32.7322 2.21737 32.7522 2.40127 32.7909 2.58067L32.2867 2.90823V2.87761C32.2161 2.60292 32.1787 2.31872 32.1755 2.03271C32.1755 1.39292 32.3816 0.90924 32.753 0.667403C32.9646 0.54998 33.2002 0.498832 33.4353 0.519293C33.6704 0.539754 33.8963 0.631076 34.0895 0.783731C34.3154 0.934129 34.5209 1.12077 34.6994 1.33781C34.8397 1.50226 34.9667 1.68052 35.079 1.87047C35.4769 2.48676 35.7068 3.22091 35.7404 3.98272Z" fill="#37474F"/>
<path id="Vector_38" d="M7.82594 31.7695L39.4707 11.1552L38.7849 5.70312L7.13464 26.3205L7.82594 31.7695Z" fill="#4758B9"/>
<g id="Group_2" opacity="0.65">
<path id="Vector_39" d="M7.82594 31.7695L39.4707 11.1552L38.7849 5.70312L7.13464 26.3205L7.82594 31.7695Z" fill="white"/>
</g>
<path id="Vector_40" d="M10.32 33.092C10.3607 33.3981 10.6074 33.4961 10.8622 33.3216L13.237 31.791C13.3684 31.7033 13.4761 31.577 13.5487 31.4254C13.6213 31.2739 13.656 31.1029 13.6491 30.9308C13.6111 30.6246 13.3644 30.5267 13.1069 30.7012L10.7321 32.2318C10.6009 32.3197 10.4933 32.4461 10.4208 32.5976C10.3482 32.7491 10.3134 32.9199 10.32 33.092Z" fill="#4758B9"/>
<path id="Vector_41" d="M14.3268 30.4807C14.3648 30.7868 14.6114 30.8848 14.869 30.7103L17.2438 29.1797C17.3758 29.0927 17.4843 28.9666 17.5574 28.8149C17.6305 28.6633 17.6655 28.492 17.6585 28.3195C17.6206 28.0134 17.3874 27.9154 17.1163 28.0899L14.7416 29.6205C14.6095 29.7075 14.501 29.8336 14.4279 29.9853C14.3548 30.1369 14.3198 30.3082 14.3268 30.4807Z" fill="#4758B9"/>
<path id="Vector_42" d="M18.3336 27.8695C18.3715 28.1756 18.6182 28.2735 18.8758 28.099L21.2505 26.5684C21.3823 26.4813 21.4904 26.355 21.5631 26.2034C21.6357 26.0517 21.6702 25.8804 21.6626 25.7082C21.6247 25.4021 21.378 25.3041 21.1204 25.4786L18.7456 27.0092C18.6141 27.0966 18.5061 27.2229 18.4335 27.3745C18.3609 27.5262 18.3263 27.6973 18.3336 27.8695Z" fill="#4758B9"/>
<path id="Vector_43" d="M22.3377 25.2582C22.3756 25.5644 22.6223 25.6623 22.8798 25.4878L25.2546 23.9388C25.3862 23.8522 25.4942 23.7265 25.5668 23.5754C25.6395 23.4242 25.674 23.2535 25.6667 23.0817C25.6287 22.7756 25.382 22.6776 25.1245 22.849L22.7606 24.398C22.6268 24.4835 22.5165 24.6091 22.4419 24.7609C22.3672 24.9127 22.3312 25.0848 22.3377 25.2582Z" fill="#4758B9"/>
<path id="Vector_44" d="M26.3443 22.644C26.3823 22.9501 26.6154 23.048 26.8865 22.8766L29.2613 21.3276C29.393 21.2409 29.5012 21.1152 29.5742 20.9642C29.6473 20.8132 29.6825 20.6425 29.6761 20.4705C29.6381 20.1644 29.3914 20.0664 29.1339 20.2378L26.7591 21.7868C26.6272 21.8733 26.5189 21.9989 26.4458 22.15C26.3726 22.3011 26.3376 22.4719 26.3443 22.644Z" fill="#4758B9"/>
<path id="Vector_45" d="M30.3511 20.0327C30.3891 20.3388 30.6358 20.4368 30.8933 20.2654L33.2681 18.7164C33.3997 18.629 33.5076 18.5027 33.5802 18.3511C33.6528 18.1995 33.6874 18.0283 33.6801 17.8562C33.6422 17.5501 33.3955 17.4521 33.138 17.6266L30.7632 19.1756C30.6318 19.2624 30.524 19.3882 30.4514 19.5393C30.3787 19.6904 30.3441 19.861 30.3511 20.0327Z" fill="#4758B9"/>
<path id="Vector_46" d="M34.3551 17.4215C34.3931 17.7276 34.6398 17.8256 34.8973 17.6511L37.2721 16.1205C37.4044 16.0338 37.513 15.9077 37.5862 15.756C37.6593 15.6043 37.6941 15.4328 37.6869 15.2603C37.6489 14.9542 37.4158 14.8562 37.1447 15.0307L34.7699 16.5797C34.6399 16.6647 34.5327 16.7878 34.4597 16.936C34.3867 17.0842 34.3506 17.252 34.3551 17.4215Z" fill="#4758B9"/>
<g id="Group_3" opacity="0.17">
<path id="Vector_47" d="M40.3273 33.1226C40.2971 33.1256 40.2669 33.1161 40.2425 33.0958C40.218 33.0755 40.201 33.0458 40.1945 33.0124L38.2589 17.7552C38.2577 17.739 38.2596 17.7228 38.2644 17.7075C38.2693 17.6923 38.277 17.6784 38.287 17.6668C38.297 17.6551 38.3092 17.6461 38.3226 17.6402C38.3359 17.6344 38.3503 17.6318 38.3646 17.6327C38.395 17.6308 38.425 17.6407 38.4496 17.6608C38.4743 17.6808 38.4921 17.7098 38.5002 17.7429L40.4331 33.0001C40.4342 33.0163 40.4323 33.0325 40.4275 33.0478C40.4226 33.063 40.4149 33.0769 40.4049 33.0886C40.3949 33.1002 40.3828 33.1092 40.3694 33.1151C40.356 33.1209 40.3417 33.1235 40.3273 33.1226Z" fill="#4758B9"/>
<path id="Vector_48" d="M36.3151 35.7368C36.2849 35.7398 36.2547 35.7303 36.2303 35.71C36.2058 35.6898 36.1888 35.6601 36.1823 35.6266L34.2467 20.3695C34.2455 20.3533 34.2474 20.337 34.2522 20.3218C34.2571 20.3065 34.2648 20.2926 34.2748 20.281C34.2848 20.2694 34.297 20.2604 34.3103 20.2545C34.3237 20.2486 34.3381 20.2461 34.3524 20.247C34.3826 20.244 34.4128 20.2535 34.4373 20.2738C34.4617 20.2941 34.4788 20.3237 34.4852 20.3572L36.4263 35.6144C36.4276 35.6311 36.4256 35.6479 36.4204 35.6637C36.4152 35.6794 36.407 35.6936 36.3964 35.7053C36.3858 35.7171 36.373 35.726 36.3589 35.7314C36.3448 35.7369 36.3299 35.7387 36.3151 35.7368Z" fill="#4758B9"/>
<path id="Vector_49" d="M32.3139 38.3481C32.2834 38.3506 32.2532 38.3409 32.2284 38.3208C32.2036 38.3006 32.1859 38.2713 32.1784 38.2379L30.2455 22.9807C30.2443 22.9648 30.2461 22.9488 30.2508 22.9338C30.2555 22.9188 30.263 22.905 30.2727 22.8935C30.2824 22.8819 30.2942 22.8728 30.3073 22.8667C30.3203 22.8607 30.3344 22.8578 30.3485 22.8583C30.379 22.8551 30.4096 22.8645 30.4345 22.8848C30.4594 22.905 30.477 22.9347 30.484 22.9685L32.4196 38.2256C32.4208 38.2418 32.4189 38.258 32.4141 38.2733C32.4092 38.2886 32.4015 38.3025 32.3915 38.3141C32.3815 38.3257 32.3694 38.3347 32.356 38.3406C32.3426 38.3465 32.3282 38.349 32.3139 38.3481Z" fill="#4758B9"/>
<path id="Vector_50" d="M28.307 40.9624C28.2762 40.9648 28.2456 40.9547 28.2208 40.9339C28.196 40.9132 28.1785 40.8831 28.1715 40.8491L26.2359 25.592C26.2351 25.5761 26.2373 25.5601 26.2423 25.5452C26.2474 25.5304 26.2551 25.5168 26.2651 25.5056C26.2751 25.4943 26.287 25.4855 26.3002 25.4799C26.3134 25.4742 26.3275 25.4717 26.3416 25.4726C26.3722 25.4694 26.4027 25.4789 26.4276 25.4991C26.4525 25.5193 26.4701 25.5491 26.4771 25.5828L28.41 40.84C28.4112 40.8558 28.4094 40.8718 28.4047 40.8869C28.4 40.9019 28.3925 40.9156 28.3828 40.9272C28.3731 40.9388 28.3613 40.9479 28.3482 40.9539C28.3352 40.96 28.3211 40.9629 28.307 40.9624Z" fill="#4758B9"/>
<path id="Vector_51" d="M24.3004 43.5736C24.2698 43.5767 24.2393 43.5673 24.2144 43.5471C24.1895 43.5268 24.1719 43.4971 24.1648 43.4634L22.2184 28.2062C22.2172 28.1901 22.2191 28.1738 22.2239 28.1585C22.2288 28.1433 22.2365 28.1294 22.2465 28.1178C22.2565 28.1062 22.2686 28.0971 22.282 28.0913C22.2954 28.0854 22.3098 28.0828 22.3241 28.0838C22.3545 28.0813 22.3848 28.0909 22.4096 28.1111C22.4344 28.1312 22.4521 28.1606 22.4596 28.194L24.3925 43.4511C24.3936 43.466 24.3921 43.481 24.3881 43.4952C24.3841 43.5095 24.3776 43.5226 24.369 43.534C24.3604 43.5454 24.35 43.5548 24.3382 43.5615C24.3264 43.5683 24.3135 43.5724 24.3004 43.5736Z" fill="#4758B9"/>
<path id="Vector_52" d="M20.2909 46.1879C20.2604 46.1901 20.2302 46.1799 20.2058 46.1591C20.1814 46.1383 20.1645 46.1083 20.158 46.0746L18.2224 30.8174C18.2224 30.7532 18.2604 30.7011 18.3281 30.6981C18.3584 30.695 18.3885 30.7046 18.413 30.7248C18.4374 30.7451 18.4545 30.7748 18.461 30.8083L20.3966 46.0654C20.3978 46.0816 20.3959 46.0978 20.391 46.1131C20.3862 46.1284 20.3785 46.1423 20.3684 46.1539C20.3584 46.1655 20.3463 46.1745 20.3329 46.1804C20.3195 46.1863 20.3052 46.1888 20.2909 46.1879Z" fill="#4758B9"/>
<path id="Vector_53" d="M16.2841 48.7991C16.2537 48.8016 16.2234 48.7919 16.1986 48.7718C16.1738 48.7516 16.1561 48.7223 16.1486 48.6889L14.2157 33.4317C14.2145 33.4156 14.2164 33.3993 14.2212 33.384C14.2261 33.3688 14.2338 33.3549 14.2438 33.3433C14.2538 33.3317 14.266 33.3226 14.2793 33.3168C14.2927 33.3109 14.3071 33.3083 14.3214 33.3093C14.3516 33.3062 14.3818 33.3158 14.4062 33.336C14.4307 33.3563 14.4478 33.386 14.4542 33.4195L16.3898 48.6766C16.391 48.6928 16.3891 48.709 16.3843 48.7243C16.3794 48.7396 16.3717 48.7535 16.3617 48.7651C16.3517 48.7767 16.3396 48.7857 16.3262 48.7916C16.3128 48.7975 16.2984 48.8 16.2841 48.7991Z" fill="#4758B9"/>
<path id="Vector_54" d="M12.2774 51.4103C12.2468 51.4135 12.2163 51.404 12.1914 51.3838C12.1665 51.3636 12.1489 51.3338 12.1418 51.3001L10.2062 36.043C10.2054 36.0269 10.2076 36.0109 10.2127 35.9958C10.2177 35.9808 10.2254 35.9671 10.2353 35.9556C10.2452 35.9441 10.2572 35.935 10.2704 35.929C10.2836 35.9229 10.2977 35.9201 10.3119 35.9205C10.3427 35.9181 10.3733 35.9282 10.3981 35.949C10.423 35.9697 10.4405 35.9998 10.4475 36.0338L12.3831 51.2909C12.3839 51.3068 12.3817 51.3228 12.3766 51.3377C12.3716 51.3525 12.3638 51.3661 12.3539 51.3773C12.3439 51.3886 12.3319 51.3974 12.3187 51.403C12.3055 51.4087 12.2914 51.4112 12.2774 51.4103Z" fill="#4758B9"/>
<path id="Vector_55" d="M10.8324 39.9675C10.8115 39.9698 10.7905 39.9663 10.7711 39.9572C10.7517 39.9481 10.7346 39.9338 10.7213 39.9154C10.7117 39.9042 10.7045 39.8906 10.7003 39.8758C10.6961 39.8609 10.695 39.8452 10.6971 39.8297C10.6992 39.8143 10.7044 39.7997 10.7124 39.7869C10.7203 39.7742 10.7308 39.7637 10.743 39.7562L38.7958 21.4654C38.8234 21.4493 38.855 21.4442 38.8854 21.4508C38.9159 21.4575 38.9436 21.4756 38.9638 21.5021C38.9734 21.5135 38.9804 21.5273 38.9844 21.5423C38.9884 21.5573 38.9892 21.5732 38.9869 21.5886C38.9845 21.604 38.979 21.6186 38.9707 21.6313C38.9625 21.6439 38.9518 21.6542 38.9394 21.6613L10.8839 39.9491C10.8683 39.9598 10.8507 39.9661 10.8324 39.9675Z" fill="#4758B9"/>
<path id="Vector_56" d="M11.3095 43.7817C11.2887 43.7833 11.2679 43.7794 11.2486 43.7704C11.2293 43.7614 11.2121 43.7475 11.1984 43.7297C11.1889 43.7183 11.1819 43.7045 11.1779 43.6895C11.1739 43.6745 11.173 43.6587 11.1754 43.6432C11.1777 43.6278 11.1833 43.6132 11.1915 43.6006C11.1997 43.5879 11.2104 43.5777 11.2228 43.5705L39.2729 25.2797C39.3009 25.2634 39.3329 25.2581 39.3639 25.2648C39.3948 25.2714 39.4229 25.2896 39.4437 25.3164C39.4527 25.3281 39.4593 25.3419 39.463 25.3568C39.4667 25.3717 39.4674 25.3873 39.465 25.4026C39.4627 25.4178 39.4574 25.4323 39.4494 25.4449C39.4415 25.4575 39.4312 25.468 39.4193 25.4756L11.3746 43.7634C11.3553 43.7773 11.3324 43.7838 11.3095 43.7817Z" fill="#4758B9"/>
<path id="Vector_57" d="M11.7921 47.5961C11.7713 47.5976 11.7504 47.5938 11.7311 47.5847C11.7118 47.5757 11.6947 47.5618 11.6809 47.544C11.6714 47.5323 11.6644 47.5183 11.6604 47.5031C11.6564 47.4879 11.6556 47.4718 11.6579 47.4561C11.6603 47.4405 11.6658 47.4256 11.674 47.4127C11.6822 47.3998 11.6929 47.3893 11.7053 47.3818L39.7581 29.094C39.7857 29.0779 39.8173 29.0728 39.8478 29.0794C39.8783 29.0861 39.9059 29.1042 39.9262 29.1307C39.9357 29.1421 39.9428 29.1559 39.9468 29.1709C39.9507 29.1859 39.9516 29.2018 39.9492 29.2172C39.9469 29.2326 39.9413 29.2472 39.9331 29.2599C39.9249 29.2725 39.9142 29.2828 39.9018 29.2899L11.8517 47.5777C11.8337 47.5898 11.8131 47.5961 11.7921 47.5961Z" fill="#4758B9"/>
<path id="Vector_58" d="M12.2774 51.4105C12.2569 51.4166 12.2355 51.4166 12.215 51.4105C12.1962 51.4031 12.1794 51.3901 12.1665 51.3729C12.1536 51.3557 12.1451 51.3348 12.1418 51.3126L10.2062 36.0554C10.2048 36.0346 10.2086 36.0138 10.2173 35.9954C10.2259 35.977 10.239 35.9617 10.255 35.9513L38.3051 17.6635C38.3241 17.653 38.345 17.6475 38.3661 17.6475C38.3873 17.6475 38.4081 17.653 38.4271 17.6635C38.4452 17.6714 38.4614 17.6842 38.4741 17.7007C38.4869 17.7173 38.4959 17.7371 38.5003 17.7584L40.4332 33.0156C40.4356 33.0362 40.4324 33.0571 40.4242 33.0756C40.416 33.0941 40.4031 33.1095 40.3871 33.1197L12.3343 51.3922C12.3174 51.4046 12.2976 51.411 12.2774 51.4105ZM10.4556 36.1044L12.3533 51.1044L40.1838 32.9605L38.2861 17.9605L10.4556 36.1044Z" fill="#4758B9"/>
</g>
<g id="Group_4" opacity="0.17">
<path id="Vector_59" d="M40.3273 33.1226C40.2971 33.1256 40.2669 33.1161 40.2425 33.0958C40.218 33.0755 40.201 33.0458 40.1945 33.0124L38.2589 17.7552C38.2577 17.739 38.2596 17.7228 38.2644 17.7075C38.2693 17.6923 38.277 17.6784 38.287 17.6668C38.297 17.6551 38.3092 17.6461 38.3226 17.6402C38.3359 17.6344 38.3503 17.6318 38.3646 17.6327C38.395 17.6308 38.425 17.6407 38.4496 17.6608C38.4743 17.6808 38.4921 17.7098 38.5002 17.7429L40.4331 33.0001C40.4342 33.0163 40.4323 33.0325 40.4275 33.0478C40.4226 33.063 40.4149 33.0769 40.4049 33.0886C40.3949 33.1002 40.3828 33.1092 40.3694 33.1151C40.356 33.1209 40.3417 33.1235 40.3273 33.1226Z" fill="#181E40"/>
<path id="Vector_60" d="M36.3151 35.7368C36.2849 35.7398 36.2547 35.7303 36.2303 35.71C36.2058 35.6898 36.1888 35.6601 36.1823 35.6266L34.2467 20.3695C34.2455 20.3533 34.2474 20.337 34.2522 20.3218C34.2571 20.3065 34.2648 20.2926 34.2748 20.281C34.2848 20.2694 34.297 20.2604 34.3103 20.2545C34.3237 20.2486 34.3381 20.2461 34.3524 20.247C34.3826 20.244 34.4128 20.2535 34.4373 20.2738C34.4617 20.2941 34.4788 20.3237 34.4852 20.3572L36.4263 35.6144C36.4276 35.6311 36.4256 35.6479 36.4204 35.6637C36.4152 35.6794 36.407 35.6936 36.3964 35.7053C36.3858 35.7171 36.373 35.726 36.3589 35.7314C36.3448 35.7369 36.3299 35.7387 36.3151 35.7368Z" fill="#181E40"/>
<path id="Vector_61" d="M32.3139 38.3481C32.2834 38.3506 32.2532 38.3409 32.2284 38.3208C32.2036 38.3006 32.1859 38.2713 32.1784 38.2379L30.2455 22.9807C30.2443 22.9648 30.2461 22.9488 30.2508 22.9338C30.2555 22.9188 30.263 22.905 30.2727 22.8935C30.2824 22.8819 30.2942 22.8728 30.3073 22.8667C30.3203 22.8607 30.3344 22.8578 30.3485 22.8583C30.379 22.8551 30.4096 22.8645 30.4345 22.8848C30.4594 22.905 30.477 22.9347 30.484 22.9685L32.4196 38.2256C32.4208 38.2418 32.4189 38.258 32.4141 38.2733C32.4092 38.2886 32.4015 38.3025 32.3915 38.3141C32.3815 38.3257 32.3694 38.3347 32.356 38.3406C32.3426 38.3465 32.3282 38.349 32.3139 38.3481Z" fill="#181E40"/>
<path id="Vector_62" d="M28.307 40.9624C28.2762 40.9648 28.2456 40.9547 28.2208 40.9339C28.196 40.9132 28.1785 40.8831 28.1715 40.8491L26.2359 25.592C26.2351 25.5761 26.2373 25.5601 26.2423 25.5452C26.2474 25.5304 26.2551 25.5168 26.2651 25.5056C26.2751 25.4943 26.287 25.4855 26.3002 25.4799C26.3134 25.4742 26.3275 25.4717 26.3416 25.4726C26.3722 25.4694 26.4027 25.4789 26.4276 25.4991C26.4525 25.5193 26.4701 25.5491 26.4771 25.5828L28.41 40.84C28.4112 40.8558 28.4094 40.8718 28.4047 40.8869C28.4 40.9019 28.3925 40.9156 28.3828 40.9272C28.3731 40.9388 28.3613 40.9479 28.3482 40.9539C28.3352 40.96 28.3211 40.9629 28.307 40.9624Z" fill="#181E40"/>
<path id="Vector_63" d="M24.3004 43.5736C24.2698 43.5767 24.2393 43.5673 24.2144 43.5471C24.1895 43.5268 24.1719 43.4971 24.1648 43.4634L22.2184 28.2062C22.2172 28.1901 22.2191 28.1738 22.2239 28.1585C22.2288 28.1433 22.2365 28.1294 22.2465 28.1178C22.2565 28.1062 22.2686 28.0971 22.282 28.0913C22.2954 28.0854 22.3098 28.0828 22.3241 28.0838C22.3545 28.0813 22.3848 28.0909 22.4096 28.1111C22.4344 28.1312 22.4521 28.1606 22.4596 28.194L24.3925 43.4511C24.3936 43.466 24.3921 43.481 24.3881 43.4952C24.3841 43.5095 24.3776 43.5226 24.369 43.534C24.3604 43.5454 24.35 43.5548 24.3382 43.5615C24.3264 43.5683 24.3135 43.5724 24.3004 43.5736Z" fill="#181E40"/>
<path id="Vector_64" d="M20.2909 46.1879C20.2604 46.1901 20.2302 46.1799 20.2058 46.1591C20.1814 46.1383 20.1645 46.1083 20.158 46.0746L18.2224 30.8174C18.2224 30.7532 18.2604 30.7011 18.3281 30.6981C18.3584 30.695 18.3885 30.7046 18.413 30.7248C18.4374 30.7451 18.4545 30.7748 18.461 30.8083L20.3966 46.0654C20.3978 46.0816 20.3959 46.0978 20.391 46.1131C20.3862 46.1284 20.3785 46.1423 20.3684 46.1539C20.3584 46.1655 20.3463 46.1745 20.3329 46.1804C20.3195 46.1863 20.3052 46.1888 20.2909 46.1879Z" fill="#181E40"/>
<path id="Vector_65" d="M16.2841 48.7991C16.2537 48.8016 16.2234 48.7919 16.1986 48.7718C16.1738 48.7516 16.1561 48.7223 16.1486 48.6889L14.2157 33.4317C14.2145 33.4156 14.2164 33.3993 14.2212 33.384C14.2261 33.3688 14.2338 33.3549 14.2438 33.3433C14.2538 33.3317 14.266 33.3226 14.2793 33.3168C14.2927 33.3109 14.3071 33.3083 14.3214 33.3093C14.3516 33.3062 14.3818 33.3158 14.4062 33.336C14.4307 33.3563 14.4478 33.386 14.4542 33.4195L16.3898 48.6766C16.391 48.6928 16.3891 48.709 16.3843 48.7243C16.3794 48.7396 16.3717 48.7535 16.3617 48.7651C16.3517 48.7767 16.3396 48.7857 16.3262 48.7916C16.3128 48.7975 16.2984 48.8 16.2841 48.7991Z" fill="#181E40"/>
<path id="Vector_66" d="M12.2774 51.4103C12.2468 51.4135 12.2163 51.404 12.1914 51.3838C12.1665 51.3636 12.1489 51.3338 12.1418 51.3001L10.2062 36.043C10.2054 36.0269 10.2076 36.0109 10.2127 35.9958C10.2177 35.9808 10.2254 35.9671 10.2353 35.9556C10.2452 35.9441 10.2572 35.935 10.2704 35.929C10.2836 35.9229 10.2977 35.9201 10.3119 35.9205C10.3427 35.9181 10.3733 35.9282 10.3981 35.949C10.423 35.9697 10.4405 35.9998 10.4475 36.0338L12.3831 51.2909C12.3839 51.3068 12.3817 51.3228 12.3766 51.3377C12.3716 51.3525 12.3638 51.3661 12.3539 51.3773C12.3439 51.3886 12.3319 51.3974 12.3187 51.403C12.3055 51.4087 12.2914 51.4112 12.2774 51.4103Z" fill="#181E40"/>
<path id="Vector_67" d="M10.8324 39.9675C10.8115 39.9698 10.7905 39.9663 10.7711 39.9572C10.7517 39.9481 10.7346 39.9338 10.7213 39.9154C10.7117 39.9042 10.7045 39.8906 10.7003 39.8758C10.6961 39.8609 10.695 39.8452 10.6971 39.8297C10.6992 39.8143 10.7044 39.7997 10.7124 39.7869C10.7203 39.7742 10.7308 39.7637 10.743 39.7562L38.7958 21.4654C38.8234 21.4493 38.855 21.4442 38.8854 21.4508C38.9159 21.4575 38.9436 21.4756 38.9638 21.5021C38.9734 21.5135 38.9804 21.5273 38.9844 21.5423C38.9884 21.5573 38.9892 21.5732 38.9869 21.5886C38.9845 21.604 38.979 21.6186 38.9707 21.6313C38.9625 21.6439 38.9518 21.6542 38.9394 21.6613L10.8839 39.9491C10.8683 39.9598 10.8507 39.9661 10.8324 39.9675Z" fill="#181E40"/>
<path id="Vector_68" d="M11.3095 43.7817C11.2887 43.7833 11.2679 43.7794 11.2486 43.7704C11.2293 43.7614 11.2121 43.7475 11.1984 43.7297C11.1889 43.7183 11.1819 43.7045 11.1779 43.6895C11.1739 43.6745 11.173 43.6587 11.1754 43.6432C11.1777 43.6278 11.1833 43.6132 11.1915 43.6006C11.1997 43.5879 11.2104 43.5777 11.2228 43.5705L39.2729 25.2797C39.3009 25.2634 39.3329 25.2581 39.3639 25.2648C39.3948 25.2714 39.4229 25.2896 39.4437 25.3164C39.4527 25.3281 39.4593 25.3419 39.463 25.3568C39.4667 25.3717 39.4674 25.3873 39.465 25.4026C39.4627 25.4178 39.4574 25.4323 39.4494 25.4449C39.4415 25.4575 39.4312 25.468 39.4193 25.4756L11.3746 43.7634C11.3553 43.7773 11.3324 43.7838 11.3095 43.7817Z" fill="#181E40"/>
<path id="Vector_69" d="M11.7921 47.5961C11.7713 47.5976 11.7504 47.5938 11.7311 47.5847C11.7118 47.5757 11.6947 47.5618 11.6809 47.544C11.6714 47.5323 11.6644 47.5183 11.6604 47.5031C11.6564 47.4879 11.6556 47.4718 11.6579 47.4561C11.6603 47.4405 11.6658 47.4256 11.674 47.4127C11.6822 47.3998 11.6929 47.3893 11.7053 47.3818L39.7581 29.094C39.7857 29.0779 39.8173 29.0728 39.8478 29.0794C39.8783 29.0861 39.9059 29.1042 39.9262 29.1307C39.9357 29.1421 39.9428 29.1559 39.9468 29.1709C39.9507 29.1859 39.9516 29.2018 39.9492 29.2172C39.9469 29.2326 39.9413 29.2472 39.9331 29.2599C39.9249 29.2725 39.9142 29.2828 39.9018 29.2899L11.8517 47.5777C11.8337 47.5898 11.8131 47.5961 11.7921 47.5961Z" fill="#181E40"/>
<path id="Vector_70" d="M12.2774 51.4105C12.2569 51.4166 12.2355 51.4166 12.215 51.4105C12.1962 51.4031 12.1794 51.3901 12.1665 51.3729C12.1536 51.3557 12.1451 51.3348 12.1418 51.3126L10.2062 36.0554C10.2048 36.0346 10.2086 36.0138 10.2173 35.9954C10.2259 35.977 10.239 35.9617 10.255 35.9513L38.3051 17.6635C38.3241 17.653 38.345 17.6475 38.3661 17.6475C38.3873 17.6475 38.4081 17.653 38.4271 17.6635C38.4452 17.6714 38.4614 17.6842 38.4741 17.7007C38.4869 17.7173 38.4959 17.7371 38.5003 17.7584L40.4332 33.0156C40.4356 33.0362 40.4324 33.0571 40.4242 33.0756C40.416 33.0941 40.4031 33.1095 40.3871 33.1197L12.3343 51.3922C12.3174 51.4046 12.2976 51.411 12.2774 51.4105ZM10.4556 36.1044L12.3533 51.1044L40.1838 32.9605L38.2861 17.9605L10.4556 36.1044Z" fill="#181E40"/>
</g>
</g>
<path id="Vector_71" d="M19.2987 21.8021C19.2992 21.9931 19.2783 22.1834 19.2364 22.3684C19.1984 22.5393 19.141 22.704 19.0656 22.8582C18.9986 23.001 18.9147 23.1329 18.8162 23.2501C18.7279 23.3546 18.6276 23.4452 18.518 23.5195C18.4232 23.5862 18.3169 23.629 18.2062 23.645C18.1217 23.6565 18.0362 23.6372 17.9622 23.5899C17.8868 23.5346 17.8297 23.4528 17.7996 23.3572C17.7562 23.2282 17.7351 23.0911 17.7372 22.9531C17.7374 22.9246 17.7429 22.8964 17.7535 22.8705C17.761 22.8474 17.7754 22.8279 17.7941 22.8154L18.1303 22.595C18.1628 22.5735 18.1845 22.5705 18.1954 22.5797C18.2118 22.6051 18.2229 22.6344 18.2279 22.6654C18.2323 22.7002 18.2433 22.7335 18.2601 22.7631C18.277 22.7927 18.2993 22.8178 18.3255 22.8368C18.3689 22.8613 18.4339 22.8368 18.518 22.7909C18.616 22.7257 18.6944 22.6286 18.743 22.5123C18.7945 22.3793 18.8194 22.235 18.8162 22.0899V20.8164L17.9215 21.4011C17.9143 21.4078 17.9052 21.4115 17.8958 21.4115C17.8864 21.4115 17.8773 21.4078 17.87 21.4011C17.8554 21.3804 17.8486 21.354 17.8511 21.3276V20.844C17.8508 20.8101 17.8573 20.7766 17.87 20.746C17.8805 20.7172 17.8984 20.6926 17.9215 20.6756L19.2364 19.8184C19.2432 19.812 19.2518 19.8084 19.2608 19.8084C19.2697 19.8084 19.2783 19.812 19.2851 19.8184C19.2934 19.828 19.2997 19.8396 19.3035 19.8524C19.3072 19.8651 19.3084 19.8786 19.3068 19.8919L19.2987 21.8021Z" fill="#455A64"/>
<path id="Vector_72" d="M19.6456 22.0654C19.646 21.861 19.6917 21.66 19.7785 21.4807C19.889 21.2619 20.0353 21.0687 20.2095 20.9113L20.5158 20.6205C20.5209 20.5653 20.5084 20.51 20.4806 20.4643C20.4589 20.4307 20.4182 20.4337 20.364 20.4643C20.3274 20.4864 20.2951 20.5166 20.2691 20.5531C20.2522 20.5806 20.2368 20.6092 20.2231 20.6388C20.2108 20.6656 20.1953 20.6903 20.177 20.7123C20.1625 20.729 20.1461 20.7434 20.1282 20.7552L19.7947 20.9725C19.7882 20.9771 19.7807 20.9796 19.773 20.9796C19.7654 20.9796 19.7578 20.9771 19.7514 20.9725C19.7472 20.9624 19.7451 20.9515 19.7451 20.9404C19.7451 20.9293 19.7472 20.9183 19.7514 20.9082C19.7566 20.822 19.774 20.7372 19.8029 20.6572C19.8375 20.5507 19.8811 20.4482 19.933 20.3511C19.9898 20.2483 20.0551 20.152 20.1282 20.0633C20.2015 19.9759 20.2855 19.9006 20.3776 19.8399C20.4593 19.7796 20.5519 19.7409 20.6487 19.7266C20.7183 19.7177 20.7882 19.7397 20.8439 19.7878C20.9005 19.8443 20.9403 19.9191 20.9577 20.0021C20.9847 20.1138 20.9974 20.2292 20.9957 20.345V21.7256C20.9953 21.7597 20.9878 21.7932 20.974 21.8235C20.9644 21.8521 20.9474 21.8766 20.9252 21.8939L20.5945 22.1082C20.5876 22.1147 20.579 22.1183 20.5701 22.1183C20.5611 22.1183 20.5525 22.1147 20.5457 22.1082C20.5379 22.0982 20.5321 22.0865 20.5283 22.0739C20.5246 22.0613 20.5231 22.048 20.524 22.0348V21.9092C20.4822 22.0178 20.4295 22.1205 20.3667 22.2154C20.2997 22.3119 20.2169 22.3929 20.1227 22.4541C20.0622 22.4973 19.9935 22.5235 19.9221 22.5307C19.869 22.5332 19.8169 22.5136 19.7757 22.4756C19.732 22.43 19.7001 22.3718 19.6836 22.3072C19.6621 22.2287 19.6493 22.1474 19.6456 22.0654ZM20.242 21.7776C20.2842 21.7518 20.3211 21.7164 20.3505 21.6735C20.3846 21.6276 20.4137 21.5773 20.4372 21.5235C20.4618 21.4679 20.4809 21.4094 20.4942 21.349C20.5077 21.289 20.5149 21.2273 20.5158 21.1654L20.2746 21.3858C20.2301 21.429 20.1917 21.4796 20.1607 21.5358C20.1324 21.5872 20.1173 21.6466 20.1173 21.7072C20.1173 21.7654 20.1173 21.796 20.1499 21.8052C20.1824 21.8143 20.2014 21.8052 20.242 21.7776Z" fill="#455A64"/>
<path id="Vector_73" d="M22.8065 20.5532C22.8071 20.5884 22.7996 20.6232 22.7849 20.6542C22.7753 20.6827 22.7583 20.7073 22.7361 20.7246L22.4053 20.9389C22.3985 20.9454 22.3898 20.9489 22.3809 20.9489C22.372 20.9489 22.3634 20.9454 22.3565 20.9389C22.3488 20.9289 22.3429 20.9172 22.3392 20.9046C22.3355 20.892 22.334 20.8787 22.3348 20.8654V19.696C22.3418 19.5991 22.3229 19.5021 22.2806 19.4175C22.2427 19.3624 22.1857 19.3624 22.1071 19.4175C22.0277 19.4699 21.9672 19.5523 21.9363 19.6501C21.8977 19.7611 21.8792 19.8798 21.8821 19.9991V21.1501C21.8814 21.1852 21.874 21.2196 21.8604 21.2511C21.8509 21.2797 21.8338 21.3042 21.8116 21.3215L21.4809 21.5358C21.4736 21.5425 21.4645 21.5462 21.4551 21.5462C21.4457 21.5462 21.4366 21.5425 21.4294 21.5358C21.4148 21.5151 21.4079 21.4887 21.4104 21.4624V19.3379C21.4101 19.303 21.4166 19.2686 21.4294 19.2368C21.4407 19.2094 21.4585 19.1861 21.4809 19.1695L21.7981 18.9613C21.8049 18.9549 21.8135 18.9513 21.8225 18.9513C21.8314 18.9513 21.84 18.9549 21.8469 18.9613C21.8546 18.9707 21.8606 18.9818 21.8643 18.9939C21.8681 19.0061 21.8695 19.0189 21.8686 19.0317V19.1389C21.8821 19.0991 21.9011 19.0562 21.9201 19.0073C21.9424 18.9593 21.9678 18.9133 21.996 18.8695C22.0273 18.8227 22.0617 18.7787 22.099 18.7379C22.1411 18.6943 22.1875 18.6563 22.2372 18.6246C22.3067 18.5747 22.3857 18.5443 22.4677 18.5358C22.5006 18.5323 22.5339 18.5368 22.5652 18.5489C22.5965 18.5611 22.6252 18.5806 22.6493 18.6062C22.7064 18.6762 22.7465 18.7616 22.7659 18.8542C22.7961 18.9975 22.8097 19.1447 22.8065 19.2919V20.5532Z" fill="#455A64"/>
<path id="Vector_74" d="M23.2159 18.1654C23.217 18.1314 23.2244 18.098 23.2376 18.0675C23.2472 18.0389 23.2642 18.0144 23.2864 17.997L23.6171 17.7828C23.624 17.7763 23.6326 17.7727 23.6415 17.7727C23.6505 17.7727 23.6591 17.7763 23.6659 17.7828C23.6737 17.7928 23.6795 17.8044 23.6833 17.8171C23.687 17.8297 23.6885 17.843 23.6876 17.8562V19.0103C23.6815 19.1074 23.6983 19.2046 23.7364 19.2919C23.7717 19.3501 23.8259 19.3532 23.9018 19.2919C23.9793 19.2428 24.0381 19.1633 24.0672 19.0685C24.1011 18.9572 24.1176 18.8402 24.116 18.7226V17.5685C24.1157 17.5336 24.1222 17.4992 24.1349 17.4675C24.1454 17.4394 24.1634 17.4158 24.1864 17.4001L24.5172 17.1828C24.524 17.1763 24.5327 17.1727 24.5416 17.1727C24.5505 17.1727 24.5591 17.1763 24.566 17.1828C24.5811 17.2021 24.5889 17.2274 24.5877 17.2532V19.3899C24.5869 19.4249 24.5795 19.4594 24.566 19.4909C24.5557 19.519 24.5389 19.5434 24.5172 19.5613L24.2108 19.7573C24.204 19.7637 24.1954 19.7673 24.1864 19.7673C24.1775 19.7673 24.1689 19.7637 24.162 19.7573C24.1543 19.7472 24.1484 19.7356 24.1447 19.723C24.141 19.7104 24.1395 19.697 24.1404 19.6838V19.5797C24.1261 19.625 24.1089 19.669 24.0888 19.7113C24.0685 19.7589 24.0439 19.804 24.0157 19.846C23.9843 19.8928 23.9499 19.9368 23.9126 19.9777C23.8695 20.022 23.8222 20.061 23.7717 20.094C23.6009 20.2042 23.468 20.2103 23.3677 20.094C23.2396 19.8955 23.1851 19.6484 23.2159 19.4052V18.1654Z" fill="#455A64"/>
<path id="Vector_75" d="M24.9293 18.6154C24.9309 18.4122 24.9765 18.2125 25.0622 18.0338C25.1738 17.8158 25.3199 17.6228 25.4932 17.4644L25.7995 17.1583C25.8039 17.1036 25.7925 17.0488 25.767 17.0021C25.7426 16.9685 25.7046 16.9715 25.6477 17.0021C25.6115 17.0235 25.5799 17.0538 25.5555 17.0909C25.5379 17.1184 25.5216 17.1471 25.5068 17.1766C25.4952 17.2032 25.4807 17.2279 25.4634 17.2501C25.4479 17.2668 25.4306 17.2812 25.4119 17.293L25.0784 17.5103C25.0719 17.5149 25.0644 17.5174 25.0567 17.5174C25.0491 17.5174 25.0415 17.5149 25.0351 17.5103C25.0282 17.4896 25.0282 17.4667 25.0351 17.446C25.0413 17.3586 25.0596 17.2729 25.0893 17.1919C25.1222 17.0852 25.1649 16.9825 25.2167 16.8858C25.2753 16.7837 25.3415 16.6875 25.4146 16.5981C25.4864 16.51 25.5696 16.4347 25.6613 16.3746C25.7433 16.3151 25.8358 16.2764 25.9324 16.2613C26.002 16.2525 26.0719 16.2744 26.1276 16.3225C26.1842 16.379 26.224 16.4538 26.2414 16.5368C26.2684 16.6485 26.2811 16.7639 26.2794 16.8797V18.2603C26.279 18.2944 26.2715 18.3279 26.2577 18.3583C26.2481 18.3877 26.2299 18.4125 26.2062 18.4287L25.8782 18.643C25.8565 18.643 25.8402 18.643 25.8266 18.643C25.8189 18.6329 25.813 18.6213 25.8093 18.6087C25.8056 18.5961 25.8041 18.5827 25.805 18.5695V18.4715C25.7652 18.5806 25.7132 18.6834 25.6504 18.7776C25.5833 18.8752 25.4994 18.9564 25.4037 19.0164C25.3434 19.06 25.2745 19.0863 25.2031 19.093C25.1501 19.0944 25.0984 19.0749 25.0567 19.0379C25.0147 18.9912 24.984 18.9333 24.9673 18.8695C24.9437 18.7873 24.9309 18.7017 24.9293 18.6154ZM25.5284 18.3307C25.5693 18.304 25.6051 18.2686 25.6342 18.2266C25.6692 18.1815 25.6984 18.131 25.7209 18.0766C25.7452 18.0205 25.7652 17.9621 25.7806 17.9021C25.7934 17.841 25.7998 17.7783 25.7995 17.7154L25.5583 17.9389C25.5138 17.9821 25.4754 18.0327 25.4444 18.0889C25.4173 18.1409 25.4023 18.1999 25.401 18.2603C25.401 18.3154 25.401 18.3491 25.4336 18.3583C25.4506 18.362 25.4682 18.3614 25.4851 18.3567C25.5019 18.3519 25.5176 18.343 25.5312 18.3307H25.5284Z" fill="#455A64"/>
<path id="Vector_76" d="M27.6401 15.15C27.647 15.1436 27.6556 15.14 27.6645 15.14C27.6734 15.14 27.6821 15.1436 27.6889 15.15C27.7052 15.15 27.7106 15.1868 27.7106 15.2205V15.6827C27.7115 15.717 27.704 15.7509 27.6889 15.7807C27.6794 15.8092 27.6624 15.8337 27.6401 15.8511L27.4016 16.0072C27.3185 16.0689 27.252 16.1552 27.2095 16.2567C27.1669 16.3582 27.1499 16.471 27.1603 16.5827V17.7031C27.1606 17.7379 27.1541 17.7724 27.1413 17.8041C27.13 17.8324 27.1122 17.8567 27.0898 17.8745L26.7591 18.0888C26.7522 18.0953 26.7436 18.0989 26.7347 18.0989C26.7257 18.0989 26.7171 18.0953 26.7103 18.0888C26.7026 18.0788 26.6967 18.0671 26.693 18.0545C26.6892 18.0419 26.6877 18.0286 26.6886 18.0154V15.8909C26.6893 15.8558 26.6967 15.8214 26.7103 15.7898C26.7198 15.7621 26.7369 15.7386 26.7591 15.7225L27.0627 15.5235C27.0844 15.5235 27.1006 15.5235 27.1142 15.5235C27.1219 15.5335 27.1278 15.5452 27.1315 15.5578C27.1352 15.5704 27.1367 15.5837 27.1359 15.597V15.7164C27.1744 15.6244 27.2226 15.5381 27.2796 15.4592C27.3355 15.3797 27.4045 15.3131 27.4829 15.2633L27.6401 15.15Z" fill="#455A64"/>
<path id="Vector_77" d="M28.7408 17.5531C28.7348 17.5834 28.7267 17.6131 28.7165 17.6419C28.7062 17.6709 28.6882 17.6955 28.6649 17.7123L28.3234 17.9358C28.317 17.942 28.3088 17.9455 28.3003 17.9455C28.2919 17.9455 28.2837 17.942 28.2773 17.9358C28.2638 17.9168 28.257 17.8928 28.2583 17.8684C28.2583 17.8684 28.2583 17.847 28.2583 17.8348L28.4589 16.8888L27.933 15.1042C27.9315 15.094 27.9315 15.0837 27.933 15.0735C27.9331 15.043 27.9387 15.0128 27.9493 14.9848C27.9594 14.96 27.9753 14.9388 27.9953 14.9235L28.3369 14.7001C28.3439 14.6928 28.3531 14.6887 28.3627 14.6887C28.3722 14.6887 28.3814 14.6928 28.3884 14.7001C28.4001 14.7177 28.4092 14.7374 28.4155 14.7582L28.7056 15.7531L28.993 14.3786C28.9987 14.3479 29.0078 14.3181 29.0201 14.2899C29.0295 14.2612 29.0465 14.2366 29.0689 14.2195L29.4159 13.996C29.4218 13.99 29.4296 13.9866 29.4376 13.9866C29.4456 13.9866 29.4533 13.99 29.4592 13.996C29.4663 14.0051 29.4717 14.0159 29.4749 14.0274C29.4782 14.039 29.4793 14.0512 29.4782 14.0633C29.4796 14.0745 29.4796 14.0858 29.4782 14.097L28.7408 17.5531Z" fill="#455A64"/>
<path id="Vector_78" d="M37.104 23.8623L37.3399 24.2388C37.3465 24.25 37.3563 24.2582 37.3677 24.2621C37.379 24.266 37.3913 24.2654 37.4022 24.2603L37.8007 24.0858C37.8631 24.0582 37.901 24.147 37.8658 24.2358L37.6327 24.7991C37.621 24.8335 37.621 24.8717 37.6327 24.9062L37.7682 25.3991C37.7899 25.4786 37.733 25.5858 37.6733 25.5827L37.2938 25.5552C37.2795 25.5552 37.2655 25.5594 37.2531 25.5675C37.2407 25.5755 37.2305 25.5871 37.2233 25.6011L36.9088 26.0786C36.8573 26.1552 36.7869 26.1337 36.7841 26.0419V25.4603C36.7853 25.4446 36.7826 25.4289 36.7764 25.4149C36.7702 25.4009 36.7607 25.389 36.7489 25.3807L36.4209 25.1848C36.3694 25.1542 36.3802 25.0317 36.4399 24.9797L36.8194 24.646C36.8438 24.6219 36.8608 24.5898 36.8682 24.5542L36.9793 23.9419C36.9848 23.8562 37.0661 23.8042 37.104 23.8623Z" fill="#F28F8F"/>
<path id="Vector_79" d="M39.4165 23.7155C39.3774 23.4125 39.2601 23.1293 39.0793 22.9012C38.8985 22.6731 38.6622 22.5102 38.3999 22.4328C37.6409 22.2154 37.1041 22.8032 36.711 23.293C36.608 23.4246 36.8303 23.4736 36.9143 23.3818C37.3264 22.9318 38.137 22.4634 38.7117 23.0144C39.2864 23.5654 39.1319 24.4134 38.9557 25.0471C38.7877 25.6454 38.4554 26.1678 38.0071 26.5387C37.5587 26.9096 37.0174 27.1098 36.4616 27.1104C33.7236 27.0399 36.0712 22.2828 37.6436 21.9461C37.771 21.9185 37.8361 21.7195 37.6598 21.7012C36.8466 21.6093 36.3477 22.3348 35.9086 22.8859C35.4254 23.4736 35.0675 24.1783 34.8622 24.9461C34.5016 26.3665 35.5155 28.041 37.2017 27.4165C38.6792 26.8685 39.712 25.3287 39.4165 23.7155Z" fill="#F28F8F"/>
<path id="Vector_80" d="M20.0252 40.5307C19.9861 40.2278 19.8688 39.9446 19.688 39.7165C19.5072 39.4884 19.2709 39.3254 19.0086 39.248C18.2495 39.0307 17.7127 39.6154 17.3197 40.1082C17.2166 40.2368 17.4389 40.2858 17.523 40.197C17.935 39.747 18.7456 39.2787 19.3203 39.8297C19.8951 40.3807 19.7405 41.2287 19.5643 41.8623C19.3963 42.4606 19.0641 42.983 18.6157 43.3539C18.1673 43.7249 17.6261 43.9251 17.0703 43.9256C14.3322 43.8552 16.6799 39.098 18.2522 38.7613C18.3796 38.7338 18.4447 38.5348 18.2685 38.5133C17.4552 38.4246 16.9564 39.1501 16.5172 39.7011C16.0335 40.2884 15.6755 40.9932 15.4708 41.7613C15.1102 43.1787 16.1241 44.8562 17.8103 44.2317C19.2878 43.6838 20.3207 42.1409 20.0252 40.5307Z" fill="#F28F8F"/>
</g>
</g>
</svg>
