<svg width="50" height="50" viewBox="0 0 50 50" fill="none" xmlns="http://www.w3.org/2000/svg">
<g id="iconoir:user">
<path id="Vector" d="M10.4167 41.6667V39.5834C10.4167 35.7156 11.9531 32.0063 14.688 29.2714C17.4229 26.5365 21.1323 25 25 25M25 25C28.8677 25 32.5771 26.5365 35.312 29.2714C38.0469 32.0063 39.5833 35.7156 39.5833 39.5834V41.6667M25 25C27.2101 25 29.3298 24.1221 30.8926 22.5593C32.4554 20.9965 33.3333 18.8768 33.3333 16.6667C33.3333 14.4566 32.4554 12.337 30.8926 10.7742C29.3298 9.21135 27.2101 8.33337 25 8.33337C22.7899 8.33337 20.6702 9.21135 19.1074 10.7742C17.5446 12.337 16.6667 14.4566 16.6667 16.6667C16.6667 18.8768 17.5446 20.9965 19.1074 22.5593C20.6702 24.1221 22.7899 25 25 25Z" stroke="white" stroke-opacity="0.6" stroke-width="1.5" stroke-linecap="round" stroke-linejoin="round"/>
</g>
</svg>
