<svg width="137" height="138" viewBox="0 0 137 138" fill="none" xmlns="http://www.w3.org/2000/svg">
<g id="MSU_2 1">
<g id="Group">
<path id="Vector" d="M60.2149 45.3984C60.1394 45.3293 60.1772 45.1908 60.2904 45.1563L61.4981 44.9487C61.5358 44.9487 61.5737 44.914 61.6113 44.8795L62.1774 43.8762C62.2529 43.7724 62.404 43.7724 62.4416 43.8762L63.0456 44.8448C63.0833 44.8795 63.1209 44.914 63.1588 44.914L64.3665 45.1216C64.4797 45.1563 64.5173 45.2601 64.4418 45.3639L63.6117 46.1943C63.5738 46.2288 63.5738 46.2634 63.5738 46.2979L63.7249 47.4051C63.7249 47.5089 63.6117 47.6127 63.4983 47.5435L62.3661 47.0591C62.3285 47.0245 62.2906 47.0245 62.2529 47.0591L61.1584 47.5435C61.0452 47.578 60.932 47.5089 60.932 47.4051L61.0831 46.2979C61.0831 46.2634 61.0831 46.2288 61.0452 46.1943L60.2149 45.3984ZM46.8547 78.1624C46.7792 77.8512 46.5152 77.6435 46.0999 77.5744C46.2886 77.1938 46.5905 76.4326 46.1754 75.879C45.8357 75.3948 45.1564 75.5331 44.8167 75.6022C44.7035 75.3601 44.4771 74.9103 44.0619 74.7027C43.7978 74.5644 43.4958 74.5644 43.1562 74.7027C42.8542 74.8412 42.6278 75.0142 42.5146 75.3254C42.3636 75.7407 42.5146 76.2596 42.6278 76.5017C42.3259 76.6749 41.722 77.0553 41.8353 77.6089C41.9485 78.3009 42.7033 78.6468 43.1184 78.7853C42.892 79.0966 42.8542 79.408 43.0052 79.6848C43.2317 80.0654 43.7978 80.2384 44.0997 80.3076C44.0997 80.3076 44.0997 80.3076 44.1374 80.3076C44.1374 80.446 44.93 81.8644 45.9867 81.4494C47.0434 81.0341 46.6283 79.4772 46.5152 79.3734C46.5152 79.3734 46.5152 79.3734 46.5152 79.3389C46.7039 79.0621 46.9679 78.6122 46.8547 78.1624ZM59.6866 63.8045L59.6488 58.7532H61.0452C61.0452 58.7532 61.0452 56.1583 61.0076 55.5701C61.0076 54.8436 62.0642 54.7053 62.0642 54.7053L61.8379 53.6673L62.2529 48.6852C62.2529 48.6507 62.2906 48.616 62.3285 48.616C62.3661 48.616 62.404 48.6507 62.404 48.6852L62.9322 53.6328L62.7059 54.6706C62.7059 54.6706 63.8004 54.8091 63.8004 55.5356C63.8004 56.1237 63.838 58.7185 63.838 58.7185H65.2345L65.2721 63.7698L68.0273 65.0154L68.065 71.3468L74.9715 71.3121L76.3303 70.032V67.5063L77.6888 66.2262H79.0853L80.4817 67.4718L80.5195 73.3188C80.4817 73.3535 80.444 73.3535 80.4062 73.388C80.0666 73.5609 79.7645 73.8032 79.5382 74.08C78.7834 74.1145 78.1417 74.4606 77.7643 75.0142C77.3869 75.5331 77.2738 76.1905 77.3869 76.8823C77.1606 77.1246 77.0095 77.4014 76.934 77.7127C76.8585 77.955 76.8585 78.1971 76.8964 78.4392C76.7453 78.3701 76.5566 78.3356 76.3679 78.3009L76.3303 73.8032H74.9338L74.9715 78.4739C74.632 78.6122 74.3677 78.7853 74.1412 79.0274C74.1035 79.0274 74.028 79.0274 73.9903 79.0274C73.8393 79.0274 73.7261 79.0275 73.5751 79.0621L73.5374 73.8377H72.141L72.1787 79.8231C71.8013 80.2729 71.6126 80.8265 71.6126 81.4494L66.6686 81.4838L66.6309 76.4326V75.1525H65.2345H63.8004C63.8004 75.1525 64.5173 74.7719 65.0081 73.215C65.0458 73.042 64.8947 72.9037 64.7439 72.9729C63.7625 73.3188 62.4416 72.3846 62.4416 72.3846C62.4416 72.3846 61.1207 73.3188 60.1394 73.0075C59.9885 72.9382 59.7998 73.1112 59.8754 73.2496C60.4036 74.8065 61.1207 75.1525 61.1207 75.1525H59.6866H58.2902V76.4326L58.3279 81.4838L53.3839 81.5185C53.3839 80.8958 53.1952 80.3422 52.7801 79.8925L52.7423 73.907H51.3458L51.3837 79.1313C51.2705 79.0966 51.1195 79.0966 50.9684 79.0966C50.9308 79.0966 50.8553 79.0966 50.8176 79.0966C50.591 78.889 50.3268 78.716 49.9873 78.5777L49.9494 73.907H48.553L48.5909 78.4047C48.4022 78.4392 48.2511 78.4739 48.0624 78.543C48.1003 78.3009 48.0624 78.0588 48.0248 77.8165C47.9492 77.5052 47.7982 77.2284 47.5718 76.9861C47.685 76.2943 47.5718 75.6369 47.1944 75.118C46.817 74.5644 46.1754 74.253 45.4206 74.2183C45.1943 73.9762 44.93 73.7341 44.5526 73.5609C44.5148 73.5264 44.4771 73.5264 44.4393 73.4918L44.4016 67.6448L45.7604 66.3647H47.1568L48.553 67.6101V70.1359L49.9494 71.3813L56.856 71.3468L56.8183 65.0154L59.6866 63.8045ZM47.6095 69.7553C47.6095 69.2709 47.1568 68.8558 46.6283 68.8558C46.0999 68.8558 45.647 69.2709 45.647 69.7553C45.647 70.2397 46.0999 70.6548 46.6283 70.6548C47.1568 70.6548 47.6095 70.2742 47.6095 69.7553ZM55.6861 80.2384L55.6483 73.907H54.2519L54.2897 80.2384H55.6861ZM77.3869 69.6168C77.3869 70.1012 77.8399 70.5165 78.3683 70.5165C78.8965 70.5165 79.3495 70.1012 79.3495 69.6168C79.3495 69.1325 78.8965 68.7173 78.3683 68.7173C77.802 68.6828 77.3869 69.0979 77.3869 69.6168ZM69.3859 73.8377L69.4237 80.1692H70.8201L70.7823 73.8377H69.3859ZM63.838 66.2955L63.8757 71.3468H65.2721L65.2345 66.2955H63.838ZM61.2339 61.2443C61.2718 61.7632 61.5737 62.1438 61.8755 62.4206C62.0266 62.5589 61.9132 62.7665 61.7245 62.7665H61.2718V63.8736H63.6494V62.7665H63.1964C63.0077 62.7665 62.8946 62.5589 63.0456 62.4206C63.3096 62.1783 63.6117 61.7632 63.6494 61.2443C63.687 60.3793 63.1964 60.2409 62.9322 60.2063C62.6682 60.1716 62.8946 60.5177 63.0833 60.656C63.2719 60.7945 62.7814 60.8637 62.4793 60.8637C62.1774 60.8637 61.6868 60.829 61.8755 60.656C62.0642 60.5177 62.2906 60.1371 62.0266 60.2063C61.6492 60.2409 61.1584 60.3793 61.2339 61.2443ZM59.7243 66.2955L59.762 71.3468H61.1584L61.1207 66.2955H59.7243ZM73.0845 45.2946C73.3864 45.9866 73.8393 46.5747 74.2546 47.0591C74.6696 47.5435 75.047 47.8203 75.2734 47.9933C75.3489 48.0279 75.4621 47.9933 75.4621 47.9241C75.4999 47.6818 75.5376 47.1976 75.5376 46.6094C75.5376 46.0211 75.3868 45.2946 75.0847 44.6027C74.7828 43.9107 74.3299 43.3226 73.9148 42.8382C73.4996 42.3884 73.1222 42.077 72.8958 41.904C72.8203 41.8695 72.7071 41.904 72.7071 41.9732C72.6694 42.2155 72.5939 42.6999 72.6316 43.288C72.6694 43.8762 72.7826 44.6027 73.0845 45.2946ZM58.4411 82.764L66.7064 82.7295L65.31 81.4838L65.2721 76.4672H63.9136L63.9512 81.4838H61.1963L61.1584 76.4672H59.7998L59.8375 81.4838L58.4411 82.764ZM69.1972 46.0558C70.7446 46.7132 72.3297 46.7477 72.8581 46.7132C72.9335 46.7132 72.9713 46.6094 72.9335 46.5747C72.5939 46.1596 71.5371 45.0871 69.952 44.4298C68.4047 43.7724 66.8196 43.7377 66.2912 43.7724C66.2156 43.7724 66.178 43.8762 66.2156 43.9107C66.5554 44.2913 67.6499 45.3984 69.1972 46.0558ZM73.0845 47.9586C72.292 47.7857 71.5371 47.7857 70.8956 47.8548C70.254 47.9241 69.7633 48.0624 69.4992 48.1316C69.4237 48.1663 69.3859 48.2701 69.4614 48.3047C69.6501 48.4777 70.0653 48.789 70.5936 49.1004C71.122 49.4117 71.8391 49.7231 72.6316 49.8961C73.4242 50.0691 74.179 50.0691 74.8207 49.9999C75.4621 49.9308 75.9529 49.7923 76.2171 49.7231C76.2924 49.6885 76.3303 49.5848 76.2547 49.5502C76.066 49.3772 75.6508 49.0658 75.1225 48.7545C74.5564 48.443 73.877 48.1316 73.0845 47.9586ZM85.8031 67.9907C85.8031 67.714 85.7276 67.2295 85.5767 66.6068C85.4257 65.9841 85.1615 65.2576 84.6709 64.6002C84.218 63.9083 83.6142 63.3892 83.0858 63.0086C82.5574 62.6282 82.0668 62.3514 81.8404 62.2476C81.7649 62.2129 81.6517 62.2821 81.6517 62.3514C81.6517 62.6282 81.727 63.1124 81.8781 63.7352C82.0291 64.358 82.2933 65.0846 82.7839 65.742C83.2368 66.4339 83.8406 66.9528 84.369 67.3334C84.8973 67.714 85.388 67.9907 85.6144 68.0946C85.6899 68.1292 85.8031 68.0599 85.8031 67.9907ZM81.6139 60.5522C82.2178 61.0713 82.8971 61.3826 83.5009 61.6247C84.1048 61.867 84.5954 61.9708 84.8596 62.0053C84.9351 62.0053 85.0106 61.9361 84.9728 61.867C84.8973 61.6247 84.7086 61.175 84.369 60.656C84.0671 60.1371 83.6142 59.5489 82.9726 59.03C82.3687 58.5109 81.6894 58.1996 81.0856 57.9574C80.4817 57.7152 79.9911 57.6114 79.7269 57.5769C79.6513 57.5769 79.5758 57.6461 79.6137 57.7152C79.6892 57.9574 79.8779 58.4073 80.2174 58.9262C80.5572 59.4797 81.0101 60.0678 81.6139 60.5522ZM84.1803 74.6336C84.2935 74.3568 84.4445 73.8724 84.5577 73.215C84.6709 72.5576 84.7086 71.7619 84.5199 70.9316C84.369 70.1012 84.0293 69.3747 83.6519 68.8211C83.3122 68.233 82.9348 67.8178 82.7461 67.6101C82.6707 67.541 82.5574 67.5756 82.5197 67.6448C82.4065 67.9216 82.2555 68.406 82.1423 69.0632C82.0291 69.7206 81.9913 70.5165 82.18 71.3468C82.3687 72.1772 82.6707 72.9037 83.0481 73.4573C83.3877 74.0453 83.7651 74.4606 83.9538 74.6681C84.0293 74.7374 84.1425 74.7027 84.1803 74.6336ZM83.2368 77.3667C83.3122 76.7785 82.7461 76.4326 82.4442 76.2596C82.5574 76.0175 82.6707 75.5331 82.5197 75.0833C82.4065 74.8065 82.2178 74.5989 81.8781 74.4951C81.5762 74.3913 81.2743 74.3913 80.9722 74.5297C80.5572 74.7374 80.3308 75.1871 80.2174 75.4293C79.8779 75.3254 79.1984 75.2216 78.8589 75.706C78.4436 76.2596 78.7457 77.0208 78.9721 77.4014C78.5947 77.4706 78.3304 77.6782 78.2549 77.9895C78.1417 78.4392 78.4436 78.889 78.5947 79.1658C78.4815 79.2696 78.1041 80.8265 79.1608 81.2417C80.2174 81.6568 81.0101 80.2037 81.0101 80.0654C81.0101 80.0654 81.0101 80.0654 81.0478 80.0654C81.3496 79.9961 81.8781 79.8231 82.1046 79.4425C82.2555 79.1658 82.2178 78.8198 81.9913 78.543C82.3687 78.4047 83.1235 78.0241 83.2368 77.3667ZM86.407 69.2708C86.0296 69.9974 85.8409 70.7586 85.7654 71.3813C85.6899 72.004 85.6899 72.5231 85.7276 72.7999C85.7276 72.869 85.8409 72.9382 85.9163 72.9037C86.1428 72.7652 86.5957 72.4539 87.0863 72.004C87.5769 71.5543 88.1053 70.9662 88.4827 70.2397C88.8601 69.5131 89.0488 68.7519 89.1244 68.1292C89.1997 67.5063 89.1997 66.9874 89.162 66.7106C89.162 66.6415 89.0488 66.5723 88.9733 66.6068C88.747 66.7453 88.294 67.0566 87.8035 67.5063C87.3127 67.9562 86.8221 68.5443 86.407 69.2708ZM86.5202 63.4585C86.2937 64.2196 86.256 64.9461 86.2937 65.569C86.3315 66.1917 86.4447 66.676 86.5202 66.9183C86.5579 66.9874 86.6711 67.0221 86.7089 66.9874C86.8976 66.8144 87.275 66.4338 87.6524 65.9494C88.0298 65.4305 88.4072 64.8078 88.6336 64.0466C88.8601 63.2854 88.8978 62.5589 88.8601 61.9361C88.8223 61.3134 88.7091 60.829 88.6336 60.5869C88.5959 60.5177 88.4827 60.4831 88.4449 60.5177C88.2562 60.6907 87.8788 61.0713 87.5014 61.5555C87.124 62.0746 86.7466 62.6973 86.5202 63.4585ZM76.5566 51.2109C75.7642 51.0379 74.9715 51.0379 74.3299 51.1071C73.6883 51.1762 73.1977 51.3147 72.9335 51.3838C72.8581 51.4185 72.8203 51.5222 72.8958 51.5568C73.0845 51.7298 73.4996 52.0412 74.028 52.3525C74.5941 52.664 75.2734 52.9754 76.066 53.1484C76.8585 53.3213 77.6512 53.3213 78.2928 53.2522C78.9344 53.1829 79.425 53.0446 79.6892 52.9754C79.7645 52.9407 79.8024 52.8369 79.7269 52.8024C79.5382 52.6293 79.1231 52.318 78.5947 52.0066C78.0662 51.6953 77.3493 51.3839 76.5566 51.2109ZM80.7459 52.664C81.0478 53.2175 81.3496 53.5981 81.5007 53.8058C81.5383 53.8749 81.6894 53.8403 81.6894 53.7711C81.8026 53.529 81.9536 53.0792 82.1046 52.491C82.2178 51.9028 82.2933 51.1762 82.18 50.4152C82.0668 49.654 81.7649 48.962 81.5007 48.443C81.1988 47.8895 80.8969 47.5089 80.7459 47.3012C80.7082 47.2321 80.5572 47.2667 80.5572 47.3359C80.444 47.578 80.293 48.0279 80.1421 48.616C80.0287 49.2042 79.9534 49.9308 80.0666 50.692C80.1421 51.4185 80.444 52.1104 80.7459 52.664ZM77.6133 50.1037C77.9909 50.6227 78.3304 51.0033 78.557 51.1762C78.6323 51.2455 78.7457 51.2109 78.7457 51.1417C78.821 50.8994 78.9344 50.3805 79.0097 49.7578C79.0476 49.1349 79.0476 48.3739 78.821 47.6127C78.5947 46.8515 78.2549 46.1596 77.8775 45.6407C77.5001 45.1216 77.1606 44.741 76.934 44.5681C76.8585 44.4989 76.7453 44.5336 76.7453 44.6027C76.6698 44.8448 76.5566 45.3639 76.4811 45.9866C76.4058 46.6094 76.4434 47.3706 76.6698 48.1316C76.8964 48.8928 77.2359 49.5848 77.6133 50.1037ZM85.3125 60.0678C85.4257 60.656 85.5767 61.1405 85.6522 61.3479C85.6899 61.4172 85.8031 61.4517 85.8409 61.3826C86.0296 61.175 86.3315 60.7945 86.6334 60.2754C86.9353 59.7565 87.2372 59.0991 87.3882 58.338C87.5392 57.5769 87.5014 56.8502 87.3882 56.2622C87.275 55.6739 87.124 55.1897 87.0485 54.982C87.0108 54.9129 86.8976 54.8782 86.8598 54.9474C86.6711 55.155 86.3692 55.5356 86.0673 56.0545C85.7654 56.5734 85.4634 57.2308 85.3125 57.992C85.1993 58.7532 85.237 59.4797 85.3125 60.0678ZM84.1425 57.0925C84.1803 57.1617 84.2935 57.1617 84.3312 57.0925C84.4445 56.8849 84.7086 56.4351 84.8973 55.8816C85.086 55.328 85.2747 54.6014 85.2747 53.8403C85.2747 53.0792 85.086 52.3872 84.8973 51.8336C84.7086 51.28 84.4445 50.8303 84.2935 50.6227C84.2558 50.5535 84.1425 50.5535 84.1048 50.6227C83.9916 50.8303 83.7274 51.28 83.5387 51.8336C83.35 52.3872 83.1613 53.1137 83.1613 53.8749C83.1613 54.6361 83.35 55.328 83.5387 55.8816C83.7651 56.4351 83.9916 56.8849 84.1425 57.0925ZM78.406 54.2555C77.7643 54.2208 77.2738 54.2555 77.0095 54.29C76.934 54.29 76.8964 54.3938 76.934 54.463C77.0851 54.6706 77.4246 55.0512 77.8775 55.4318C78.3683 55.8469 78.9721 56.2621 79.7269 56.5389C80.4817 56.8502 81.2365 56.954 81.8781 56.9887C82.5197 57.0233 83.0103 56.9887 83.2745 56.954C83.35 56.954 83.3877 56.8502 83.35 56.7811C83.199 56.5734 82.8594 56.193 82.4065 55.8124C81.9159 55.3971 81.312 54.982 80.5572 54.7053C79.8024 54.4285 79.0476 54.29 78.406 54.2555ZM48.553 49.8961C48.8172 49.9653 49.308 50.1037 49.9494 50.1384C50.591 50.2076 51.3458 50.2076 52.1385 50.0346C52.931 49.8616 53.6104 49.5502 54.1387 49.2042C54.6671 48.8583 55.0822 48.5469 55.2709 48.4084C55.3464 48.3739 55.3087 48.2354 55.2332 48.2354C54.969 48.1663 54.4784 48.0279 53.8368 47.9933C53.1952 47.9586 52.4404 47.9241 51.6479 48.0971C50.8553 48.2701 50.176 48.5815 49.6475 48.9275C49.1193 49.2734 48.704 49.5848 48.5153 49.7231C48.4398 49.7578 48.4777 49.8616 48.553 49.8961ZM45.383 84.5285C45.7225 83.5252 44.1752 82.764 44.0242 82.7986C44.0242 82.7986 44.0242 82.7986 44.0242 82.764C43.911 82.4872 43.7223 81.9683 43.2694 81.7606C42.9675 81.6223 42.5901 81.6568 42.2881 81.8991C42.0994 81.5185 41.6843 80.8265 40.9295 80.7228C40.3256 80.6535 39.9482 81.2071 39.7973 81.4838C39.5331 81.38 39.0047 81.2762 38.5517 81.4147C38.2499 81.5185 38.0612 81.7261 37.948 82.0029C37.8348 82.3142 37.8725 82.591 38.0235 82.8333C38.2877 83.2137 38.7783 83.456 39.0425 83.5252C38.967 83.8366 38.8915 84.4938 39.4199 84.8053C40.0615 85.1859 40.854 84.8744 41.2314 84.7014C41.3069 85.0474 41.5711 85.3242 41.9107 85.3935C42.4014 85.4973 42.8542 85.2205 43.1184 85.0474C43.3449 85.1167 45.0432 85.5318 45.383 84.5285ZM37.3064 66.1917C37.6838 66.7106 38.0612 67.0566 38.2499 67.2295C38.3254 67.2989 38.4386 67.2642 38.4386 67.1604C38.5141 66.9183 38.6273 66.4338 38.6273 65.8111C38.6651 65.1884 38.6273 64.4619 38.363 63.7007C38.1367 62.9395 37.7216 62.3167 37.344 61.7978C36.9666 61.2788 36.5892 60.9328 36.4005 60.7599C36.3252 60.6907 36.2118 60.7252 36.2118 60.829C36.1365 61.0713 36.061 61.5555 36.0231 62.1783C35.9855 62.8012 36.0231 63.5277 36.2873 64.2887C36.5139 65.0499 36.929 65.6727 37.3064 66.1917ZM50.0249 87.1925C49.8362 86.9157 49.5344 86.466 49.0438 86.3621C48.704 86.2583 48.3643 86.3968 48.1379 86.6736C47.8737 86.3275 47.27 85.7394 46.5528 85.7739C45.9491 85.8086 45.7225 86.4313 45.647 86.7427C45.383 86.7081 44.8167 86.6736 44.4016 86.9157C44.1374 87.0542 43.9865 87.2963 43.9487 87.6076C43.911 87.919 44.0242 88.1958 44.2129 88.4035C44.5526 88.7494 45.0809 88.8532 45.383 88.8879C45.383 89.1991 45.4583 89.8565 46.0622 90.0642C46.7792 90.3063 47.4587 89.8565 47.7982 89.6144C47.9869 89.9603 48.289 90.1333 48.6285 90.1333C49.1193 90.1333 49.5344 89.7527 49.7231 89.5797C49.8741 89.6489 51.6101 89.7182 51.7232 88.6456C51.8743 87.6076 50.176 87.1578 50.0249 87.1925ZM36.5139 70.4818C36.8913 71.2083 37.4574 71.7966 37.948 72.2463C38.4386 72.6961 38.8915 73.0075 39.1178 73.1458C39.1934 73.1805 39.3065 73.1458 39.3065 73.042C39.3065 72.7652 39.3444 72.2463 39.2312 71.6236C39.1557 71.0007 38.9291 70.2397 38.5517 69.5131C38.1743 68.7864 37.6082 68.1984 37.1177 67.7486C36.6271 67.2989 36.1742 66.9874 35.9478 66.8491C35.8723 66.8144 35.7591 66.8491 35.7591 66.9528C35.7591 67.2295 35.7212 67.7486 35.8344 68.3713C35.9478 68.9941 36.1365 69.7553 36.5139 70.4818ZM39.4954 78.4392C40.1369 78.7853 40.7408 78.9928 41.005 79.0966C41.0804 79.1313 41.1937 79.0275 41.1937 78.9583C41.1182 78.6815 40.9672 78.1279 40.703 77.4706C40.4011 76.8132 39.986 76.0866 39.3444 75.3948C38.7028 74.7374 37.9856 74.2183 37.3064 73.8724C36.6271 73.5264 36.061 73.3188 35.7968 73.215C35.6836 73.1805 35.6081 73.2496 35.6081 73.3535C35.6836 73.6302 35.8344 74.1838 36.0986 74.8412C36.4005 75.4984 36.8158 76.2249 37.4574 76.917C38.099 77.5744 38.8538 78.0933 39.4954 78.4392ZM52.5914 84.0787C52.7046 83.8019 52.931 83.3175 52.7801 82.8678C52.6667 82.5565 52.3649 82.3834 51.9875 82.3834C52.1385 81.9683 52.3272 81.2071 51.8366 80.6882C51.4214 80.2384 50.7797 80.446 50.4402 80.5843C50.2892 80.3422 49.9873 79.927 49.572 79.7886C49.2701 79.6848 48.9683 79.7193 48.704 79.8578C48.4022 80.0308 48.2135 80.2384 48.1756 80.5152C48.0624 80.9649 48.289 81.4147 48.4398 81.6568C48.1379 81.8644 47.6095 82.2797 47.7982 82.8333C47.9869 83.4905 48.8172 83.7673 49.2325 83.8711C49.0438 84.1825 49.0438 84.5285 49.2325 84.8053C49.5344 85.1859 50.0628 85.255 50.3647 85.2897C50.3647 85.2897 50.3647 85.2897 50.4023 85.2897C50.4023 85.428 51.3837 86.7427 52.4027 86.2238C53.4217 85.7048 52.7046 84.1825 52.5914 84.0787ZM69.4237 83.5252L72.292 90.4101C69.2727 91.4481 66.0269 92.0361 62.5927 92.0708C59.1582 92.1055 55.9125 91.5519 52.8933 90.5139L55.6861 83.5943C57.8373 84.3208 60.1394 84.7014 62.5548 84.7014C64.9702 84.7014 67.3102 84.2864 69.4237 83.5252ZM89.2375 72.9382C88.9357 73.042 88.3696 73.2496 87.7279 73.5956C87.0863 73.9415 86.3315 74.4606 85.7276 75.118C85.086 75.8098 84.6709 76.5364 84.4067 77.1938C84.1425 77.8512 83.9916 78.4047 83.9161 78.6815C83.9161 78.7853 83.9916 78.8545 84.1048 78.8198C84.4067 78.716 84.9728 78.5085 85.6144 78.1624C86.256 77.8165 87.0108 77.2976 87.6148 76.6402C88.2562 75.9482 88.6714 75.2216 88.9357 74.5644C89.1997 73.907 89.3507 73.3535 89.4262 73.0767C89.4262 72.9729 89.3131 72.9037 89.2375 72.9382ZM86.5202 81.1726C86.0673 81.0341 85.5389 81.1726 85.2747 81.2417C85.1238 80.9303 84.7464 80.4114 84.1425 80.4805C83.4255 80.5843 82.9726 81.2762 82.8216 81.6915C82.5197 81.4839 82.1423 81.4147 81.8404 81.5877C81.4252 81.7953 81.1988 82.3142 81.1233 82.591C81.1233 82.591 81.1233 82.591 81.1233 82.6256C80.9722 82.6256 79.425 83.3867 79.8024 84.3902C80.1798 85.3935 81.8404 84.9782 81.9536 84.8744C82.2178 85.0129 82.7084 85.2897 83.1613 85.1859C83.5009 85.1167 83.7274 84.8744 83.8406 84.4938C84.218 84.6669 85.0106 84.9782 85.6522 84.5976C86.1805 84.2863 86.105 83.629 86.0296 83.3175C86.2937 83.2137 86.7844 83.0062 87.0485 82.591C87.1995 82.3489 87.2372 82.0374 87.124 81.7606C87.0108 81.4493 86.8221 81.2417 86.5202 81.1726ZM80.7836 86.7081C80.3685 86.466 79.84 86.5006 79.5382 86.5351C79.4626 86.2238 79.2363 85.601 78.5947 85.5665C77.8399 85.5318 77.2738 86.12 77.0095 86.466C76.7453 86.1892 76.4058 86.0854 76.1037 86.1545C75.6131 86.293 75.3112 86.7427 75.1602 86.9849C75.0094 86.9504 73.3109 87.4001 73.4619 88.438C73.6129 89.4759 75.3489 89.4068 75.4621 89.3376C75.6886 89.5451 76.1037 89.8912 76.5945 89.8912C76.934 89.8912 77.2359 89.6836 77.4246 89.3376C77.7643 89.6144 78.4815 90.0295 79.1608 89.7874C79.7645 89.5797 79.84 88.9224 79.8024 88.6111C80.0666 88.5764 80.6327 88.438 80.9722 88.1267C81.1988 87.919 81.2743 87.6423 81.2365 87.331C81.1988 87.1233 81.0478 86.8811 80.7836 86.7081ZM74.8207 85.1512C75.1602 85.082 75.6886 85.0129 75.9905 84.6323C76.1792 84.3902 76.1792 84.0441 75.9905 83.6981C76.4058 83.5943 77.1982 83.3175 77.4246 82.6601C77.5756 82.1066 77.0472 81.6568 76.7832 81.4838C76.8964 81.2417 77.1227 80.792 77.0095 80.3422C76.934 80.0654 76.7453 79.8231 76.4434 79.6848C76.1416 79.5464 75.8395 79.5119 75.5755 79.6157C75.1225 79.7886 74.8207 80.2037 74.7073 80.446C74.3677 80.3076 73.7261 80.1346 73.3109 80.5843C72.8581 81.1033 73.0468 81.8991 73.1977 82.2797C72.8203 82.3142 72.5184 82.4872 72.4052 82.7986C72.2542 83.2137 72.4807 83.7328 72.5939 83.9749C72.5939 83.9749 72.5939 83.9749 72.5939 84.0096C72.4807 84.1134 71.8768 85.601 72.8958 86.12C73.877 86.6389 74.8207 85.2897 74.8207 85.1512ZM46.0244 51.3147C46.0622 51.3839 46.1754 51.4185 46.2131 51.3492C46.4018 51.1762 46.7792 50.7956 47.1189 50.2421C47.4587 49.6885 47.8361 49.0313 48.0624 48.2701C48.2511 47.5089 48.289 46.7477 48.2135 46.125C48.1379 45.5022 48.0248 45.0178 47.9492 44.741C47.9116 44.6719 47.7982 44.6372 47.7605 44.7065C47.5718 44.8795 47.1944 45.2601 46.8547 45.8137C46.4773 46.3326 46.1378 47.0245 45.9112 47.7857C45.7225 48.5469 45.6848 49.308 45.7604 49.9308C45.798 50.5535 45.9491 51.0379 46.0244 51.3147ZM41.3824 61.867C41.9862 61.6247 42.6655 61.2788 43.2694 60.7945C43.8732 60.3101 44.3261 59.6874 44.628 59.1683C44.93 58.6494 45.1187 58.1996 45.1943 57.9574C45.2319 57.8882 45.1564 57.7844 45.0432 57.819C44.779 57.8537 44.2884 57.992 43.6845 58.2341C43.0807 58.4764 42.4014 58.8224 41.7975 59.3068C41.1937 59.791 40.7408 60.4139 40.4389 60.9328C40.1369 61.4517 39.9482 61.9015 39.8728 62.1438C39.835 62.2129 39.9105 62.3167 40.0237 62.2821C40.2879 62.2129 40.8163 62.0746 41.3824 61.867ZM40.854 74.8412C40.8917 74.9103 41.005 74.9448 41.0804 74.8757C41.2691 74.6681 41.6088 74.253 41.9485 73.6647C42.2881 73.0767 42.6278 72.3501 42.7788 71.5198C42.9297 70.6894 42.892 69.8936 42.7788 69.2363C42.6655 68.579 42.4768 68.0599 42.4014 67.8178C42.3636 67.7486 42.2504 67.714 42.1749 67.7831C41.9862 67.9907 41.6466 68.406 41.3069 68.9941C40.9672 69.5823 40.6276 70.3088 40.4766 71.1392C40.3256 71.9695 40.3634 72.7652 40.4766 73.4226C40.5898 74.08 40.7785 74.5989 40.854 74.8412ZM39.1934 68.1984C39.1934 68.2675 39.3065 68.3367 39.3821 68.3022C39.6463 68.1637 40.0992 67.9216 40.6276 67.5063C41.1559 67.1259 41.722 66.5723 42.1749 65.8803C42.6278 65.1884 42.892 64.4619 43.0429 63.8736C43.1939 63.2509 43.2317 62.7318 43.2317 62.4897C43.2317 62.4206 43.1184 62.3514 43.0429 62.3859C42.7788 62.5244 42.3259 62.7665 41.7975 63.1818C41.2691 63.5622 40.703 64.1158 40.2502 64.8078C39.7973 65.4997 39.5331 66.2262 39.3821 66.8144C39.2312 67.4372 39.1934 67.9562 39.1934 68.1984ZM38.2122 60.5522C38.5141 61.0713 38.8538 61.4517 39.0425 61.6594C39.0802 61.7285 39.2312 61.694 39.2312 61.6247C39.3065 61.3826 39.4576 60.9328 39.5708 60.3101C39.6463 59.7219 39.6841 58.9953 39.5331 58.2341C39.3821 57.4731 39.0802 56.8157 38.7404 56.2968C38.4386 55.7777 38.099 55.3971 37.9103 55.1897C37.8725 55.1204 37.7216 55.155 37.7216 55.2242C37.6461 55.4665 37.4951 55.9162 37.3819 56.5389C37.3064 57.127 37.2687 57.8537 37.4195 58.6147C37.5706 59.3759 37.8725 60.0333 38.2122 60.5522ZM51.8366 46.817C52.3649 46.817 53.95 46.7823 55.4974 46.125C57.0447 45.4676 58.1015 44.3604 58.4411 43.98C58.4789 43.9107 58.4411 43.8415 58.3656 43.8415C57.8373 43.8415 56.2522 43.8762 54.7048 44.5336C53.1575 45.1908 52.1006 46.2979 51.7611 46.6785C51.6856 46.7132 51.7611 46.817 51.8366 46.817ZM41.5711 57.1963C41.8353 57.2308 42.3636 57.2655 42.9675 57.1963C43.6091 57.1617 44.3639 57.0233 45.0809 56.7119C45.8357 56.4005 46.4396 55.9854 46.8926 55.5701C47.3455 55.155 47.685 54.7744 47.8361 54.6014C47.8737 54.5323 47.8361 54.4285 47.7605 54.4285C47.4963 54.3938 46.9679 54.3593 46.3641 54.4285C45.7225 54.463 44.9677 54.6014 44.2506 54.9129C43.5336 55.2242 42.892 55.6394 42.4391 56.0545C41.9862 56.4698 41.6466 56.8502 41.4956 57.0233C41.4579 57.0925 41.4956 57.1963 41.5711 57.1963ZM40.5143 57.3001C40.5521 57.3693 40.6653 57.3693 40.703 57.3001C40.8163 57.0925 41.0804 56.6427 41.2691 56.0892C41.4579 55.5356 41.6466 54.8091 41.6466 54.0479C41.6466 53.2867 41.4579 52.5948 41.2691 52.0412C41.0427 51.4877 40.8163 51.0379 40.6653 50.8303C40.6276 50.7611 40.5143 50.7611 40.4766 50.8303C40.3634 51.0379 40.0992 51.4877 39.9105 52.0412C39.7218 52.5948 39.5331 53.3213 39.5331 54.0825C39.5331 54.8436 39.7218 55.5356 39.9105 56.0892C40.1369 56.6772 40.3634 57.0925 40.5143 57.3001ZM45.0809 53.1829C45.3451 53.2522 45.8357 53.3905 46.4773 53.4252C47.1189 53.4943 47.9116 53.4943 48.704 53.3213C49.4967 53.1484 50.2136 52.8369 50.7421 52.491C51.2705 52.1795 51.6856 51.8336 51.8743 51.6606C51.9498 51.5915 51.9119 51.4877 51.8366 51.4877C51.5724 51.4185 51.0818 51.28 50.4402 51.2455C49.7986 51.1762 49.0059 51.1762 48.2135 51.3492C47.4208 51.5222 46.7039 51.8336 46.1754 52.1795C45.647 52.491 45.2319 52.8369 45.0432 53.0099C44.9677 53.0446 45.0054 53.1484 45.0809 53.1829ZM49.4588 48.0971C49.6475 47.9241 50.0628 47.6127 50.4779 47.1629C50.8929 46.7132 51.3082 46.125 51.6101 45.3984C51.9119 44.7065 51.9875 43.98 52.0253 43.3918C52.063 42.8035 51.9875 42.3193 51.9498 42.077C51.9498 42.0078 51.8366 41.9732 51.7611 42.0078C51.5724 42.1808 51.1571 42.4923 50.7421 42.942C50.3268 43.3918 49.9118 43.98 49.6099 44.7065C49.308 45.3984 49.2325 46.125 49.1946 46.7132C49.157 47.3012 49.2325 47.7857 49.2701 48.0279C49.308 48.1316 49.4212 48.1663 49.4588 48.0971ZM43.0807 53.9787C43.1184 54.0479 43.2316 54.0479 43.2694 54.0132C43.4204 53.8058 43.7223 53.4252 44.0242 52.8716C44.3261 52.318 44.5903 51.6606 44.7035 50.8649C44.8167 50.1037 44.7413 49.3772 44.5903 48.789C44.4771 48.2009 44.2884 47.7165 44.1752 47.5089C44.1374 47.4397 44.0242 47.4397 43.9865 47.4744C43.8355 47.6818 43.5336 48.0624 43.2317 48.616C42.9297 49.1696 42.6655 49.827 42.5523 50.6227C42.4391 51.3839 42.5146 52.1104 42.6655 52.6986C42.8165 53.2522 42.9675 53.7364 43.0807 53.9787ZM58.0637 89.4759H57.7995V86.1892C57.7995 86.0854 57.7241 86.0162 57.6108 86.0162H57.4221C57.3467 86.0162 57.2712 86.0507 57.2334 86.0854C56.9315 86.5351 56.4786 86.9504 55.9503 87.2963C55.8748 87.3655 55.837 87.4693 55.9125 87.5384L56.0635 87.7461C56.1012 87.7807 56.139 87.8152 56.1767 87.8152C56.2144 87.8152 56.2899 87.8152 56.3277 87.7807C56.4786 87.6769 56.6673 87.5731 56.8183 87.4693V89.4414H56.4409C56.2522 89.4414 56.139 89.5451 56.139 89.7182V89.8219C56.139 89.995 56.2522 90.0987 56.4409 90.0987L57.2712 90.0642L58.0637 90.0987C58.2524 90.0987 58.3656 89.995 58.3656 89.8219V89.7182C58.3656 89.5797 58.2524 89.4759 58.0637 89.4759ZM61.6868 86.1892C61.6492 86.12 61.5736 86.0854 61.4981 86.0854H59.045C58.9318 86.0854 58.8563 86.1545 58.8563 86.2583V87.2272C58.8563 87.4001 58.9695 87.5039 59.1582 87.5039H59.2714C59.4601 87.5039 59.5733 87.4001 59.5733 87.2272V86.9504H60.8944C60.4415 87.8499 59.762 88.8532 59.2714 89.5797C59.2337 89.6144 59.2337 89.6489 59.2337 89.6836V89.8219C59.2337 89.8912 59.2714 89.9603 59.3469 89.995L59.6866 90.168C59.7243 90.168 59.762 90.2025 59.7998 90.2025C59.8375 90.2025 59.8375 90.2025 59.8754 90.2025L60.0262 90.168C60.0641 90.168 60.1394 90.1333 60.1394 90.0642C60.5168 89.4068 61.4226 87.7114 61.8755 86.6043C61.9132 86.5698 61.8755 86.5006 61.8755 86.466L61.6868 86.1892ZM63.8004 87.2963C63.6117 87.2963 63.423 87.331 63.272 87.3655L63.3096 87.0195C63.5738 87.0195 63.9136 87.0195 64.1023 87.0195C64.7439 86.9849 65.159 86.6736 65.2721 86.0507C65.2721 85.947 65.2345 85.8777 65.1213 85.8432L64.9326 85.7739C64.8194 85.7394 64.7439 85.7739 64.6684 85.8777C64.5173 86.1545 64.5173 86.1545 64.1778 86.1545C63.8757 86.1545 63.423 86.1545 63.0833 86.1545H62.819C62.7058 86.1545 62.6303 86.2238 62.6303 86.3275V86.3621L62.4793 88.0575C62.4793 88.1267 62.4795 88.1612 62.5171 88.1958C62.5548 88.2305 62.5927 88.265 62.6682 88.265H63.0077C63.0833 88.265 63.1209 88.2305 63.1588 88.1958L63.1964 88.1267C63.2719 88.0229 63.423 87.9537 63.7249 87.9537C63.9891 87.9537 64.291 88.0229 64.291 88.6456C64.291 89.4414 63.9512 89.5451 63.5738 89.5451C63.423 89.5451 63.3096 89.5106 63.2343 89.4759C63.3096 89.3721 63.3475 89.2683 63.3475 89.13C63.3475 88.784 63.1209 88.5764 62.7814 88.5764C62.4416 88.5764 62.1774 88.8186 62.1774 89.1991C62.1774 89.7527 62.7435 90.168 63.5738 90.168C64.5929 90.168 65.2721 89.5106 65.2721 88.6111C65.2721 87.8152 64.706 87.2963 63.8004 87.2963ZM67.6499 87.2963C67.4612 87.2963 67.2725 87.331 67.1215 87.3655L67.1593 87.0195C67.4233 87.0195 67.7631 87.0195 67.9518 87.0195C68.5934 86.9849 69.0085 86.6736 69.1218 86.0507C69.1218 85.947 69.084 85.8777 68.9708 85.8432L68.7821 85.7739C68.6689 85.7394 68.5934 85.7739 68.5179 85.8777C68.367 86.1545 68.367 86.1545 68.0273 86.1545C67.7254 86.1545 67.2725 86.1545 66.9328 86.1545H66.6686C66.5554 86.1545 66.4798 86.2238 66.4798 86.3275V86.3621L66.329 88.0575C66.329 88.1267 66.329 88.1612 66.3667 88.1958C66.4045 88.2305 66.4422 88.265 66.5177 88.265H66.8572C66.9328 88.265 66.9706 88.2305 67.0083 88.1958L67.046 88.1267C67.1215 88.0229 67.2725 87.9537 67.5744 87.9537C67.8386 87.9537 68.1405 88.0229 68.1405 88.6456C68.1405 89.4414 67.8008 89.5451 67.4234 89.5451C67.2725 89.5451 67.1593 89.5106 67.0838 89.4759C67.1593 89.3721 67.197 89.2683 67.197 89.13C67.197 88.784 66.9706 88.5764 66.6309 88.5764C66.2912 88.5764 66.0269 88.8186 66.0269 89.1991C66.0269 89.7527 66.5932 90.168 67.4234 90.168C68.4424 90.168 69.1595 89.5106 69.1595 88.6111C69.1218 87.8152 68.5557 87.2963 67.6499 87.2963Z" fill="white"/>
</g>
</g>
</svg>
