<svg width="14" height="14" viewBox="0 0 14 14" fill="none" xmlns="http://www.w3.org/2000/svg">
<g id="Task icon container">
<path id="Vector" d="M4.34716 1.0609C4.34716 0.929641 4.29591 0.803755 4.2047 0.710939C4.11348 0.618123 3.98976 0.565979 3.86076 0.565979C3.73176 0.565979 3.60805 0.618123 3.51683 0.710939C3.42561 0.803755 3.37437 0.929641 3.37437 1.0609V2.10354C2.44049 2.17943 1.82829 2.36552 1.37821 2.82415C0.927485 3.28212 0.744601 3.90573 0.669373 4.85532H13.5374C13.4622 3.90507 13.2793 3.28212 12.8286 2.82415C12.3785 2.36552 11.7656 2.17943 10.8324 2.10288V1.0609C10.8324 0.929641 10.7812 0.803755 10.6899 0.710939C10.5987 0.618123 10.475 0.565979 10.346 0.565979C10.217 0.565979 10.0933 0.618123 10.0021 0.710939C9.91086 0.803755 9.85962 0.929641 9.85962 1.0609V2.05933C9.42835 2.05075 8.94455 2.05075 8.40044 2.05075H5.80634C5.26223 2.05075 4.77843 2.05075 4.34716 2.05933V1.0609Z" fill="black"/>
<path id="Vector_2" fill-rule="evenodd" clip-rule="evenodd" d="M0.669373 7.30639C0.669373 6.79228 0.669373 6.33516 0.677737 5.92767H13.529C13.5374 6.33516 13.5374 6.79228 13.5374 7.30639V8.53192C13.5374 10.8426 13.5374 11.9983 12.7833 12.7159C12.0293 13.4334 10.8165 13.434 8.39019 13.434H5.81658C3.39032 13.434 2.17686 13.434 1.42344 12.7159C0.670016 11.9977 0.669373 10.8426 0.669373 8.53192V7.30639ZM10.3204 8.53192C10.491 8.53192 10.6547 8.46736 10.7753 8.35244C10.896 8.23753 10.9638 8.08167 10.9638 7.91915C10.9638 7.75664 10.896 7.60078 10.7753 7.48587C10.6547 7.37095 10.491 7.30639 10.3204 7.30639C10.1498 7.30639 9.9861 7.37095 9.86544 7.48587C9.74478 7.60078 9.67699 7.75664 9.67699 7.91915C9.67699 8.08167 9.74478 8.23753 9.86544 8.35244C9.9861 8.46736 10.1498 8.53192 10.3204 8.53192ZM10.3204 10.983C10.491 10.983 10.6547 10.9184 10.7753 10.8035C10.896 10.6886 10.9638 10.5327 10.9638 10.3702C10.9638 10.2077 10.896 10.0518 10.7753 9.93692C10.6547 9.822 10.491 9.75744 10.3204 9.75744C10.1498 9.75744 9.9861 9.822 9.86544 9.93692C9.74478 10.0518 9.67699 10.2077 9.67699 10.3702C9.67699 10.5327 9.74478 10.6886 9.86544 10.8035C9.9861 10.9184 10.1498 10.983 10.3204 10.983ZM7.74679 7.91915C7.74679 8.08167 7.679 8.23753 7.55834 8.35244C7.43768 8.46736 7.27403 8.53192 7.10339 8.53192C6.93275 8.53192 6.7691 8.46736 6.64843 8.35244C6.52777 8.23753 6.45999 8.08167 6.45999 7.91915C6.45999 7.75664 6.52777 7.60078 6.64843 7.48587C6.7691 7.37095 6.93275 7.30639 7.10339 7.30639C7.27403 7.30639 7.43768 7.37095 7.55834 7.48587C7.679 7.60078 7.74679 7.75664 7.74679 7.91915ZM7.74679 10.3702C7.74679 10.5327 7.679 10.6886 7.55834 10.8035C7.43768 10.9184 7.27403 10.983 7.10339 10.983C6.93275 10.983 6.7691 10.9184 6.64843 10.8035C6.52777 10.6886 6.45999 10.5327 6.45999 10.3702C6.45999 10.2077 6.52777 10.0518 6.64843 9.93692C6.7691 9.822 6.93275 9.75744 7.10339 9.75744C7.27403 9.75744 7.43768 9.822 7.55834 9.93692C7.679 10.0518 7.74679 10.2077 7.74679 10.3702ZM3.88638 8.53192C4.05702 8.53192 4.22067 8.46736 4.34133 8.35244C4.46199 8.23753 4.52978 8.08167 4.52978 7.91915C4.52978 7.75664 4.46199 7.60078 4.34133 7.48587C4.22067 7.37095 4.05702 7.30639 3.88638 7.30639C3.71574 7.30639 3.55209 7.37095 3.43143 7.48587C3.31077 7.60078 3.24298 7.75664 3.24298 7.91915C3.24298 8.08167 3.31077 8.23753 3.43143 8.35244C3.55209 8.46736 3.71574 8.53192 3.88638 8.53192ZM3.88638 10.983C4.05702 10.983 4.22067 10.9184 4.34133 10.8035C4.46199 10.6886 4.52978 10.5327 4.52978 10.3702C4.52978 10.2077 4.46199 10.0518 4.34133 9.93692C4.22067 9.822 4.05702 9.75744 3.88638 9.75744C3.71574 9.75744 3.55209 9.822 3.43143 9.93692C3.31077 10.0518 3.24298 10.2077 3.24298 10.3702C3.24298 10.5327 3.31077 10.6886 3.43143 10.8035C3.55209 10.9184 3.71574 10.983 3.88638 10.983Z" fill="black"/>
</g>
</svg>
